<?xml version="1.0" encoding="UTF-8" standalone="no"?><!-- Generator: Gravit.io --><svg xmlns="http://www.w3.org/2000/svg" xmlns:xlink="http://www.w3.org/1999/xlink" style="isolation:isolate" viewBox="0 0 1366 768" width="1366pt" height="768pt"><defs><clipPath id="_clipPath_I6ZdS8YFnmVkOeAYengtAUAKUKRE8w7d"><rect width="1366" height="768"/></clipPath></defs><g clip-path="url(#_clipPath_I6ZdS8YFnmVkOeAYengtAUAKUKRE8w7d)"><rect x="-22" y="18" width="832.391" height="520.245" transform="matrix(1,0,0,1,0,0)" fill="none"/><rect x="-22" y="18" width="832.391" height="520.245" transform="matrix(1,0,0,1,0,0)" fill="none"/><g><path d=" M 25.475 290.549 L 25.475 290.549 C 25.998 289.255 27.473 288.629 28.767 289.152 L 108.49 321.362 C 109.785 321.885 110.411 323.361 109.888 324.655 L 109.888 324.655 C 109.365 325.949 107.89 326.575 106.596 326.052 L 26.872 293.841 C 25.578 293.318 24.952 291.844 25.475 290.549 Z " fill="rgb(230,239,194)"/><path d=" M 35.754 305.613 L 35.754 305.613 C 36.277 304.318 37.752 303.693 39.046 304.216 L 90.632 325.057 C 91.926 325.58 92.553 327.056 92.03 328.35 L 92.03 328.35 C 91.507 329.644 90.031 330.27 88.737 329.747 L 37.152 308.905 C 35.858 308.382 35.232 306.907 35.754 305.613 Z " fill="rgb(230,239,194)"/><path d=" M 40.632 253.032 L 40.632 253.032 C 41.155 251.738 42.631 251.112 43.925 251.634 L 123.648 283.845 C 124.942 284.368 125.569 285.843 125.046 287.137 L 125.046 287.137 C 124.523 288.431 123.048 289.058 121.754 288.535 L 42.03 256.324 C 40.736 255.802 40.109 254.326 40.632 253.032 Z " fill="rgb(230,239,194)"/><path d=" M 50.912 268.096 L 50.912 268.096 C 51.435 266.802 52.91 266.175 54.204 266.698 L 105.79 287.54 C 107.084 288.063 107.711 289.538 107.188 290.832 L 107.188 290.832 C 106.665 292.126 105.189 292.753 103.895 292.23 L 52.309 271.388 C 51.015 270.865 50.389 269.39 50.912 268.096 Z " fill="rgb(230,239,194)"/><path d=" M 46.034 320.676 L 46.034 320.676 C 46.557 319.382 48.031 318.756 49.326 319.279 L 72.774 328.752 C 74.068 329.275 74.694 330.751 74.171 332.045 L 74.171 332.045 C 73.648 333.339 72.173 333.965 70.879 333.442 L 47.431 323.969 C 46.137 323.446 45.511 321.97 46.034 320.676 Z " fill="rgb(230,239,194)"/><path d=" M 50.367 289.696 L 50.367 289.696 C 50.89 288.402 52.366 287.776 53.66 288.299 L 91.177 303.457 C 92.471 303.98 93.097 305.455 92.574 306.749 L 92.574 306.749 C 92.051 308.043 90.576 308.67 89.282 308.147 L 51.765 292.989 C 50.471 292.466 49.845 290.99 50.367 289.696 Z " fill="rgb(230,239,194)"/><path d=" M 68.226 286.001 L 68.226 286.001 C 68.749 284.707 70.224 284.081 71.518 284.604 L 83.242 289.341 C 84.536 289.863 85.163 291.339 84.64 292.633 L 84.64 292.633 C 84.117 293.927 82.641 294.553 81.347 294.031 L 69.624 289.294 C 68.329 288.771 67.703 287.295 68.226 286.001 Z " fill="rgb(230,239,194)"/><path d=" M 65.525 252.179 L 65.525 252.179 C 66.048 250.885 67.524 250.259 68.818 250.782 L 106.335 265.94 C 107.629 266.463 108.255 267.938 107.732 269.232 L 107.732 269.232 C 107.209 270.526 105.734 271.152 104.44 270.629 L 66.923 255.471 C 65.629 254.948 65.003 253.474 65.525 252.179 Z " fill="rgb(230,239,194)"/><path d=" M 83.384 248.484 L 83.384 248.484 C 83.907 247.19 85.382 246.564 86.676 247.087 L 98.4 251.824 C 99.694 252.347 100.321 253.821 99.798 255.116 L 99.798 255.116 C 99.275 256.41 97.799 257.036 96.505 256.513 L 84.782 251.776 C 83.487 251.253 82.861 249.779 83.384 248.484 Z " fill="rgb(230,239,194)"/></g><g><path d=" M 159.173 234.979 L 159.173 234.979 C 159.697 233.685 161.172 233.06 162.466 233.584 L 242.164 265.859 C 243.457 266.383 244.082 267.859 243.559 269.153 L 243.559 269.153 C 243.035 270.446 241.559 271.071 240.265 270.547 L 160.567 238.272 C 159.274 237.748 158.649 236.273 159.173 234.979 Z " fill="rgb(230,239,194)"/><path d=" M 169.44 250.051 L 169.44 250.051 C 169.964 248.757 171.439 248.132 172.733 248.656 L 224.303 269.54 C 225.596 270.064 226.221 271.539 225.697 272.833 L 225.697 272.833 C 225.173 274.127 223.698 274.752 222.404 274.228 L 170.835 253.344 C 169.541 252.82 168.916 251.345 169.44 250.051 Z " fill="rgb(230,239,194)"/><path d=" M 174.361 197.474 L 174.361 197.474 C 174.885 196.181 176.361 195.556 177.654 196.079 L 257.352 228.354 C 258.646 228.878 259.271 230.354 258.747 231.648 L 258.747 231.648 C 258.223 232.941 256.747 233.566 255.454 233.042 L 175.756 200.767 C 174.462 200.244 173.837 198.768 174.361 197.474 Z " fill="rgb(230,239,194)"/><path d=" M 184.628 212.546 L 184.628 212.546 C 185.152 211.252 186.628 210.627 187.921 211.151 L 239.491 232.035 C 240.785 232.559 241.41 234.034 240.885 235.328 L 240.885 235.328 C 240.361 236.622 238.886 237.247 237.592 236.723 L 186.023 215.839 C 184.729 215.315 184.104 213.84 184.628 212.546 Z " fill="rgb(230,239,194)"/><path d=" M 179.707 265.123 L 179.707 265.123 C 180.231 263.829 181.707 263.204 183 263.728 L 206.441 273.22 C 207.735 273.744 208.36 275.22 207.836 276.513 L 207.836 276.513 C 207.312 277.808 205.837 278.433 204.542 277.908 L 181.102 268.416 C 179.808 267.892 179.183 266.416 179.707 265.123 Z " fill="rgb(230,239,194)"/><path d=" M 184.066 234.146 L 184.066 234.146 C 184.59 232.853 186.066 232.228 187.359 232.751 L 224.865 247.94 C 226.158 248.463 226.783 249.939 226.259 251.233 L 226.259 251.233 C 225.735 252.526 224.26 253.151 222.966 252.628 L 185.461 237.439 C 184.167 236.916 183.542 235.439 184.066 234.146 Z " fill="rgb(230,239,194)"/><path d=" M 201.928 230.465 L 201.928 230.465 C 202.452 229.172 203.927 228.547 205.221 229.07 L 216.941 233.817 C 218.235 234.341 218.86 235.817 218.336 237.11 L 218.336 237.11 C 217.812 238.404 216.336 239.029 215.043 238.505 L 203.323 233.758 C 202.028 233.235 201.403 231.759 201.928 230.465 Z " fill="rgb(230,239,194)"/><path d=" M 199.254 196.641 L 199.254 196.641 C 199.778 195.347 201.254 194.723 202.548 195.247 L 240.052 210.435 C 241.347 210.959 241.971 212.434 241.447 213.728 L 241.447 213.728 C 240.923 215.022 239.448 215.647 238.154 215.123 L 200.649 199.935 C 199.356 199.411 198.731 197.935 199.254 196.641 Z " fill="rgb(230,239,194)"/><path d=" M 217.115 192.961 L 217.115 192.961 C 217.64 191.667 219.115 191.042 220.409 191.566 L 232.129 196.312 C 233.423 196.836 234.048 198.312 233.524 199.606 L 233.524 199.606 C 233.001 200.899 231.524 201.524 230.231 201 L 218.51 196.254 C 217.217 195.73 216.592 194.254 217.115 192.961 Z " fill="rgb(230,239,194)"/></g><g><path d=" M 374.973 481.696 L 374.973 481.696 C 375.497 480.403 376.972 479.777 378.266 480.301 L 457.964 512.576 C 459.258 513.1 459.883 514.575 459.359 515.87 L 459.359 515.87 C 458.835 517.163 457.359 517.788 456.066 517.264 L 376.368 484.989 C 375.074 484.466 374.449 482.989 374.973 481.696 Z " fill="rgb(230,239,194)"/><path d=" M 385.24 496.767 L 385.24 496.767 C 385.764 495.474 387.24 494.849 388.533 495.373 L 440.103 516.256 C 441.396 516.781 442.021 518.256 441.498 519.55 L 441.498 519.55 C 440.974 520.844 439.498 521.469 438.205 520.945 L 386.635 500.061 C 385.341 499.537 384.716 498.062 385.24 496.767 Z " fill="rgb(230,239,194)"/><path d=" M 390.161 444.191 L 390.161 444.191 C 390.685 442.897 392.161 442.273 393.454 442.797 L 473.153 475.071 C 474.446 475.595 475.071 477.071 474.547 478.364 L 474.547 478.364 C 474.023 479.659 472.548 480.284 471.254 479.759 L 391.556 447.485 C 390.262 446.961 389.637 445.485 390.161 444.191 Z " fill="rgb(230,239,194)"/><path d=" M 400.428 459.263 L 400.428 459.263 C 400.952 457.969 402.428 457.344 403.722 457.868 L 455.291 478.752 C 456.585 479.276 457.21 480.752 456.686 482.045 L 456.686 482.045 C 456.162 483.339 454.686 483.964 453.392 483.44 L 401.823 462.556 C 400.53 462.032 399.905 460.557 400.428 459.263 Z " fill="rgb(230,239,194)"/><path d=" M 395.507 511.84 L 395.507 511.84 C 396.032 510.546 397.507 509.921 398.801 510.445 L 422.241 519.937 C 423.535 520.461 424.16 521.937 423.636 523.23 L 423.636 523.23 C 423.112 524.524 421.637 525.149 420.343 524.625 L 396.902 515.133 C 395.609 514.609 394.984 513.133 395.507 511.84 Z " fill="rgb(230,239,194)"/><path d=" M 399.866 480.863 L 399.866 480.863 C 400.391 479.569 401.866 478.945 403.16 479.468 L 440.665 494.657 C 441.959 495.181 442.584 496.656 442.06 497.95 L 442.06 497.95 C 441.535 499.244 440.06 499.869 438.766 499.345 L 401.261 484.156 C 399.968 483.633 399.343 482.157 399.866 480.863 Z " fill="rgb(230,239,194)"/><path d=" M 417.728 477.182 L 417.728 477.182 C 418.252 475.889 419.727 475.264 421.021 475.788 L 432.741 480.534 C 434.035 481.058 434.66 482.534 434.136 483.827 L 434.136 483.827 C 433.613 485.121 432.136 485.746 430.843 485.222 L 419.123 480.476 C 417.829 479.952 417.204 478.476 417.728 477.182 Z " fill="rgb(230,239,194)"/><path d=" M 415.055 443.359 L 415.055 443.359 C 415.578 442.064 417.055 441.439 418.348 441.964 L 455.853 457.152 C 457.147 457.676 457.772 459.151 457.247 460.445 L 457.247 460.445 C 456.724 461.739 455.248 462.364 453.954 461.84 L 416.45 446.652 C 415.156 446.128 414.531 444.652 415.055 443.359 Z " fill="rgb(230,239,194)"/><path d=" M 432.916 439.678 L 432.916 439.678 C 433.44 438.384 434.916 437.759 436.209 438.283 L 447.93 443.029 C 449.223 443.553 449.848 445.029 449.325 446.323 L 449.325 446.323 C 448.801 447.616 447.325 448.241 446.031 447.718 L 434.311 442.971 C 433.017 442.447 432.392 440.971 432.916 439.678 Z " fill="rgb(230,239,194)"/></g><g><path d=" M 679.417 89.562 L 679.417 89.562 C 679.941 88.268 681.417 87.643 682.71 88.167 L 762.409 120.441 C 763.702 120.966 764.327 122.441 763.804 123.735 L 763.804 123.735 C 763.279 125.029 761.804 125.654 760.51 125.13 L 680.812 92.855 C 679.519 92.331 678.894 90.855 679.417 89.562 Z " fill="rgb(230,239,194)"/><path d=" M 689.685 104.633 L 689.685 104.633 C 690.208 103.34 691.684 102.715 692.978 103.239 L 744.547 124.122 C 745.841 124.646 746.466 126.122 745.942 127.416 L 745.942 127.416 C 745.418 128.709 743.943 129.334 742.648 128.81 L 691.079 107.927 C 689.786 107.403 689.161 105.927 689.685 104.633 Z " fill="rgb(230,239,194)"/><path d=" M 694.606 52.057 L 694.606 52.057 C 695.129 50.763 696.605 50.138 697.899 50.662 L 777.596 82.937 C 778.891 83.461 779.516 84.937 778.991 86.23 L 778.991 86.23 C 778.467 87.524 776.992 88.149 775.698 87.625 L 696.001 55.35 C 694.707 54.826 694.082 53.351 694.606 52.057 Z " fill="rgb(230,239,194)"/><path d=" M 704.873 67.129 L 704.873 67.129 C 705.397 65.835 706.872 65.21 708.166 65.734 L 759.735 86.618 C 761.029 87.141 761.654 88.617 761.13 89.911 L 761.13 89.911 C 760.606 91.204 759.13 91.829 757.837 91.306 L 706.268 70.422 C 704.974 69.898 704.349 68.422 704.873 67.129 Z " fill="rgb(230,239,194)"/><path d=" M 699.952 119.705 L 699.952 119.705 C 700.476 118.411 701.952 117.786 703.245 118.31 L 726.686 127.803 C 727.979 128.327 728.604 129.803 728.08 131.096 L 728.08 131.096 C 727.557 132.39 726.081 133.015 724.787 132.491 L 701.347 122.998 C 700.053 122.474 699.428 120.999 699.952 119.705 Z " fill="rgb(230,239,194)"/><path d=" M 704.311 88.729 L 704.311 88.729 C 704.835 87.435 706.311 86.81 707.604 87.334 L 745.109 102.522 C 746.403 103.046 747.028 104.522 746.504 105.815 L 746.504 105.815 C 745.98 107.109 744.504 107.734 743.21 107.21 L 705.706 92.022 C 704.412 91.498 703.787 90.023 704.311 88.729 Z " fill="rgb(230,239,194)"/><path d=" M 722.172 85.048 L 722.172 85.048 C 722.696 83.754 724.172 83.129 725.465 83.654 L 737.186 88.4 C 738.479 88.924 739.104 90.399 738.581 91.693 L 738.581 91.693 C 738.057 92.987 736.581 93.612 735.288 93.088 L 723.567 88.342 C 722.273 87.817 721.648 86.342 722.172 85.048 Z " fill="rgb(230,239,194)"/><path d=" M 719.499 51.224 L 719.499 51.224 C 720.023 49.93 721.499 49.305 722.793 49.829 L 760.297 65.017 C 761.591 65.541 762.216 67.017 761.692 68.311 L 761.692 68.311 C 761.168 69.604 759.692 70.229 758.399 69.705 L 720.894 54.517 C 719.6 53.993 718.975 52.518 719.499 51.224 Z " fill="rgb(230,239,194)"/><path d=" M 737.36 47.543 L 737.36 47.543 C 737.884 46.249 739.36 45.624 740.654 46.148 L 752.374 50.895 C 753.668 51.419 754.293 52.894 753.769 54.188 L 753.769 54.188 C 753.245 55.482 751.769 56.107 750.475 55.583 L 738.755 50.837 C 737.462 50.312 736.837 48.837 737.36 47.543 Z " fill="rgb(230,239,194)"/></g><g><path d=" M 679.417 89.562 L 679.417 89.562 C 679.941 88.268 681.417 87.643 682.71 88.167 L 762.409 120.441 C 763.702 120.966 764.327 122.441 763.803 123.735 L 763.803 123.735 C 763.279 125.029 761.804 125.654 760.51 125.13 L 680.812 92.855 C 679.519 92.331 678.894 90.855 679.417 89.562 Z " fill="rgb(230,239,194)"/><path d=" M 689.685 104.633 L 689.685 104.633 C 690.208 103.34 691.684 102.715 692.978 103.239 L 744.547 124.122 C 745.841 124.646 746.466 126.122 745.942 127.416 L 745.942 127.416 C 745.418 128.709 743.942 129.334 742.648 128.81 L 691.079 107.927 C 689.786 107.403 689.161 105.927 689.685 104.633 Z " fill="rgb(230,239,194)"/><path d=" M 694.606 52.057 L 694.606 52.057 C 695.129 50.763 696.605 50.138 697.899 50.662 L 777.596 82.937 C 778.891 83.461 779.516 84.937 778.991 86.23 L 778.991 86.23 C 778.467 87.524 776.992 88.149 775.698 87.625 L 696.001 55.35 C 694.707 54.826 694.082 53.351 694.606 52.057 Z " fill="rgb(230,239,194)"/><path d=" M 704.873 67.129 L 704.873 67.129 C 705.397 65.835 706.872 65.21 708.166 65.734 L 759.735 86.618 C 761.029 87.141 761.654 88.617 761.13 89.911 L 761.13 89.911 C 760.606 91.204 759.13 91.829 757.837 91.306 L 706.268 70.422 C 704.974 69.898 704.349 68.422 704.873 67.129 Z " fill="rgb(230,239,194)"/><path d=" M 699.952 119.705 L 699.952 119.705 C 700.476 118.411 701.952 117.786 703.245 118.31 L 726.686 127.803 C 727.979 128.327 728.604 129.803 728.08 131.096 L 728.08 131.096 C 727.557 132.39 726.081 133.015 724.787 132.491 L 701.347 122.998 C 700.053 122.474 699.428 120.999 699.952 119.705 Z " fill="rgb(230,239,194)"/><path d=" M 704.311 88.729 L 704.311 88.729 C 704.835 87.435 706.311 86.81 707.604 87.334 L 745.109 102.522 C 746.403 103.046 747.028 104.522 746.504 105.815 L 746.504 105.815 C 745.98 107.109 744.504 107.734 743.21 107.21 L 705.706 92.022 C 704.412 91.498 703.787 90.023 704.311 88.729 Z " fill="rgb(230,239,194)"/><path d=" M 722.172 85.048 L 722.172 85.048 C 722.696 83.754 724.172 83.129 725.465 83.654 L 737.186 88.4 C 738.479 88.924 739.104 90.399 738.581 91.693 L 738.581 91.693 C 738.057 92.987 736.581 93.612 735.288 93.088 L 723.567 88.342 C 722.273 87.817 721.648 86.342 722.172 85.048 Z " fill="rgb(230,239,194)"/><path d=" M 719.499 51.224 L 719.499 51.224 C 720.023 49.93 721.499 49.305 722.793 49.829 L 760.297 65.017 C 761.591 65.541 762.216 67.017 761.692 68.311 L 761.692 68.311 C 761.168 69.604 759.692 70.229 758.399 69.705 L 720.894 54.517 C 719.6 53.993 718.975 52.518 719.499 51.224 Z " fill="rgb(230,239,194)"/><path d=" M 737.36 47.543 L 737.36 47.543 C 737.884 46.249 739.36 45.624 740.654 46.148 L 752.374 50.895 C 753.668 51.419 754.293 52.894 753.769 54.188 L 753.769 54.188 C 753.245 55.482 751.769 56.107 750.475 55.583 L 738.755 50.837 C 737.462 50.312 736.837 48.837 737.36 47.543 Z " fill="rgb(230,239,194)"/></g><g><path d=" M 524.89 354.886 L 524.89 354.886 C 525.414 353.593 526.89 352.967 528.183 353.491 L 607.881 385.766 C 609.175 386.29 609.8 387.766 609.276 389.06 L 609.276 389.06 C 608.752 390.353 607.276 390.978 605.983 390.455 L 526.285 358.18 C 524.991 357.656 524.366 356.18 524.89 354.886 Z " fill="rgb(230,239,194)"/><path d=" M 535.157 369.958 L 535.157 369.958 C 535.681 368.664 537.157 368.039 538.45 368.564 L 590.02 389.447 C 591.314 389.971 591.939 391.447 591.415 392.741 L 591.415 392.741 C 590.89 394.034 589.415 394.659 588.121 394.135 L 536.552 373.252 C 535.259 372.728 534.633 371.252 535.157 369.958 Z " fill="rgb(230,239,194)"/><path d=" M 540.078 317.381 L 540.078 317.381 C 540.602 316.088 542.078 315.463 543.371 315.987 L 623.07 348.262 C 624.363 348.786 624.988 350.261 624.464 351.555 L 624.464 351.555 C 623.94 352.849 622.465 353.474 621.171 352.95 L 541.473 320.675 C 540.18 320.151 539.555 318.675 540.078 317.381 Z " fill="rgb(230,239,194)"/><path d=" M 550.346 332.453 L 550.346 332.453 C 550.869 331.159 552.345 330.534 553.639 331.059 L 605.208 351.942 C 606.502 352.466 607.127 353.942 606.602 355.236 L 606.602 355.236 C 606.079 356.529 604.603 357.154 603.309 356.63 L 551.74 335.747 C 550.447 335.222 549.822 333.747 550.346 332.453 Z " fill="rgb(230,239,194)"/><path d=" M 545.424 385.03 L 545.424 385.03 C 545.948 383.736 547.424 383.111 548.718 383.635 L 572.158 393.128 C 573.452 393.652 574.077 395.127 573.553 396.421 L 573.553 396.421 C 573.029 397.715 571.554 398.34 570.26 397.816 L 546.819 388.323 C 545.526 387.799 544.901 386.323 545.424 385.03 Z " fill="rgb(230,239,194)"/><path d=" M 549.783 354.053 L 549.783 354.053 C 550.307 352.76 551.783 352.135 553.077 352.658 L 590.582 367.847 C 591.876 368.371 592.501 369.847 591.976 371.14 L 591.976 371.14 C 591.452 372.434 589.977 373.059 588.683 372.535 L 551.178 357.346 C 549.885 356.823 549.26 355.347 549.783 354.053 Z " fill="rgb(230,239,194)"/><path d=" M 567.645 350.373 L 567.645 350.373 C 568.169 349.079 569.644 348.454 570.938 348.978 L 582.658 353.724 C 583.952 354.248 584.577 355.724 584.053 357.017 L 584.053 357.017 C 583.53 358.312 582.053 358.936 580.76 358.412 L 569.04 353.666 C 567.746 353.142 567.121 351.667 567.645 350.373 Z " fill="rgb(230,239,194)"/><path d=" M 564.972 316.549 L 564.972 316.549 C 565.496 315.255 566.972 314.63 568.265 315.154 L 605.77 330.342 C 607.064 330.866 607.688 332.342 607.165 333.636 L 607.165 333.636 C 606.641 334.929 605.165 335.554 603.871 335.03 L 566.367 319.842 C 565.073 319.318 564.448 317.842 564.972 316.549 Z " fill="rgb(230,239,194)"/><path d=" M 582.833 312.868 L 582.833 312.868 C 583.357 311.574 584.833 310.949 586.126 311.473 L 597.847 316.22 C 599.14 316.743 599.765 318.219 599.242 319.513 L 599.242 319.513 C 598.718 320.806 597.242 321.431 595.948 320.908 L 584.228 316.161 C 582.934 315.637 582.309 314.162 582.833 312.868 Z " fill="rgb(230,239,194)"/></g><g><path d=" M 18.707 471.291 L 18.707 471.291 C 19.231 469.998 20.706 469.372 22 469.896 L 101.698 502.171 C 102.991 502.695 103.616 504.171 103.093 505.465 L 103.093 505.465 C 102.569 506.758 101.093 507.383 99.799 506.86 L 20.101 474.584 C 18.808 474.061 18.183 472.585 18.707 471.291 Z " fill="rgb(230,239,194)"/><path d=" M 28.974 486.363 L 28.974 486.363 C 29.498 485.069 30.973 484.444 32.267 484.968 L 83.837 505.852 C 85.13 506.376 85.755 507.851 85.231 509.145 L 85.231 509.145 C 84.707 510.439 83.232 511.064 81.938 510.54 L 30.368 489.656 C 29.075 489.132 28.45 487.657 28.974 486.363 Z " fill="rgb(230,239,194)"/><path d=" M 33.895 433.786 L 33.895 433.786 C 34.419 432.493 35.895 431.868 37.188 432.392 L 116.886 464.666 C 118.18 465.191 118.805 466.666 118.281 467.96 L 118.281 467.96 C 117.757 469.254 116.281 469.879 114.988 469.354 L 35.29 437.08 C 33.996 436.556 33.371 435.08 33.895 433.786 Z " fill="rgb(230,239,194)"/><path d=" M 44.162 448.858 L 44.162 448.858 C 44.686 447.564 46.162 446.939 47.455 447.463 L 99.025 468.347 C 100.319 468.871 100.944 470.347 100.419 471.64 L 100.419 471.64 C 99.895 472.934 98.42 473.559 97.126 473.035 L 45.557 452.151 C 44.263 451.627 43.638 450.152 44.162 448.858 Z " fill="rgb(230,239,194)"/><path d=" M 39.241 501.435 L 39.241 501.435 C 39.765 500.141 41.241 499.516 42.534 500.04 L 65.975 509.532 C 67.269 510.056 67.894 511.532 67.37 512.825 L 67.37 512.825 C 66.846 514.12 65.371 514.745 64.076 514.22 L 40.636 504.728 C 39.342 504.204 38.717 502.728 39.241 501.435 Z " fill="rgb(230,239,194)"/><path d=" M 43.6 470.458 L 43.6 470.458 C 44.124 469.165 45.6 468.54 46.893 469.063 L 84.398 484.252 C 85.692 484.776 86.317 486.251 85.793 487.545 L 85.793 487.545 C 85.269 488.839 83.794 489.464 82.5 488.94 L 44.995 473.751 C 43.701 473.228 43.076 471.752 43.6 470.458 Z " fill="rgb(230,239,194)"/><path d=" M 61.462 466.777 L 61.462 466.777 C 61.986 465.484 63.461 464.859 64.755 465.383 L 76.475 470.129 C 77.769 470.653 78.394 472.129 77.87 473.422 L 77.87 473.422 C 77.346 474.716 75.87 475.341 74.577 474.817 L 62.856 470.071 C 61.562 469.547 60.937 468.071 61.462 466.777 Z " fill="rgb(230,239,194)"/><path d=" M 58.788 432.954 L 58.788 432.954 C 59.312 431.66 60.788 431.035 62.082 431.559 L 99.586 446.747 C 100.88 447.271 101.505 448.746 100.981 450.04 L 100.981 450.04 C 100.457 451.334 98.982 451.959 97.688 451.435 L 60.183 436.247 C 58.89 435.723 58.265 434.247 58.788 432.954 Z " fill="rgb(230,239,194)"/><path d=" M 76.649 429.273 L 76.649 429.273 C 77.174 427.979 78.649 427.354 79.943 427.878 L 91.663 432.625 C 92.957 433.148 93.582 434.624 93.058 435.918 L 93.058 435.918 C 92.534 437.211 91.058 437.836 89.765 437.313 L 78.044 432.566 C 76.751 432.042 76.126 430.566 76.649 429.273 Z " fill="rgb(230,239,194)"/></g><g><path d=" M 424.945 80.885 L 424.945 80.885 C 425.47 79.591 426.945 78.966 428.239 79.49 L 507.936 111.765 C 509.23 112.289 509.855 113.765 509.331 115.059 L 509.331 115.059 C 508.808 116.352 507.331 116.977 506.038 116.453 L 426.34 84.178 C 425.046 83.654 424.421 82.179 424.945 80.885 Z " fill="rgb(230,239,194)"/><path d=" M 435.212 95.957 L 435.212 95.957 C 435.737 94.663 437.212 94.038 438.506 94.562 L 490.075 115.446 C 491.369 115.97 491.994 117.445 491.47 118.739 L 491.47 118.739 C 490.946 120.033 489.47 120.658 488.177 120.134 L 436.607 99.25 C 435.314 98.726 434.689 97.251 435.212 95.957 Z " fill="rgb(230,239,194)"/><path d=" M 440.133 43.38 L 440.133 43.38 C 440.657 42.087 442.133 41.462 443.427 41.985 L 523.125 74.261 C 524.418 74.784 525.043 76.26 524.52 77.554 L 524.52 77.554 C 523.995 78.847 522.52 79.472 521.226 78.949 L 441.528 46.673 C 440.235 46.15 439.61 44.674 440.133 43.38 Z " fill="rgb(230,239,194)"/><path d=" M 450.401 58.452 L 450.401 58.452 C 450.924 57.158 452.401 56.533 453.694 57.057 L 505.263 77.941 C 506.557 78.465 507.182 79.94 506.658 81.234 L 506.658 81.234 C 506.134 82.528 504.659 83.153 503.364 82.629 L 451.796 61.745 C 450.502 61.221 449.877 59.746 450.401 58.452 Z " fill="rgb(230,239,194)"/><path d=" M 445.48 111.029 L 445.48 111.029 C 446.004 109.735 447.48 109.11 448.773 109.634 L 472.214 119.126 C 473.508 119.651 474.133 121.126 473.608 122.42 L 473.608 122.42 C 473.084 123.714 471.609 124.339 470.315 123.815 L 446.875 114.322 C 445.581 113.798 444.956 112.322 445.48 111.029 Z " fill="rgb(230,239,194)"/><path d=" M 449.839 80.052 L 449.839 80.052 C 450.363 78.759 451.839 78.134 453.132 78.657 L 490.637 93.846 C 491.931 94.369 492.556 95.846 492.032 97.139 L 492.032 97.139 C 491.508 98.432 490.032 99.057 488.738 98.534 L 451.233 83.345 C 449.94 82.822 449.315 81.346 449.839 80.052 Z " fill="rgb(230,239,194)"/><path d=" M 467.7 76.371 L 467.7 76.371 C 468.224 75.078 469.7 74.453 470.994 74.977 L 482.714 79.723 C 484.007 80.247 484.632 81.723 484.109 83.016 L 484.109 83.016 C 483.585 84.31 482.109 84.935 480.815 84.411 L 469.095 79.665 C 467.801 79.141 467.176 77.666 467.7 76.371 Z " fill="rgb(230,239,194)"/><path d=" M 465.027 42.547 L 465.027 42.547 C 465.551 41.254 467.027 40.629 468.32 41.153 L 505.825 56.341 C 507.119 56.865 507.744 58.34 507.22 59.634 L 507.22 59.634 C 506.696 60.928 505.22 61.553 503.927 61.029 L 466.422 45.841 C 465.128 45.317 464.504 43.841 465.027 42.547 Z " fill="rgb(230,239,194)"/><path d=" M 482.888 38.867 L 482.888 38.867 C 483.412 37.573 484.888 36.948 486.181 37.472 L 497.902 42.218 C 499.196 42.742 499.821 44.218 499.297 45.512 L 499.297 45.512 C 498.773 46.805 497.297 47.43 496.004 46.906 L 484.283 42.16 C 482.99 41.636 482.365 40.16 482.888 38.867 Z " fill="rgb(230,239,194)"/></g><g><path d=" M 679.417 321.703 L 679.417 321.703 C 679.941 320.41 681.417 319.785 682.71 320.308 L 762.409 352.584 C 763.702 353.107 764.327 354.583 763.804 355.877 L 763.804 355.877 C 763.279 357.17 761.804 357.796 760.51 357.272 L 680.812 324.997 C 679.519 324.473 678.894 322.997 679.417 321.703 Z " fill="rgb(230,239,194)"/><path d=" M 689.685 336.775 L 689.685 336.775 C 690.208 335.481 691.684 334.856 692.978 335.38 L 744.547 356.264 C 745.841 356.788 746.466 358.264 745.942 359.558 L 745.942 359.558 C 745.418 360.851 743.943 361.476 742.648 360.952 L 691.079 340.068 C 689.786 339.544 689.161 338.069 689.685 336.775 Z " fill="rgb(230,239,194)"/><path d=" M 694.606 284.199 L 694.606 284.199 C 695.129 282.905 696.605 282.28 697.899 282.804 L 777.596 315.079 C 778.891 315.603 779.516 317.078 778.991 318.372 L 778.991 318.372 C 778.467 319.666 776.992 320.291 775.698 319.767 L 696.001 287.492 C 694.707 286.968 694.082 285.492 694.606 284.199 Z " fill="rgb(230,239,194)"/><path d=" M 704.873 299.27 L 704.873 299.27 C 705.397 297.977 706.872 297.352 708.166 297.875 L 759.735 318.759 C 761.029 319.283 761.654 320.759 761.13 322.052 L 761.13 322.052 C 760.606 323.347 759.13 323.971 757.837 323.447 L 706.268 302.563 C 704.974 302.04 704.349 300.564 704.873 299.27 Z " fill="rgb(230,239,194)"/><path d=" M 699.952 351.847 L 699.952 351.847 C 700.476 350.553 701.952 349.928 703.245 350.452 L 726.686 359.944 C 727.979 360.469 728.604 361.944 728.08 363.238 L 728.08 363.238 C 727.557 364.532 726.081 365.157 724.787 364.633 L 701.347 355.14 C 700.053 354.616 699.428 353.141 699.952 351.847 Z " fill="rgb(230,239,194)"/><path d=" M 704.311 320.871 L 704.311 320.871 C 704.835 319.577 706.311 318.952 707.604 319.476 L 745.109 334.664 C 746.403 335.188 747.028 336.663 746.504 337.957 L 746.504 337.957 C 745.98 339.251 744.504 339.876 743.21 339.352 L 705.706 324.164 C 704.412 323.64 703.787 322.164 704.311 320.871 Z " fill="rgb(230,239,194)"/><path d=" M 722.172 317.19 L 722.172 317.19 C 722.696 315.896 724.172 315.271 725.465 315.795 L 737.186 320.541 C 738.479 321.065 739.104 322.541 738.581 323.835 L 738.581 323.835 C 738.057 325.128 736.581 325.753 735.288 325.23 L 723.567 320.483 C 722.273 319.959 721.648 318.484 722.172 317.19 Z " fill="rgb(230,239,194)"/><path d=" M 719.499 283.366 L 719.499 283.366 C 720.023 282.072 721.499 281.447 722.793 281.971 L 760.297 297.159 C 761.591 297.683 762.216 299.158 761.692 300.453 L 761.692 300.453 C 761.168 301.746 759.692 302.371 758.399 301.847 L 720.894 286.659 C 719.6 286.135 718.975 284.659 719.499 283.366 Z " fill="rgb(230,239,194)"/><path d=" M 737.36 279.685 L 737.36 279.685 C 737.884 278.392 739.36 277.767 740.654 278.29 L 752.374 283.037 C 753.668 283.561 754.293 285.036 753.769 286.33 L 753.769 286.33 C 753.245 287.624 751.769 288.249 750.475 287.725 L 738.755 282.978 C 737.462 282.455 736.837 280.979 737.36 279.685 Z " fill="rgb(230,239,194)"/></g><path d=" M 238.795 380.283 C 243.029 382.037 247.809 380.562 250.409 377.025 L 271.092 385.59 C 272.25 386.07 273.59 385.514 274.07 384.356 C 274.55 383.197 273.994 381.857 272.836 381.378 L 252.154 372.812 C 252.855 368.362 250.41 364.012 246.245 362.297 C 242.011 360.544 237.231 362.018 234.631 365.555 L 213.233 356.694 C 212.074 356.214 210.734 356.769 210.254 357.928 C 209.774 359.086 210.33 360.426 211.488 360.906 L 232.886 369.768 C 232.194 374.217 234.635 378.561 238.795 380.283 L 238.795 380.283 Z  M 237.718 369.302 C 238.808 366.669 241.846 365.41 244.479 366.5 C 247.111 367.591 248.37 370.628 247.28 373.261 C 246.189 375.894 243.152 377.153 240.519 376.062 C 237.886 374.972 236.628 371.934 237.718 369.302 Z  M 231.201 390.043 L 263.657 403.483 C 264.815 403.963 266.155 403.408 266.635 402.249 C 267.115 401.091 266.56 399.751 265.401 399.271 L 232.945 385.83 C 233.638 381.478 231.29 377.077 227.036 375.314 C 222.782 373.553 218.022 375.036 215.423 378.573 L 205.818 374.596 C 204.66 374.116 203.32 374.671 202.84 375.829 C 202.361 376.988 202.915 378.329 204.074 378.808 L 213.678 382.785 C 212.986 387.138 215.333 391.539 219.587 393.301 C 223.842 395.063 228.614 393.609 231.201 390.043 L 231.201 390.043 Z  M 218.531 382.328 C 219.621 379.695 222.659 378.437 225.292 379.527 C 227.924 380.617 229.183 383.655 228.093 386.288 C 227.002 388.92 223.965 390.179 221.332 389.089 C 218.699 387.999 217.441 384.96 218.531 382.328 Z  M 234.743 420.574 C 238.976 422.328 243.757 420.853 246.356 417.316 L 256.234 421.406 C 257.392 421.886 258.732 421.331 259.212 420.173 C 259.692 419.014 259.137 417.674 257.978 417.194 L 248.101 413.104 C 248.802 408.653 246.357 404.303 242.191 402.588 C 237.958 400.835 233.177 402.309 230.577 405.846 L 198.396 392.519 C 197.238 392.04 195.897 392.594 195.417 393.753 C 194.938 394.911 195.493 396.252 196.652 396.732 L 228.854 410.067 C 228.162 414.508 230.594 418.847 234.743 420.574 L 234.743 420.574 Z  M 233.694 409.58 C 234.785 406.947 237.823 405.689 240.456 406.779 C 243.088 407.869 244.347 410.908 243.256 413.54 C 242.167 416.172 239.128 417.431 236.496 416.341 C 233.854 415.272 232.595 412.234 233.694 409.58 Z  M 209.575 431.001 C 213.692 432.698 218.434 431.394 221.103 427.83 L 248.82 439.308 C 249.979 439.788 251.319 439.233 251.798 438.075 C 252.278 436.917 251.723 435.576 250.565 435.096 L 222.911 423.644 C 223.663 419.267 221.309 414.764 217.033 412.993 C 212.757 411.223 207.938 412.731 205.346 416.37 L 190.982 410.421 C 189.823 409.941 188.483 410.497 188.004 411.655 C 187.524 412.814 188.079 414.154 189.238 414.633 L 203.644 420.599 C 203.049 424.893 205.384 429.265 209.575 431.001 L 209.575 431.001 Z  M 208.528 420.007 C 209.618 417.374 212.656 416.115 215.289 417.206 C 217.921 418.296 219.18 421.334 218.09 423.966 C 216.999 426.599 213.962 427.858 211.328 426.767 C 208.696 425.677 207.429 422.661 208.528 420.007 Z " fill="rgb(230,239,194)"/><path d=" M 76.253 49.651 C 80.486 51.405 85.266 49.93 87.866 46.393 L 108.549 54.958 C 109.707 55.438 111.047 54.883 111.527 53.724 C 112.006 52.566 111.451 51.226 110.293 50.746 L 89.611 42.181 C 90.312 37.73 87.867 33.38 83.701 31.665 C 79.468 29.912 74.687 31.386 72.088 34.924 L 50.69 26.062 C 49.531 25.582 48.191 26.138 47.711 27.296 C 47.231 28.454 47.787 29.794 48.945 30.274 L 70.343 39.136 C 69.651 43.585 72.093 47.929 76.253 49.651 L 76.253 49.651 Z  M 75.175 38.67 C 76.266 36.037 79.303 34.778 81.936 35.869 C 84.569 36.959 85.827 39.997 84.737 42.629 C 83.647 45.263 80.609 46.521 77.976 45.43 C 75.343 44.34 74.084 41.302 75.175 38.67 Z  M 68.658 59.411 L 101.114 72.852 C 102.272 73.331 103.612 72.776 104.092 71.617 C 104.571 70.459 104.016 69.119 102.858 68.639 L 70.402 55.199 C 71.094 50.846 68.747 46.445 64.493 44.683 C 60.239 42.921 55.479 44.404 52.879 47.942 L 43.276 43.964 C 42.117 43.485 40.777 44.04 40.297 45.198 C 39.817 46.356 40.373 47.697 41.531 48.177 L 51.135 52.154 C 50.443 56.506 52.79 60.908 57.045 62.669 C 61.299 64.431 66.071 62.978 68.658 59.411 L 68.658 59.411 Z  M 55.988 51.696 C 57.078 49.064 60.116 47.805 62.749 48.895 C 65.381 49.986 66.64 53.023 65.55 55.656 C 64.459 58.289 61.422 59.547 58.789 58.457 C 56.156 57.367 54.898 54.329 55.988 51.696 Z  M 72.2 89.942 C 76.433 91.696 81.213 90.221 83.813 86.684 L 93.691 90.775 C 94.849 91.255 96.19 90.699 96.67 89.541 C 97.149 88.382 96.594 87.042 95.435 86.562 L 85.558 82.472 C 86.259 78.022 83.814 73.672 79.649 71.956 C 75.415 70.203 70.635 71.677 68.035 75.215 L 35.853 61.888 C 34.695 61.408 33.355 61.963 32.875 63.121 C 32.395 64.279 32.95 65.62 34.108 66.1 L 66.311 79.436 C 65.619 83.876 68.051 88.215 72.2 89.942 L 72.2 89.942 Z  M 71.152 78.948 C 72.242 76.316 75.28 75.057 77.913 76.148 C 80.545 77.238 81.804 80.276 80.714 82.908 C 79.623 85.541 76.586 86.8 73.952 85.71 C 71.312 84.64 70.053 81.602 71.152 78.948 Z  M 47.032 100.369 C 51.148 102.066 55.892 100.762 58.56 97.199 L 86.277 108.677 C 87.435 109.156 88.776 108.601 89.255 107.443 C 89.735 106.285 89.18 104.944 88.022 104.464 L 60.368 93.013 C 61.119 88.635 58.765 84.133 54.49 82.362 C 50.214 80.591 45.396 82.099 42.803 85.738 L 28.439 79.789 C 27.281 79.31 25.94 79.865 25.46 81.024 C 24.981 82.182 25.537 83.522 26.695 84.002 L 41.1 89.968 C 40.507 94.262 42.841 98.634 47.032 100.369 L 47.032 100.369 Z  M 45.985 89.375 C 47.075 86.742 50.113 85.484 52.745 86.574 C 55.378 87.664 56.637 90.702 55.546 93.335 C 54.456 95.968 51.418 97.226 48.786 96.136 C 46.153 95.045 44.886 92.029 45.985 89.375 Z " fill="rgb(230,239,194)"/><path d=" M 291.706 73.478 C 295.94 75.231 300.72 73.757 303.32 70.22 L 324.002 78.785 C 325.161 79.265 326.501 78.709 326.98 77.551 C 327.46 76.393 326.905 75.053 325.746 74.573 L 305.064 66.008 C 305.765 61.557 303.321 57.208 299.155 55.492 C 294.921 53.739 290.141 55.214 287.541 58.751 L 266.143 49.889 C 264.984 49.409 263.644 49.964 263.164 51.123 C 262.685 52.282 263.24 53.622 264.399 54.101 L 285.797 62.963 C 285.104 67.412 287.546 71.757 291.706 73.478 L 291.706 73.478 Z  M 290.629 62.497 C 291.719 59.864 294.757 58.605 297.389 59.696 C 300.022 60.786 301.281 63.824 300.19 66.456 C 299.1 69.089 296.062 70.348 293.43 69.258 C 290.797 68.167 289.538 65.13 290.629 62.497 Z  M 284.112 83.237 L 316.567 96.679 C 317.726 97.158 319.066 96.603 319.546 95.444 C 320.025 94.286 319.47 92.946 318.312 92.467 L 285.856 79.025 C 286.548 74.673 284.201 70.272 279.947 68.51 C 275.692 66.748 270.933 68.231 268.333 71.769 L 258.729 67.791 C 257.571 67.311 256.231 67.867 255.751 69.025 C 255.271 70.183 255.826 71.523 256.984 72.003 L 266.589 75.981 C 265.897 80.332 268.244 84.734 272.498 86.496 C 276.752 88.258 281.524 86.804 284.112 83.237 L 284.112 83.237 Z  M 271.441 75.523 C 272.532 72.89 275.57 71.632 278.202 72.722 C 280.835 73.812 282.093 76.85 281.003 79.483 C 279.913 82.116 276.875 83.374 274.242 82.284 C 271.61 81.193 270.351 78.156 271.441 75.523 Z  M 287.653 113.77 C 291.886 115.522 296.667 114.048 299.267 110.511 L 309.145 114.602 C 310.303 115.082 311.643 114.526 312.123 113.368 C 312.602 112.209 312.047 110.869 310.889 110.39 L 301.011 106.299 C 301.712 101.848 299.268 97.499 295.102 95.783 C 290.869 94.03 286.088 95.505 283.488 99.042 L 251.307 85.714 C 250.148 85.234 248.808 85.79 248.328 86.948 C 247.848 88.107 248.404 89.447 249.562 89.926 L 281.765 103.263 C 281.073 107.703 283.505 112.042 287.653 113.77 L 287.653 113.77 Z  M 286.605 102.775 C 287.696 100.143 290.733 98.884 293.366 99.974 C 295.999 101.065 297.257 104.102 296.167 106.736 C 295.077 109.368 292.039 110.626 289.406 109.536 C 286.765 108.467 285.506 105.429 286.605 102.775 Z  M 262.486 124.196 C 266.602 125.893 271.345 124.589 274.014 121.025 L 301.731 132.504 C 302.889 132.984 304.229 132.428 304.709 131.27 C 305.189 130.111 304.634 128.771 303.475 128.291 L 275.822 116.839 C 276.573 112.463 274.219 107.959 269.944 106.189 C 265.668 104.418 260.849 105.926 258.256 109.565 L 243.892 103.617 C 242.734 103.137 241.394 103.692 240.914 104.85 C 240.435 106.008 240.99 107.349 242.148 107.829 L 256.554 113.795 C 255.96 118.089 258.295 122.461 262.486 124.196 L 262.486 124.196 Z  M 261.438 113.202 C 262.528 110.569 265.567 109.311 268.199 110.401 C 270.831 111.491 272.09 114.529 271 117.162 C 269.91 119.794 266.872 121.053 264.239 119.963 C 261.607 118.873 260.339 115.855 261.438 113.202 Z " fill="rgb(230,239,194)"/><path d=" M 589.203 173.662 C 593.436 175.416 598.216 173.941 600.816 170.404 L 621.498 178.969 C 622.657 179.449 623.997 178.893 624.477 177.735 C 624.957 176.577 624.401 175.237 623.243 174.757 L 602.561 166.192 C 603.262 161.742 600.817 157.392 596.652 155.676 C 592.418 153.923 587.638 155.398 585.038 158.935 L 563.639 150.073 C 562.481 149.593 561.141 150.149 560.661 151.307 C 560.181 152.466 560.736 153.805 561.895 154.285 L 583.294 163.147 C 582.601 167.596 585.042 171.941 589.203 173.662 L 589.203 173.662 Z  M 588.125 162.681 C 589.215 160.048 592.253 158.789 594.886 159.88 C 597.518 160.97 598.777 164.008 597.687 166.64 C 596.597 169.273 593.559 170.532 590.926 169.442 C 588.293 168.351 587.035 165.313 588.125 162.681 Z  M 581.608 183.422 L 614.063 196.863 C 615.222 197.342 616.562 196.787 617.042 195.628 C 617.522 194.47 616.966 193.13 615.808 192.65 L 583.353 179.21 C 584.045 174.858 581.698 170.456 577.443 168.694 C 573.188 166.932 568.43 168.415 565.83 171.953 L 556.225 167.975 C 555.067 167.496 553.727 168.051 553.247 169.209 C 552.768 170.367 553.323 171.708 554.481 172.188 L 564.085 176.165 C 563.393 180.517 565.74 184.919 569.994 186.68 C 574.248 188.442 579.02 186.988 581.608 183.422 L 581.608 183.422 Z  M 568.938 175.707 C 570.028 173.075 573.066 171.816 575.699 172.906 C 578.331 173.997 579.59 177.034 578.5 179.667 C 577.41 182.3 574.371 183.558 571.739 182.468 C 569.107 181.378 567.848 178.34 568.938 175.707 Z  M 585.15 213.953 C 589.383 215.707 594.163 214.232 596.763 210.695 L 606.641 214.786 C 607.799 215.266 609.139 214.71 609.619 213.552 C 610.099 212.393 609.544 211.053 608.386 210.574 L 598.507 206.483 C 599.209 202.033 596.764 197.683 592.598 195.967 C 588.365 194.214 583.584 195.689 580.984 199.226 L 548.803 185.899 C 547.644 185.419 546.304 185.974 545.824 187.132 C 545.345 188.29 545.9 189.631 547.059 190.111 L 579.261 203.447 C 578.569 207.887 581.001 212.226 585.15 213.953 L 585.15 213.953 Z  M 584.102 202.959 C 585.192 200.327 588.23 199.069 590.862 200.158 C 593.496 201.249 594.754 204.287 593.663 206.92 C 592.573 209.552 589.535 210.81 586.903 209.721 C 584.261 208.651 583.003 205.613 584.102 202.959 Z  M 559.983 224.38 C 564.099 226.077 568.841 224.773 571.511 221.21 L 599.227 232.688 C 600.386 233.167 601.726 232.613 602.206 231.454 C 602.685 230.296 602.13 228.955 600.971 228.475 L 573.318 217.023 C 574.07 212.647 571.716 208.144 567.44 206.373 C 563.165 204.602 558.345 206.11 555.753 209.749 L 541.389 203.801 C 540.231 203.321 538.891 203.876 538.411 205.034 C 537.931 206.193 538.486 207.533 539.644 208.013 L 554.051 213.979 C 553.457 218.273 555.791 222.645 559.983 224.38 L 559.983 224.38 Z  M 558.934 213.386 C 560.025 210.753 563.063 209.495 565.696 210.585 C 568.328 211.675 569.587 214.713 568.497 217.346 C 567.406 219.978 564.368 221.237 561.736 220.147 C 559.103 219.056 557.835 216.04 558.934 213.386 Z " fill="rgb(230,239,194)"/><path d=" M 610.947 461.367 C 615.18 463.12 619.961 461.645 622.56 458.108 L 643.243 466.673 C 644.402 467.153 645.742 466.598 646.221 465.439 C 646.701 464.281 646.146 462.941 644.987 462.461 L 624.305 453.895 C 625.006 449.445 622.562 445.095 618.396 443.38 C 614.162 441.627 609.382 443.102 606.782 446.639 L 585.384 437.777 C 584.225 437.298 582.885 437.852 582.405 439.011 C 581.926 440.169 582.481 441.51 583.64 441.99 L 605.038 450.851 C 604.345 455.3 606.787 459.645 610.947 461.367 L 610.947 461.367 Z  M 609.87 450.384 C 610.96 447.752 613.998 446.494 616.63 447.584 C 619.263 448.674 620.522 451.712 619.431 454.345 C 618.341 456.977 615.303 458.236 612.67 457.146 C 610.037 456.055 608.779 453.018 609.87 450.384 Z  M 603.352 471.126 L 635.808 484.566 C 636.967 485.046 638.307 484.491 638.786 483.333 C 639.266 482.175 638.711 480.834 637.552 480.354 L 605.097 466.913 C 605.789 462.561 603.442 458.159 599.188 456.398 C 594.933 454.636 590.174 456.119 587.574 459.656 L 577.97 455.679 C 576.811 455.199 575.471 455.755 574.992 456.913 C 574.512 458.072 575.067 459.412 576.225 459.891 L 585.829 463.869 C 585.137 468.221 587.484 472.622 591.738 474.385 C 595.993 476.146 600.765 474.693 603.352 471.126 L 603.352 471.126 Z  M 590.682 463.411 C 591.772 460.778 594.81 459.52 597.443 460.61 C 600.076 461.7 601.334 464.739 600.244 467.371 C 599.154 470.003 596.116 471.262 593.483 470.172 C 590.851 469.082 589.592 466.044 590.682 463.411 Z  M 606.894 501.658 C 611.127 503.411 615.908 501.936 618.508 498.399 L 628.385 502.49 C 629.544 502.969 630.884 502.414 631.364 501.256 C 631.843 500.098 631.288 498.757 630.13 498.277 L 620.252 494.187 C 620.953 489.736 618.508 485.386 614.342 483.672 C 610.11 481.918 605.329 483.393 602.729 486.93 L 570.548 473.602 C 569.389 473.122 568.048 473.678 567.569 474.837 C 567.089 475.995 567.645 477.335 568.803 477.815 L 601.005 491.151 C 600.313 495.592 602.745 499.93 606.894 501.658 L 606.894 501.658 Z  M 605.846 490.664 C 606.936 488.031 609.974 486.772 612.607 487.862 C 615.24 488.953 616.498 491.991 615.408 494.623 C 614.318 497.256 611.279 498.515 608.647 497.424 C 606.006 496.355 604.747 493.317 605.846 490.664 Z  M 581.727 512.084 C 585.843 513.781 590.585 512.477 593.255 508.913 L 620.972 520.392 C 622.13 520.872 623.47 520.316 623.95 519.158 C 624.429 517.999 623.874 516.659 622.716 516.18 L 595.062 504.727 C 595.814 500.351 593.46 495.847 589.184 494.077 C 584.909 492.306 580.09 493.814 577.497 497.453 L 563.133 491.505 C 561.975 491.025 560.635 491.58 560.155 492.738 C 559.675 493.897 560.23 495.237 561.389 495.717 L 575.795 501.682 C 575.201 505.976 577.536 510.348 581.727 512.084 L 581.727 512.084 Z  M 580.679 501.09 C 581.769 498.458 584.807 497.199 587.44 498.289 C 590.072 499.379 591.331 502.417 590.241 505.05 C 589.15 507.683 586.113 508.941 583.48 507.851 C 580.847 506.761 579.58 503.744 580.679 501.09 Z " fill="rgb(230,239,194)"/><path d=" M 378.118 243.909 C 382.351 245.662 387.131 244.187 389.731 240.65 L 410.414 249.216 C 411.572 249.695 412.912 249.14 413.391 247.982 C 413.871 246.823 413.316 245.483 412.158 245.004 L 391.475 236.438 C 392.177 231.988 389.732 227.638 385.566 225.923 C 381.333 224.17 376.552 225.644 373.952 229.181 L 352.554 220.319 C 351.396 219.84 350.056 220.395 349.576 221.554 C 349.096 222.712 349.652 224.052 350.81 224.532 L 372.208 233.394 C 371.516 237.842 373.958 242.187 378.118 243.909 L 378.118 243.909 Z  M 377.04 232.927 C 378.13 230.294 381.168 229.036 383.801 230.126 C 386.434 231.216 387.692 234.255 386.601 236.887 C 385.512 239.52 382.473 240.779 379.841 239.688 C 377.208 238.598 375.949 235.56 377.04 232.927 Z  M 370.523 253.668 L 402.979 267.109 C 404.137 267.589 405.477 267.033 405.956 265.875 C 406.436 264.717 405.881 263.377 404.723 262.897 L 372.267 249.456 C 372.959 245.104 370.612 240.702 366.358 238.94 C 362.104 237.178 357.344 238.662 354.744 242.199 L 345.141 238.222 C 343.982 237.742 342.642 238.297 342.162 239.456 C 341.682 240.614 342.238 241.954 343.396 242.434 L 353 246.411 C 352.308 250.763 354.655 255.165 358.909 256.927 C 363.164 258.689 367.936 257.235 370.523 253.668 L 370.523 253.668 Z  M 357.853 245.954 C 358.943 243.321 361.981 242.062 364.613 243.153 C 367.246 244.243 368.505 247.281 367.415 249.913 C 366.324 252.546 363.287 253.805 360.654 252.714 C 358.021 251.624 356.762 248.586 357.853 245.954 Z  M 374.064 284.2 C 378.298 285.953 383.078 284.478 385.678 280.941 L 395.556 285.032 C 396.714 285.512 398.055 284.956 398.534 283.798 C 399.014 282.64 398.458 281.3 397.3 280.82 L 387.423 276.729 C 388.124 272.279 385.679 267.929 381.513 266.214 C 377.28 264.461 372.5 265.935 369.9 269.473 L 337.718 256.145 C 336.559 255.665 335.219 256.22 334.74 257.379 C 334.26 258.537 334.815 259.877 335.973 260.357 L 368.176 273.693 C 367.484 278.134 369.916 282.472 374.064 284.2 L 374.064 284.2 Z  M 373.017 273.206 C 374.107 270.573 377.145 269.315 379.778 270.405 C 382.41 271.495 383.669 274.533 382.579 277.166 C 381.488 279.798 378.451 281.057 375.817 279.967 C 373.176 278.897 371.918 275.86 373.017 273.206 Z  M 348.897 294.626 C 353.013 296.324 357.756 295.019 360.425 291.456 L 388.142 302.934 C 389.3 303.414 390.64 302.859 391.12 301.7 C 391.6 300.542 391.045 299.202 389.886 298.722 L 362.233 287.27 C 362.984 282.893 360.63 278.39 356.355 276.619 C 352.079 274.849 347.261 276.357 344.668 279.995 L 330.304 274.047 C 329.146 273.567 327.805 274.122 327.325 275.281 C 326.846 276.439 327.401 277.78 328.56 278.259 L 342.965 284.225 C 342.372 288.519 344.706 292.891 348.897 294.626 L 348.897 294.626 Z  M 347.85 283.632 C 348.94 281 351.978 279.741 354.61 280.831 C 357.243 281.922 358.502 284.96 357.411 287.592 C 356.321 290.225 353.283 291.483 350.651 290.394 C 348.018 289.303 346.751 286.286 347.85 283.632 Z " fill="rgb(230,239,194)"/><path d=" M 851.103 731.619 L 851.103 731.619 C 851.626 730.324 853.101 729.698 854.395 730.221 L 934.119 762.431 C 935.413 762.954 936.039 764.43 935.516 765.724 L 935.516 765.724 C 934.993 767.018 933.518 767.644 932.224 767.121 L 852.501 734.91 C 851.206 734.388 850.58 732.913 851.103 731.619 Z " fill="rgb(230,239,194)"/><path d=" M 861.382 746.682 L 861.382 746.682 C 861.905 745.388 863.38 744.762 864.674 745.285 L 916.26 766.126 C 917.555 766.649 918.181 768.125 917.658 769.419 L 917.658 769.419 C 917.135 770.713 915.66 771.339 914.365 770.816 L 862.78 749.974 C 861.486 749.451 860.86 747.976 861.382 746.682 Z " fill="rgb(230,239,194)"/><path d=" M 866.26 694.101 L 866.26 694.101 C 866.783 692.807 868.259 692.181 869.553 692.704 L 949.277 724.915 C 950.571 725.437 951.197 726.912 950.674 728.206 L 950.674 728.206 C 950.151 729.501 948.676 730.127 947.382 729.604 L 867.658 697.394 C 866.364 696.871 865.738 695.395 866.26 694.101 Z " fill="rgb(230,239,194)"/><path d=" M 876.54 709.165 L 876.54 709.165 C 877.063 707.871 878.538 707.244 879.832 707.767 L 931.418 728.61 C 932.713 729.132 933.339 730.607 932.816 731.901 L 932.816 731.901 C 932.293 733.196 930.818 733.822 929.523 733.299 L 877.937 712.457 C 876.643 711.934 876.017 710.459 876.54 709.165 Z " fill="rgb(230,239,194)"/><path d=" M 871.662 761.745 L 871.662 761.745 C 872.185 760.451 873.66 759.825 874.954 760.348 L 898.402 769.821 C 899.696 770.344 900.322 771.82 899.799 773.114 L 899.799 773.114 C 899.276 774.408 897.802 775.034 896.507 774.511 L 873.059 765.038 C 871.765 764.515 871.139 763.039 871.662 761.745 Z " fill="rgb(230,239,194)"/><path d=" M 875.996 730.765 L 875.996 730.765 C 876.518 729.471 877.994 728.845 879.288 729.368 L 916.805 744.526 C 918.099 745.049 918.725 746.524 918.202 747.818 L 918.202 747.818 C 917.679 749.112 916.205 749.739 914.91 749.216 L 877.393 734.058 C 876.099 733.535 875.473 732.059 875.996 730.765 Z " fill="rgb(230,239,194)"/><path d=" M 893.854 727.07 L 893.854 727.07 C 894.377 725.776 895.852 725.15 897.146 725.673 L 908.87 730.41 C 910.165 730.933 910.791 732.408 910.268 733.702 L 910.268 733.702 C 909.745 734.996 908.27 735.622 906.975 735.1 L 895.252 730.363 C 893.958 729.84 893.331 728.364 893.854 727.07 Z " fill="rgb(230,239,194)"/><path d=" M 891.153 693.249 L 891.153 693.249 C 891.676 691.954 893.152 691.328 894.446 691.851 L 931.963 707.009 C 933.257 707.532 933.883 709.007 933.36 710.301 L 933.36 710.301 C 932.837 711.595 931.363 712.221 930.068 711.698 L 892.551 696.54 C 891.257 696.018 890.631 694.543 891.153 693.249 Z " fill="rgb(230,239,194)"/><path d=" M 909.012 689.554 L 909.012 689.554 C 909.535 688.259 911.01 687.633 912.304 688.156 L 924.028 692.893 C 925.323 693.416 925.949 694.891 925.426 696.185 L 925.426 696.185 C 924.903 697.479 923.428 698.105 922.133 697.582 L 910.41 692.845 C 909.115 692.323 908.489 690.848 909.012 689.554 Z " fill="rgb(230,239,194)"/><path d=" M 1007.173 644.857 L 1007.173 644.857 C 1007.697 643.563 1009.172 642.938 1010.466 643.462 L 1090.164 675.736 C 1091.457 676.261 1092.082 677.736 1091.559 679.03 L 1091.559 679.03 C 1091.035 680.324 1089.559 680.949 1088.265 680.425 L 1008.567 648.15 C 1007.274 647.626 1006.649 646.15 1007.173 644.857 Z " fill="rgb(230,239,194)"/><path d=" M 1017.44 659.928 L 1017.44 659.928 C 1017.964 658.635 1019.439 658.01 1020.733 658.533 L 1072.303 679.417 C 1073.596 679.941 1074.221 681.417 1073.697 682.71 L 1073.697 682.71 C 1073.173 684.004 1071.698 684.629 1070.404 684.105 L 1018.835 663.221 C 1017.541 662.698 1016.916 661.222 1017.44 659.928 Z " fill="rgb(230,239,194)"/><path d=" M 1022.361 607.352 L 1022.361 607.352 C 1022.885 606.058 1024.361 605.433 1025.654 605.957 L 1105.352 638.232 C 1106.646 638.756 1107.271 640.232 1106.747 641.525 L 1106.747 641.525 C 1106.223 642.819 1104.747 643.444 1103.454 642.92 L 1023.756 610.645 C 1022.462 610.121 1021.837 608.646 1022.361 607.352 Z " fill="rgb(230,239,194)"/><path d=" M 1032.628 622.424 L 1032.628 622.424 C 1033.152 621.13 1034.628 620.505 1035.921 621.029 L 1087.491 641.913 C 1088.785 642.436 1089.41 643.912 1088.885 645.206 L 1088.885 645.206 C 1088.361 646.499 1086.886 647.124 1085.592 646.601 L 1034.023 625.717 C 1032.729 625.193 1032.104 623.717 1032.628 622.424 Z " fill="rgb(230,239,194)"/><path d=" M 1027.707 675 L 1027.707 675 C 1028.231 673.706 1029.707 673.081 1031 673.605 L 1054.441 683.098 C 1055.735 683.622 1056.36 685.098 1055.836 686.391 L 1055.836 686.391 C 1055.312 687.685 1053.837 688.31 1052.542 687.786 L 1029.102 678.294 C 1027.808 677.769 1027.183 676.294 1027.707 675 Z " fill="rgb(230,239,194)"/><path d=" M 1032.066 644.024 L 1032.066 644.024 C 1032.59 642.73 1034.066 642.105 1035.359 642.629 L 1072.865 657.817 C 1074.158 658.341 1074.783 659.817 1074.259 661.11 L 1074.259 661.11 C 1073.735 662.404 1072.26 663.029 1070.966 662.505 L 1033.461 647.317 C 1032.167 646.793 1031.542 645.317 1032.066 644.024 Z " fill="rgb(230,239,194)"/><path d=" M 1049.928 640.343 L 1049.928 640.343 C 1050.452 639.049 1051.927 638.425 1053.221 638.948 L 1064.941 643.695 C 1066.235 644.219 1066.86 645.694 1066.336 646.988 L 1066.336 646.988 C 1065.812 648.282 1064.336 648.907 1063.043 648.383 L 1051.323 643.636 C 1050.028 643.113 1049.403 641.637 1049.928 640.343 Z " fill="rgb(230,239,194)"/><path d=" M 1047.254 606.519 L 1047.254 606.519 C 1047.778 605.225 1049.254 604.6 1050.548 605.124 L 1088.052 620.312 C 1089.347 620.836 1089.971 622.312 1089.447 623.605 L 1089.447 623.605 C 1088.923 624.899 1087.448 625.524 1086.154 625 L 1048.649 609.812 C 1047.356 609.288 1046.731 607.813 1047.254 606.519 Z " fill="rgb(230,239,194)"/><path d=" M 1065.115 602.839 L 1065.115 602.839 C 1065.64 601.544 1067.115 600.919 1068.409 601.444 L 1080.129 606.19 C 1081.423 606.714 1082.048 608.189 1081.524 609.483 L 1081.524 609.483 C 1081.001 610.777 1079.524 611.402 1078.231 610.878 L 1066.51 606.132 C 1065.217 605.608 1064.592 604.132 1065.115 602.839 Z " fill="rgb(230,239,194)"/><path d=" M 679.417 653.562 L 679.417 653.562 C 679.941 652.268 681.417 651.643 682.71 652.167 L 762.409 684.441 C 763.702 684.966 764.327 686.441 763.803 687.735 L 763.803 687.735 C 763.279 689.029 761.804 689.654 760.51 689.13 L 680.812 656.855 C 679.519 656.331 678.894 654.855 679.417 653.562 Z " fill="rgb(230,239,194)"/><path d=" M 689.685 668.633 L 689.685 668.633 C 690.208 667.34 691.684 666.715 692.978 667.239 L 744.547 688.122 C 745.841 688.646 746.466 690.122 745.942 691.416 L 745.942 691.416 C 745.418 692.709 743.942 693.334 742.648 692.81 L 691.079 671.927 C 689.786 671.403 689.161 669.927 689.685 668.633 Z " fill="rgb(230,239,194)"/><path d=" M 694.606 616.057 L 694.606 616.057 C 695.129 614.763 696.605 614.138 697.899 614.662 L 777.596 646.937 C 778.891 647.461 779.516 648.937 778.991 650.23 L 778.991 650.23 C 778.467 651.524 776.992 652.149 775.698 651.625 L 696.001 619.35 C 694.707 618.826 694.082 617.351 694.606 616.057 Z " fill="rgb(230,239,194)"/><path d=" M 704.873 631.129 L 704.873 631.129 C 705.397 629.835 706.872 629.21 708.166 629.734 L 759.735 650.618 C 761.029 651.141 761.654 652.617 761.13 653.911 L 761.13 653.911 C 760.606 655.204 759.13 655.829 757.837 655.306 L 706.268 634.422 C 704.974 633.898 704.349 632.422 704.873 631.129 Z " fill="rgb(230,239,194)"/><path d=" M 699.952 683.705 L 699.952 683.705 C 700.476 682.411 701.952 681.786 703.245 682.31 L 726.686 691.803 C 727.979 692.327 728.604 693.803 728.08 695.096 L 728.08 695.096 C 727.557 696.39 726.081 697.015 724.787 696.491 L 701.347 686.998 C 700.053 686.474 699.428 684.999 699.952 683.705 Z " fill="rgb(230,239,194)"/><path d=" M 704.311 652.729 L 704.311 652.729 C 704.835 651.435 706.311 650.81 707.604 651.334 L 745.109 666.522 C 746.403 667.046 747.028 668.522 746.504 669.815 L 746.504 669.815 C 745.98 671.109 744.504 671.734 743.21 671.21 L 705.706 656.022 C 704.412 655.498 703.787 654.023 704.311 652.729 Z " fill="rgb(230,239,194)"/><path d=" M 722.172 649.048 L 722.172 649.048 C 722.696 647.754 724.172 647.129 725.465 647.654 L 737.186 652.4 C 738.479 652.924 739.104 654.399 738.581 655.693 L 738.581 655.693 C 738.057 656.987 736.581 657.612 735.288 657.088 L 723.567 652.342 C 722.273 651.817 721.648 650.342 722.172 649.048 Z " fill="rgb(230,239,194)"/><path d=" M 719.499 615.224 L 719.499 615.224 C 720.023 613.93 721.499 613.305 722.793 613.829 L 760.297 629.017 C 761.591 629.541 762.216 631.017 761.692 632.311 L 761.692 632.311 C 761.168 633.604 759.692 634.229 758.399 633.705 L 720.894 618.517 C 719.6 617.993 718.975 616.518 719.499 615.224 Z " fill="rgb(230,239,194)"/><path d=" M 737.36 611.543 L 737.36 611.543 C 737.884 610.249 739.36 609.624 740.654 610.148 L 752.374 614.895 C 753.668 615.419 754.293 616.894 753.769 618.188 L 753.769 618.188 C 753.245 619.482 751.769 620.107 750.475 619.583 L 738.755 614.837 C 737.462 614.312 736.837 612.837 737.36 611.543 Z " fill="rgb(230,239,194)"/><path d=" M 679.417 653.562 L 679.417 653.562 C 679.941 652.268 681.417 651.643 682.71 652.167 L 762.409 684.441 C 763.702 684.966 764.327 686.441 763.803 687.735 L 763.803 687.735 C 763.279 689.029 761.804 689.654 760.51 689.13 L 680.812 656.855 C 679.519 656.331 678.894 654.855 679.417 653.562 Z " fill="rgb(230,239,194)"/><path d=" M 689.685 668.633 L 689.685 668.633 C 690.208 667.34 691.684 666.715 692.978 667.239 L 744.547 688.122 C 745.841 688.646 746.466 690.122 745.942 691.416 L 745.942 691.416 C 745.418 692.709 743.942 693.334 742.648 692.81 L 691.079 671.927 C 689.786 671.403 689.161 669.927 689.685 668.633 Z " fill="rgb(230,239,194)"/><path d=" M 694.606 616.057 L 694.606 616.057 C 695.129 614.763 696.605 614.138 697.899 614.662 L 777.596 646.937 C 778.891 647.461 779.516 648.937 778.991 650.23 L 778.991 650.23 C 778.467 651.524 776.992 652.149 775.698 651.625 L 696.001 619.35 C 694.707 618.826 694.082 617.351 694.606 616.057 Z " fill="rgb(230,239,194)"/><path d=" M 704.873 631.129 L 704.873 631.129 C 705.397 629.835 706.872 629.21 708.166 629.734 L 759.735 650.618 C 761.029 651.141 761.654 652.617 761.13 653.911 L 761.13 653.911 C 760.606 655.204 759.13 655.829 757.837 655.306 L 706.268 634.422 C 704.974 633.898 704.349 632.422 704.873 631.129 Z " fill="rgb(230,239,194)"/><path d=" M 699.952 683.705 L 699.952 683.705 C 700.476 682.411 701.952 681.786 703.245 682.31 L 726.686 691.803 C 727.979 692.327 728.604 693.803 728.08 695.096 L 728.08 695.096 C 727.557 696.39 726.081 697.015 724.787 696.491 L 701.347 686.998 C 700.053 686.474 699.428 684.999 699.952 683.705 Z " fill="rgb(230,239,194)"/><path d=" M 704.311 652.729 L 704.311 652.729 C 704.835 651.435 706.311 650.81 707.604 651.334 L 745.109 666.522 C 746.403 667.046 747.028 668.522 746.504 669.815 L 746.504 669.815 C 745.98 671.109 744.504 671.734 743.21 671.21 L 705.706 656.022 C 704.412 655.498 703.787 654.023 704.311 652.729 Z " fill="rgb(230,239,194)"/><path d=" M 722.172 649.048 L 722.172 649.048 C 722.696 647.754 724.172 647.129 725.465 647.654 L 737.186 652.4 C 738.479 652.924 739.104 654.399 738.581 655.693 L 738.581 655.693 C 738.057 656.987 736.581 657.612 735.288 657.088 L 723.567 652.342 C 722.273 651.817 721.648 650.342 722.172 649.048 Z " fill="rgb(230,239,194)"/><path d=" M 719.499 615.224 L 719.499 615.224 C 720.023 613.93 721.499 613.305 722.793 613.829 L 760.297 629.017 C 761.591 629.541 762.216 631.017 761.692 632.311 L 761.692 632.311 C 761.168 633.604 759.692 634.229 758.399 633.705 L 720.894 618.517 C 719.6 617.993 718.975 616.518 719.499 615.224 Z " fill="rgb(230,239,194)"/><path d=" M 737.36 611.543 L 737.36 611.543 C 737.884 610.249 739.36 609.624 740.654 610.148 L 752.374 614.895 C 753.668 615.419 754.293 616.894 753.769 618.188 L 753.769 618.188 C 753.245 619.482 751.769 620.107 750.475 619.583 L 738.755 614.837 C 737.462 614.312 736.837 612.837 737.36 611.543 Z " fill="rgb(230,239,194)"/><path d=" M 1372.89 764.764 L 1372.89 764.764 C 1373.414 763.471 1374.89 762.845 1376.183 763.369 L 1455.881 795.644 C 1457.175 796.168 1457.8 797.643 1457.276 798.938 L 1457.276 798.938 C 1456.752 800.231 1455.276 800.856 1453.983 800.332 L 1374.285 768.057 C 1372.991 767.534 1372.366 766.057 1372.89 764.764 Z " fill="rgb(230,239,194)"/><path d=" M 1383.157 779.835 L 1383.157 779.835 C 1383.681 778.542 1385.157 777.917 1386.45 778.441 L 1438.02 799.325 C 1439.314 799.849 1439.939 801.324 1439.415 802.618 L 1439.415 802.618 C 1438.89 803.912 1437.415 804.537 1436.121 804.013 L 1384.552 783.129 C 1383.259 782.605 1382.633 781.13 1383.157 779.835 Z " fill="rgb(230,239,194)"/><path d=" M 1388.078 727.259 L 1388.078 727.259 C 1388.602 725.965 1390.078 725.341 1391.371 725.865 L 1471.07 758.139 C 1472.363 758.663 1472.988 760.139 1472.464 761.432 L 1472.464 761.432 C 1471.94 762.727 1470.465 763.352 1469.171 762.827 L 1389.473 730.553 C 1388.18 730.029 1387.555 728.553 1388.078 727.259 Z " fill="rgb(230,239,194)"/><path d=" M 1398.346 742.331 L 1398.346 742.331 C 1398.869 741.037 1400.345 740.412 1401.639 740.936 L 1453.208 761.82 C 1454.502 762.344 1455.127 763.82 1454.602 765.113 L 1454.602 765.113 C 1454.079 766.407 1452.603 767.032 1451.309 766.508 L 1399.74 745.624 C 1398.447 745.1 1397.822 743.625 1398.346 742.331 Z " fill="rgb(230,239,194)"/><path d=" M 1393.424 794.908 L 1393.424 794.908 C 1393.948 793.614 1395.424 792.989 1396.718 793.513 L 1420.158 803.005 C 1421.452 803.529 1422.077 805.005 1421.553 806.298 L 1421.553 806.298 C 1421.029 807.592 1419.554 808.217 1418.26 807.693 L 1394.819 798.201 C 1393.526 797.677 1392.901 796.201 1393.424 794.908 Z " fill="rgb(230,239,194)"/><path d=" M 1397.783 763.931 L 1397.783 763.931 C 1398.307 762.638 1399.783 762.013 1401.077 762.536 L 1438.582 777.725 C 1439.876 778.249 1440.501 779.724 1439.976 781.018 L 1439.976 781.018 C 1439.452 782.312 1437.977 782.937 1436.683 782.413 L 1399.178 767.224 C 1397.885 766.701 1397.26 765.225 1397.783 763.931 Z " fill="rgb(230,239,194)"/><path d=" M 1415.645 760.25 L 1415.645 760.25 C 1416.169 758.957 1417.644 758.332 1418.938 758.856 L 1430.658 763.602 C 1431.952 764.126 1432.577 765.602 1432.053 766.895 L 1432.053 766.895 C 1431.53 768.189 1430.053 768.814 1428.76 768.29 L 1417.04 763.544 C 1415.746 763.02 1415.121 761.544 1415.645 760.25 Z " fill="rgb(230,239,194)"/><path d=" M 1412.972 726.427 L 1412.972 726.427 C 1413.496 725.132 1414.972 724.507 1416.265 725.032 L 1453.77 740.22 C 1455.064 740.744 1455.689 742.219 1455.165 743.513 L 1455.165 743.513 C 1454.641 744.807 1453.165 745.432 1451.871 744.908 L 1414.367 729.72 C 1413.073 729.196 1412.448 727.72 1412.972 726.427 Z " fill="rgb(230,239,194)"/><path d=" M 1430.833 722.746 L 1430.833 722.746 C 1431.357 721.452 1432.833 720.827 1434.126 721.351 L 1445.847 726.097 C 1447.14 726.621 1447.765 728.097 1447.242 729.391 L 1447.242 729.391 C 1446.718 730.684 1445.242 731.309 1443.948 730.786 L 1432.228 726.039 C 1430.934 725.515 1430.309 724.039 1430.833 722.746 Z " fill="rgb(230,239,194)"/><path d=" M 424.945 644.885 L 424.945 644.885 C 425.47 643.591 426.945 642.966 428.239 643.49 L 507.936 675.765 C 509.23 676.289 509.855 677.765 509.331 679.059 L 509.331 679.059 C 508.808 680.352 507.331 680.977 506.038 680.453 L 426.34 648.178 C 425.046 647.654 424.421 646.179 424.945 644.885 Z " fill="rgb(230,239,194)"/><path d=" M 435.212 659.957 L 435.212 659.957 C 435.737 658.663 437.212 658.038 438.506 658.562 L 490.075 679.446 C 491.369 679.97 491.994 681.445 491.47 682.739 L 491.47 682.739 C 490.946 684.033 489.47 684.658 488.177 684.134 L 436.607 663.25 C 435.314 662.726 434.689 661.251 435.212 659.957 Z " fill="rgb(230,239,194)"/><path d=" M 440.133 607.38 L 440.133 607.38 C 440.657 606.087 442.133 605.462 443.427 605.985 L 523.125 638.261 C 524.418 638.784 525.043 640.26 524.52 641.554 L 524.52 641.554 C 523.995 642.847 522.52 643.472 521.226 642.949 L 441.528 610.673 C 440.235 610.15 439.61 608.674 440.133 607.38 Z " fill="rgb(230,239,194)"/><path d=" M 450.401 622.452 L 450.401 622.452 C 450.924 621.158 452.401 620.533 453.694 621.057 L 505.263 641.941 C 506.557 642.465 507.182 643.94 506.658 645.234 L 506.658 645.234 C 506.134 646.528 504.659 647.153 503.364 646.629 L 451.796 625.745 C 450.502 625.221 449.877 623.746 450.401 622.452 Z " fill="rgb(230,239,194)"/><path d=" M 445.48 675.029 L 445.48 675.029 C 446.004 673.735 447.48 673.11 448.773 673.634 L 472.214 683.126 C 473.508 683.651 474.133 685.126 473.608 686.42 L 473.608 686.42 C 473.084 687.714 471.609 688.339 470.315 687.815 L 446.875 678.322 C 445.581 677.798 444.956 676.322 445.48 675.029 Z " fill="rgb(230,239,194)"/><path d=" M 449.839 644.052 L 449.839 644.052 C 450.363 642.759 451.839 642.134 453.132 642.657 L 490.637 657.846 C 491.931 658.369 492.556 659.846 492.032 661.139 L 492.032 661.139 C 491.508 662.432 490.032 663.057 488.738 662.534 L 451.233 647.345 C 449.94 646.822 449.315 645.346 449.839 644.052 Z " fill="rgb(230,239,194)"/><path d=" M 467.7 640.371 L 467.7 640.371 C 468.224 639.078 469.7 638.453 470.994 638.977 L 482.714 643.723 C 484.007 644.247 484.632 645.723 484.109 647.016 L 484.109 647.016 C 483.585 648.31 482.109 648.935 480.815 648.411 L 469.095 643.665 C 467.801 643.141 467.176 641.666 467.7 640.371 Z " fill="rgb(230,239,194)"/><path d=" M 465.027 606.547 L 465.027 606.547 C 465.551 605.254 467.027 604.629 468.32 605.153 L 505.825 620.341 C 507.119 620.865 507.744 622.34 507.22 623.634 L 507.22 623.634 C 506.696 624.928 505.22 625.553 503.927 625.029 L 466.422 609.841 C 465.128 609.317 464.504 607.841 465.027 606.547 Z " fill="rgb(230,239,194)"/><path d=" M 482.888 602.867 L 482.888 602.867 C 483.412 601.573 484.888 600.948 486.181 601.472 L 497.902 606.218 C 499.196 606.742 499.821 608.218 499.297 609.512 L 499.297 609.512 C 498.773 610.805 497.297 611.43 496.004 610.906 L 484.283 606.16 C 482.99 605.636 482.365 604.16 482.888 602.867 Z " fill="rgb(230,239,194)"/><path d=" M 76.253 684.057 C 80.486 685.81 85.266 684.336 87.866 680.798 L 108.549 689.363 C 109.707 689.843 111.047 689.288 111.527 688.13 C 112.006 686.971 111.451 685.631 110.293 685.151 L 89.611 676.586 C 90.312 672.135 87.867 667.785 83.701 666.071 C 79.468 664.317 74.687 665.792 72.088 669.329 L 50.69 660.467 C 49.531 659.988 48.191 660.543 47.711 661.701 C 47.231 662.859 47.787 664.2 48.945 664.68 L 70.343 673.541 C 69.651 677.99 72.093 682.335 76.253 684.057 L 76.253 684.057 Z  M 75.175 673.075 C 76.266 670.443 79.303 669.184 81.936 670.274 C 84.569 671.364 85.827 674.402 84.737 677.035 C 83.647 679.668 80.609 680.926 77.976 679.836 C 75.343 678.746 74.084 675.707 75.175 673.075 Z  M 68.658 693.816 L 101.114 707.257 C 102.272 707.736 103.612 707.182 104.092 706.023 C 104.571 704.865 104.016 703.524 102.858 703.044 L 70.402 689.604 C 71.094 685.251 68.747 680.85 64.493 679.088 C 60.239 677.326 55.479 678.809 52.879 682.347 L 43.276 678.369 C 42.117 677.89 40.777 678.445 40.297 679.603 C 39.817 680.762 40.373 682.102 41.531 682.582 L 51.135 686.559 C 50.443 690.911 52.79 695.313 57.045 697.075 C 61.299 698.836 66.071 697.383 68.658 693.816 L 68.658 693.816 Z  M 55.988 686.101 C 57.078 683.469 60.116 682.21 62.749 683.3 C 65.381 684.391 66.64 687.429 65.55 690.061 C 64.459 692.694 61.422 693.952 58.789 692.862 C 56.156 691.772 54.898 688.734 55.988 686.101 Z  M 72.2 724.348 C 76.433 726.101 81.213 724.627 83.813 721.089 L 93.691 725.18 C 94.849 725.66 96.19 725.105 96.67 723.946 C 97.149 722.788 96.594 721.447 95.435 720.967 L 85.558 716.877 C 86.259 712.427 83.814 708.077 79.649 706.362 C 75.415 704.608 70.635 706.083 68.035 709.62 L 35.853 696.293 C 34.695 695.813 33.355 696.368 32.875 697.526 C 32.395 698.685 32.95 700.025 34.108 700.505 L 66.311 713.841 C 65.619 718.282 68.051 722.62 72.2 724.348 L 72.2 724.348 Z  M 71.152 713.354 C 72.242 710.721 75.28 709.462 77.913 710.553 C 80.545 711.643 81.804 714.681 80.714 717.313 C 79.623 719.946 76.586 721.205 73.952 720.115 C 71.312 719.045 70.053 716.008 71.152 713.354 Z  M 47.032 734.775 C 51.148 736.471 55.892 735.167 58.56 731.604 L 86.277 743.082 C 87.435 743.562 88.776 743.006 89.255 741.848 C 89.735 740.69 89.18 739.35 88.022 738.87 L 60.368 727.418 C 61.119 723.041 58.765 718.538 54.49 716.767 C 50.214 714.996 45.396 716.504 42.803 720.143 L 28.439 714.194 C 27.281 713.715 25.94 714.271 25.46 715.429 C 24.981 716.587 25.537 717.927 26.695 718.407 L 41.1 724.373 C 40.507 728.667 42.841 733.039 47.032 734.775 L 47.032 734.775 Z  M 45.985 723.78 C 47.075 721.148 50.113 719.889 52.745 720.979 C 55.378 722.07 56.637 725.107 55.546 727.74 C 54.456 730.373 51.418 731.631 48.786 730.541 C 46.153 729.451 44.886 726.434 45.985 723.78 Z " fill="rgb(230,239,194)"/><path d=" M 266.691 685.902 C 270.925 687.655 275.705 686.181 278.305 682.643 L 298.987 691.209 C 300.146 691.688 301.486 691.133 301.965 689.975 C 302.445 688.816 301.89 687.476 300.731 686.996 L 280.049 678.431 C 280.75 673.981 278.306 669.631 274.14 667.916 C 269.906 666.162 265.126 667.637 262.526 671.174 L 241.128 662.313 C 239.969 661.833 238.629 662.388 238.149 663.546 C 237.67 664.705 238.225 666.045 239.384 666.525 L 260.782 675.386 C 260.089 679.835 262.531 684.18 266.691 685.902 L 266.691 685.902 Z  M 265.614 674.92 C 266.704 672.288 269.742 671.029 272.374 672.119 C 275.007 673.21 276.266 676.247 275.175 678.88 C 274.085 681.513 271.047 682.771 268.415 681.681 C 265.782 680.591 264.523 677.553 265.614 674.92 Z  M 259.097 695.661 L 291.552 709.102 C 292.711 709.582 294.051 709.027 294.531 707.868 C 295.01 706.71 294.455 705.369 293.297 704.89 L 260.841 691.449 C 261.533 687.097 259.186 682.695 254.932 680.933 C 250.677 679.172 245.918 680.654 243.318 684.192 L 233.714 680.215 C 232.556 679.735 231.216 680.29 230.736 681.449 C 230.256 682.607 230.811 683.947 231.969 684.427 L 241.574 688.404 C 240.882 692.756 243.229 697.158 247.483 698.92 C 251.737 700.682 256.509 699.228 259.097 695.661 L 259.097 695.661 Z  M 246.426 687.946 C 247.517 685.314 250.555 684.056 253.187 685.145 C 255.82 686.236 257.078 689.274 255.988 691.907 C 254.898 694.539 251.86 695.798 249.227 694.708 C 246.595 693.617 245.336 690.579 246.426 687.946 Z  M 262.638 726.193 C 266.871 727.946 271.652 726.472 274.252 722.935 L 284.13 727.025 C 285.288 727.505 286.628 726.95 287.108 725.792 C 287.587 724.633 287.032 723.292 285.874 722.813 L 275.996 718.722 C 276.697 714.272 274.253 709.922 270.087 708.207 C 265.854 706.453 261.073 707.928 258.473 711.465 L 226.292 698.138 C 225.133 697.658 223.793 698.213 223.313 699.372 C 222.833 700.53 223.389 701.871 224.547 702.35 L 256.75 715.686 C 256.058 720.127 258.49 724.466 262.638 726.193 L 262.638 726.193 Z  M 261.59 715.199 C 262.681 712.566 265.718 711.308 268.351 712.398 C 270.984 713.488 272.242 716.526 271.152 719.159 C 270.062 721.792 267.024 723.05 264.391 721.96 C 261.75 720.891 260.491 717.853 261.59 715.199 Z  M 237.471 736.62 C 241.587 738.316 246.33 737.013 248.999 733.449 L 276.716 744.927 C 277.874 745.407 279.214 744.852 279.694 743.693 C 280.174 742.535 279.619 741.195 278.46 740.715 L 250.807 729.263 C 251.558 724.886 249.204 720.383 244.929 718.612 C 240.653 716.841 235.834 718.349 233.241 721.989 L 218.877 716.04 C 217.719 715.56 216.379 716.116 215.899 717.274 C 215.42 718.432 215.975 719.772 217.133 720.252 L 231.539 726.218 C 230.945 730.512 233.28 734.884 237.471 736.62 L 237.471 736.62 Z  M 236.423 725.626 C 237.513 722.993 240.552 721.734 243.184 722.824 C 245.816 723.915 247.075 726.953 245.985 729.585 C 244.895 732.218 241.857 733.477 239.224 732.386 C 236.592 731.296 235.324 728.279 236.423 725.626 Z " fill="rgb(230,239,194)"/><path d=" M 1226.118 653.787 C 1230.351 655.54 1235.131 654.065 1237.731 650.528 L 1258.414 659.093 C 1259.572 659.573 1260.912 659.018 1261.391 657.86 C 1261.871 656.701 1261.316 655.36 1260.158 654.881 L 1239.475 646.316 C 1240.177 641.865 1237.732 637.515 1233.566 635.801 C 1229.333 634.047 1224.552 635.522 1221.952 639.059 L 1200.554 630.197 C 1199.396 629.718 1198.056 630.273 1197.576 631.431 C 1197.096 632.589 1197.652 633.93 1198.81 634.41 L 1220.208 643.271 C 1219.516 647.72 1221.958 652.065 1226.118 653.787 L 1226.118 653.787 Z  M 1225.04 642.805 C 1226.13 640.172 1229.168 638.914 1231.801 640.003 C 1234.434 641.094 1235.692 644.132 1234.601 646.765 C 1233.512 649.397 1230.473 650.656 1227.841 649.566 C 1225.208 648.476 1223.949 645.437 1225.04 642.805 Z  M 1218.523 663.546 L 1250.979 676.986 C 1252.137 677.466 1253.477 676.911 1253.957 675.753 C 1254.436 674.595 1253.881 673.254 1252.723 672.774 L 1220.267 659.333 C 1220.959 654.981 1218.612 650.58 1214.358 648.818 C 1210.104 647.056 1205.344 648.539 1202.744 652.076 L 1193.141 648.099 C 1191.982 647.619 1190.642 648.175 1190.162 649.333 C 1189.682 650.492 1190.238 651.832 1191.396 652.312 L 1201 656.289 C 1200.308 660.641 1202.655 665.042 1206.909 666.805 C 1211.164 668.566 1215.936 667.113 1218.523 663.546 L 1218.523 663.546 Z  M 1205.853 655.831 C 1206.943 653.199 1209.981 651.94 1212.613 653.03 C 1215.246 654.12 1216.505 657.159 1215.415 659.791 C 1214.324 662.423 1211.287 663.682 1208.654 662.592 C 1206.021 661.502 1204.762 658.464 1205.853 655.831 Z  M 1222.064 694.078 C 1226.298 695.831 1231.078 694.356 1233.678 690.819 L 1243.556 694.91 C 1244.714 695.389 1246.055 694.834 1246.534 693.676 C 1247.014 692.518 1246.458 691.177 1245.3 690.697 L 1235.423 686.607 C 1236.124 682.156 1233.679 677.806 1229.513 676.092 C 1225.28 674.338 1220.5 675.813 1217.9 679.35 L 1185.718 666.022 C 1184.559 665.543 1183.219 666.098 1182.74 667.257 C 1182.26 668.415 1182.815 669.755 1183.973 670.235 L 1216.176 683.571 C 1215.484 688.012 1217.916 692.35 1222.064 694.078 L 1222.064 694.078 Z  M 1221.017 683.084 C 1222.107 680.451 1225.145 679.192 1227.778 680.283 C 1230.41 681.373 1231.669 684.411 1230.579 687.043 C 1229.488 689.676 1226.451 690.935 1223.817 689.844 C 1221.176 688.775 1219.918 685.738 1221.017 683.084 Z  M 1196.897 704.504 C 1201.013 706.201 1205.756 704.897 1208.425 701.334 L 1236.142 712.812 C 1237.3 713.292 1238.64 712.736 1239.12 711.578 C 1239.6 710.42 1239.045 709.08 1237.886 708.6 L 1210.233 697.147 C 1210.984 692.771 1208.63 688.267 1204.355 686.497 C 1200.079 684.726 1195.261 686.234 1192.668 689.873 L 1178.304 683.924 C 1177.146 683.445 1175.805 684 1175.325 685.159 C 1174.846 686.317 1175.401 687.657 1176.56 688.137 L 1190.965 694.103 C 1190.372 698.397 1192.706 702.768 1196.897 704.504 L 1196.897 704.504 Z  M 1195.85 693.51 C 1196.94 690.878 1199.978 689.619 1202.61 690.709 C 1205.243 691.8 1206.502 694.837 1205.411 697.47 C 1204.321 700.103 1201.283 701.361 1198.651 700.271 C 1196.018 699.181 1194.751 696.164 1195.85 693.51 Z " fill="rgb(230,239,194)"/><path d=" M 835.495 393.741 L 835.495 393.741 C 836.017 392.447 837.492 391.821 838.786 392.343 L 918.51 424.554 C 919.804 425.077 920.43 426.552 919.907 427.846 L 919.907 427.846 C 919.385 429.14 917.91 429.767 916.616 429.244 L 836.892 397.033 C 835.597 396.51 834.972 395.035 835.495 393.741 Z " fill="rgb(230,239,194)"/><path d=" M 845.774 408.805 L 845.774 408.805 C 846.297 407.51 847.772 406.884 849.066 407.407 L 900.652 428.249 C 901.946 428.772 902.572 430.247 902.049 431.541 L 902.049 431.541 C 901.527 432.835 900.051 433.462 898.757 432.939 L 847.171 412.096 C 845.877 411.574 845.251 410.099 845.774 408.805 Z " fill="rgb(230,239,194)"/><path d=" M 850.652 356.223 L 850.652 356.223 C 851.175 354.929 852.65 354.303 853.944 354.826 L 933.668 387.037 C 934.962 387.56 935.588 389.035 935.065 390.329 L 935.065 390.329 C 934.543 391.623 933.068 392.249 931.774 391.726 L 852.049 359.516 C 850.755 358.993 850.129 357.518 850.652 356.223 Z " fill="rgb(230,239,194)"/><path d=" M 860.932 371.287 L 860.932 371.287 C 861.455 369.993 862.93 369.367 864.224 369.89 L 915.81 390.732 C 917.104 391.255 917.73 392.73 917.207 394.024 L 917.207 394.024 C 916.685 395.318 915.209 395.944 913.915 395.421 L 862.329 374.58 C 861.035 374.057 860.408 372.581 860.932 371.287 Z " fill="rgb(230,239,194)"/><path d=" M 856.053 423.868 L 856.053 423.868 C 856.576 422.574 858.051 421.947 859.345 422.47 L 882.793 431.944 C 884.087 432.467 884.714 433.942 884.191 435.236 L 884.191 435.236 C 883.668 436.53 882.193 437.157 880.899 436.634 L 857.451 427.16 C 856.157 426.637 855.53 425.162 856.053 423.868 Z " fill="rgb(230,239,194)"/><path d=" M 860.387 392.888 L 860.387 392.888 C 860.91 391.594 862.385 390.967 863.679 391.49 L 901.196 406.648 C 902.49 407.171 903.117 408.647 902.594 409.941 L 902.594 409.941 C 902.071 411.235 900.596 411.861 899.302 411.338 L 861.784 396.18 C 860.49 395.657 859.864 394.182 860.387 392.888 Z " fill="rgb(230,239,194)"/><path d=" M 878.246 389.193 L 878.246 389.193 C 878.768 387.899 880.243 387.272 881.537 387.795 L 893.262 392.532 C 894.556 393.055 895.182 394.53 894.659 395.825 L 894.659 395.825 C 894.136 397.119 892.661 397.745 891.367 397.222 L 879.643 392.485 C 878.349 391.962 877.723 390.487 878.246 389.193 Z " fill="rgb(230,239,194)"/><path d=" M 875.545 355.371 L 875.545 355.371 C 876.068 354.077 877.543 353.451 878.837 353.973 L 916.354 369.131 C 917.648 369.654 918.275 371.129 917.752 372.423 L 917.752 372.423 C 917.229 373.717 915.754 374.344 914.459 373.821 L 876.942 358.663 C 875.648 358.14 875.022 356.665 875.545 355.371 Z " fill="rgb(230,239,194)"/><path d=" M 893.404 351.676 L 893.404 351.676 C 893.926 350.382 895.401 349.756 896.695 350.278 L 908.42 355.015 C 909.714 355.538 910.34 357.013 909.817 358.307 L 909.817 358.307 C 909.294 359.601 907.819 360.227 906.525 359.705 L 894.801 354.968 C 893.506 354.445 892.881 352.97 893.404 351.676 Z " fill="rgb(230,239,194)"/><path d=" M 991.564 306.979 L 991.564 306.979 C 992.088 305.685 993.564 305.06 994.857 305.584 L 1074.555 337.859 C 1075.849 338.383 1076.474 339.859 1075.95 341.153 L 1075.95 341.153 C 1075.426 342.446 1073.951 343.071 1072.656 342.547 L 992.959 310.272 C 991.665 309.748 991.041 308.273 991.564 306.979 Z " fill="rgb(230,239,194)"/><path d=" M 1001.832 322.051 L 1001.832 322.051 C 1002.355 320.757 1003.831 320.132 1005.125 320.656 L 1056.694 341.54 C 1057.988 342.064 1058.612 343.539 1058.088 344.833 L 1058.088 344.833 C 1057.565 346.127 1056.089 346.752 1054.795 346.228 L 1003.226 325.344 C 1001.932 324.82 1001.308 323.345 1001.832 322.051 Z " fill="rgb(230,239,194)"/><path d=" M 1006.753 269.474 L 1006.753 269.474 C 1007.276 268.181 1008.752 267.556 1010.046 268.079 L 1089.743 300.354 C 1091.037 300.878 1091.662 302.354 1091.138 303.648 L 1091.138 303.648 C 1090.614 304.941 1089.138 305.566 1087.845 305.042 L 1008.147 272.767 C 1006.853 272.244 1006.228 270.768 1006.753 269.474 Z " fill="rgb(230,239,194)"/><path d=" M 1017.02 284.546 L 1017.02 284.546 C 1017.544 283.252 1019.019 282.627 1020.313 283.151 L 1071.882 304.035 C 1073.176 304.559 1073.801 306.034 1073.277 307.328 L 1073.277 307.328 C 1072.753 308.622 1071.277 309.247 1069.984 308.723 L 1018.414 287.839 C 1017.12 287.315 1016.495 285.84 1017.02 284.546 Z " fill="rgb(230,239,194)"/><path d=" M 1012.099 337.123 L 1012.099 337.123 C 1012.623 335.829 1014.098 335.204 1015.392 335.728 L 1038.833 345.22 C 1040.126 345.744 1040.751 347.22 1040.227 348.513 L 1040.227 348.513 C 1039.704 349.808 1038.228 350.433 1036.934 349.908 L 1013.494 340.416 C 1012.2 339.892 1011.575 338.416 1012.099 337.123 Z " fill="rgb(230,239,194)"/><path d=" M 1016.458 306.146 L 1016.458 306.146 C 1016.982 304.853 1018.457 304.228 1019.751 304.751 L 1057.256 319.94 C 1058.549 320.463 1059.174 321.939 1058.651 323.233 L 1058.651 323.233 C 1058.127 324.526 1056.651 325.151 1055.357 324.628 L 1017.853 309.439 C 1016.559 308.916 1015.934 307.439 1016.458 306.146 Z " fill="rgb(230,239,194)"/><path d=" M 1034.319 302.465 L 1034.319 302.465 C 1034.843 301.172 1036.319 300.547 1037.612 301.07 L 1049.333 305.817 C 1050.626 306.341 1051.251 307.817 1050.728 309.11 L 1050.728 309.11 C 1050.203 310.404 1048.728 311.029 1047.434 310.505 L 1035.714 305.758 C 1034.42 305.235 1033.795 303.759 1034.319 302.465 Z " fill="rgb(230,239,194)"/><path d=" M 1031.646 268.641 L 1031.646 268.641 C 1032.17 267.347 1033.645 266.723 1034.939 267.247 L 1072.444 282.435 C 1073.738 282.959 1074.363 284.434 1073.839 285.728 L 1073.839 285.728 C 1073.315 287.022 1071.839 287.647 1070.546 287.123 L 1033.041 271.935 C 1031.747 271.411 1031.122 269.935 1031.646 268.641 Z " fill="rgb(230,239,194)"/><path d=" M 1049.507 264.961 L 1049.507 264.961 C 1050.031 263.667 1051.507 263.042 1052.801 263.566 L 1064.521 268.312 C 1065.815 268.836 1066.44 270.312 1065.915 271.606 L 1065.915 271.606 C 1065.392 272.899 1063.916 273.524 1062.622 273 L 1050.902 268.254 C 1049.608 267.73 1048.983 266.254 1049.507 264.961 Z " fill="rgb(230,239,194)"/><path d=" M 1207.365 553.696 L 1207.365 553.696 C 1207.888 552.403 1209.364 551.777 1210.658 552.301 L 1290.355 584.576 C 1291.65 585.1 1292.275 586.575 1291.75 587.87 L 1291.75 587.87 C 1291.226 589.163 1289.751 589.788 1288.457 589.264 L 1208.759 556.989 C 1207.466 556.466 1206.841 554.989 1207.365 553.696 Z " fill="rgb(230,239,194)"/><path d=" M 1217.632 568.767 L 1217.632 568.767 C 1218.156 567.474 1219.631 566.849 1220.925 567.373 L 1272.494 588.256 C 1273.788 588.781 1274.413 590.256 1273.889 591.55 L 1273.889 591.55 C 1273.365 592.844 1271.889 593.469 1270.596 592.945 L 1219.027 572.061 C 1217.733 571.537 1217.108 570.062 1217.632 568.767 Z " fill="rgb(230,239,194)"/><path d=" M 1222.553 516.191 L 1222.553 516.191 C 1223.077 514.897 1224.552 514.272 1225.846 514.797 L 1305.544 547.071 C 1306.837 547.595 1307.462 549.071 1306.938 550.364 L 1306.938 550.364 C 1306.415 551.659 1304.939 552.284 1303.645 551.759 L 1223.948 519.485 C 1222.653 518.961 1222.028 517.485 1222.553 516.191 Z " fill="rgb(230,239,194)"/><path d=" M 1232.82 531.263 L 1232.82 531.263 C 1233.344 529.969 1234.819 529.344 1236.113 529.868 L 1287.682 550.752 C 1288.976 551.276 1289.601 552.752 1289.077 554.045 L 1289.077 554.045 C 1288.553 555.339 1287.077 555.964 1285.784 555.44 L 1234.215 534.556 C 1232.921 534.032 1232.296 532.557 1232.82 531.263 Z " fill="rgb(230,239,194)"/><path d=" M 1227.899 583.84 L 1227.899 583.84 C 1228.423 582.546 1229.898 581.921 1231.193 582.445 L 1254.633 591.937 C 1255.926 592.461 1256.551 593.937 1256.028 595.23 L 1256.028 595.23 C 1255.504 596.524 1254.028 597.149 1252.735 596.625 L 1229.294 587.133 C 1228 586.609 1227.375 585.133 1227.899 583.84 Z " fill="rgb(230,239,194)"/><path d=" M 1232.258 552.863 L 1232.258 552.863 C 1232.782 551.569 1234.257 550.945 1235.552 551.468 L 1273.056 566.657 C 1274.35 567.181 1274.975 568.656 1274.451 569.95 L 1274.451 569.95 C 1273.927 571.244 1272.451 571.869 1271.158 571.345 L 1233.653 556.156 C 1232.359 555.633 1231.734 554.157 1232.258 552.863 Z " fill="rgb(230,239,194)"/><path d=" M 1250.119 549.182 L 1250.119 549.182 C 1250.643 547.889 1252.119 547.264 1253.413 547.788 L 1265.133 552.534 C 1266.427 553.058 1267.052 554.534 1266.528 555.827 L 1266.528 555.827 C 1266.004 557.121 1264.528 557.746 1263.234 557.222 L 1251.514 552.476 C 1250.221 551.952 1249.596 550.476 1250.119 549.182 Z " fill="rgb(230,239,194)"/><path d=" M 1247.446 515.359 L 1247.446 515.359 C 1247.97 514.064 1249.446 513.439 1250.739 513.964 L 1288.245 529.151 C 1289.538 529.676 1290.163 531.151 1289.639 532.445 L 1289.639 532.445 C 1289.115 533.739 1287.64 534.364 1286.346 533.84 L 1248.841 518.652 C 1247.547 518.128 1246.922 516.652 1247.446 515.359 Z " fill="rgb(230,239,194)"/><path d=" M 1265.308 511.678 L 1265.308 511.678 C 1265.831 510.384 1267.307 509.759 1268.601 510.283 L 1280.321 515.029 C 1281.615 515.553 1282.24 517.029 1281.716 518.323 L 1281.716 518.323 C 1281.192 519.616 1279.716 520.241 1278.422 519.718 L 1266.703 514.971 C 1265.408 514.447 1264.783 512.971 1265.308 511.678 Z " fill="rgb(230,239,194)"/><path d=" M 851.098 543.291 L 851.098 543.291 C 851.622 541.998 853.098 541.372 854.391 541.896 L 934.089 574.171 C 935.383 574.695 936.008 576.171 935.484 577.465 L 935.484 577.465 C 934.96 578.758 933.485 579.383 932.19 578.86 L 852.493 546.584 C 851.199 546.061 850.574 544.585 851.098 543.291 Z " fill="rgb(230,239,194)"/><path d=" M 861.366 558.363 L 861.366 558.363 C 861.889 557.069 863.365 556.444 864.659 556.968 L 916.228 577.852 C 917.521 578.376 918.146 579.851 917.622 581.145 L 917.622 581.145 C 917.099 582.439 915.623 583.064 914.329 582.54 L 862.76 561.656 C 861.466 561.132 860.841 559.657 861.366 558.363 Z " fill="rgb(230,239,194)"/><path d=" M 866.286 505.786 L 866.286 505.786 C 866.81 504.493 868.286 503.868 869.58 504.392 L 949.277 536.666 C 950.571 537.191 951.196 538.666 950.672 539.96 L 950.672 539.96 C 950.148 541.254 948.672 541.879 947.379 541.354 L 867.681 509.08 C 866.387 508.556 865.762 507.08 866.286 505.786 Z " fill="rgb(230,239,194)"/><path d=" M 876.554 520.858 L 876.554 520.858 C 877.078 519.564 878.553 518.939 879.847 519.463 L 931.416 540.347 C 932.71 540.871 933.335 542.347 932.811 543.64 L 932.811 543.64 C 932.287 544.934 930.811 545.559 929.518 545.035 L 877.948 524.151 C 876.654 523.627 876.029 522.152 876.554 520.858 Z " fill="rgb(230,239,194)"/><path d=" M 871.633 573.435 L 871.633 573.435 C 872.157 572.141 873.632 571.516 874.926 572.04 L 898.367 581.532 C 899.66 582.056 900.285 583.532 899.761 584.825 L 899.761 584.825 C 899.237 586.12 897.762 586.745 896.468 586.22 L 873.028 576.728 C 871.733 576.204 871.109 574.728 871.633 573.435 Z " fill="rgb(230,239,194)"/><path d=" M 875.992 542.458 L 875.992 542.458 C 876.516 541.165 877.991 540.54 879.285 541.063 L 916.79 556.252 C 918.083 556.776 918.708 558.251 918.185 559.545 L 918.185 559.545 C 917.661 560.839 916.185 561.464 914.891 560.94 L 877.387 545.751 C 876.092 545.228 875.468 543.752 875.992 542.458 Z " fill="rgb(230,239,194)"/><path d=" M 893.853 538.777 L 893.853 538.777 C 894.377 537.484 895.853 536.859 897.146 537.383 L 908.867 542.129 C 910.16 542.653 910.785 544.129 910.261 545.422 L 910.261 545.422 C 909.737 546.716 908.262 547.341 906.968 546.817 L 895.248 542.071 C 893.954 541.547 893.329 540.071 893.853 538.777 Z " fill="rgb(230,239,194)"/><path d=" M 891.18 504.954 L 891.18 504.954 C 891.704 503.659 893.179 503.035 894.473 503.559 L 931.978 518.747 C 933.272 519.271 933.897 520.746 933.373 522.04 L 933.373 522.04 C 932.849 523.334 931.373 523.959 930.08 523.435 L 892.574 508.247 C 891.281 507.723 890.656 506.247 891.18 504.954 Z " fill="rgb(230,239,194)"/><path d=" M 909.041 501.273 L 909.041 501.273 C 909.565 499.979 911.041 499.354 912.335 499.878 L 924.054 504.625 C 925.349 505.148 925.974 506.624 925.449 507.918 L 925.449 507.918 C 924.926 509.211 923.45 509.836 922.156 509.313 L 910.436 504.566 C 909.142 504.042 908.517 502.566 909.041 501.273 Z " fill="rgb(230,239,194)"/><path d=" M 1218.544 138.644 L 1218.544 138.644 C 1219.068 137.35 1220.544 136.725 1221.837 137.249 L 1301.535 169.524 C 1302.829 170.048 1303.454 171.523 1302.93 172.817 L 1302.93 172.817 C 1302.406 174.111 1300.93 174.736 1299.637 174.212 L 1219.939 141.937 C 1218.645 141.413 1218.02 139.937 1218.544 138.644 Z " fill="rgb(230,239,194)"/><path d=" M 1228.811 153.715 L 1228.811 153.715 C 1229.335 152.422 1230.811 151.797 1232.105 152.32 L 1283.673 173.204 C 1284.968 173.728 1285.593 175.204 1285.068 176.497 L 1285.068 176.497 C 1284.545 177.792 1283.069 178.417 1281.775 177.892 L 1230.206 157.008 C 1228.913 156.485 1228.288 155.009 1228.811 153.715 Z " fill="rgb(230,239,194)"/><path d=" M 1233.732 101.139 L 1233.732 101.139 C 1234.256 99.845 1235.732 99.22 1237.026 99.744 L 1316.723 132.019 C 1318.017 132.543 1318.642 134.019 1318.118 135.312 L 1318.118 135.312 C 1317.594 136.606 1316.118 137.231 1314.825 136.707 L 1235.127 104.432 C 1233.833 103.908 1233.208 102.433 1233.732 101.139 Z " fill="rgb(230,239,194)"/><path d=" M 1244 116.211 L 1244 116.211 C 1244.523 114.917 1245.999 114.292 1247.293 114.816 L 1298.862 135.7 C 1300.155 136.223 1300.78 137.699 1300.257 138.993 L 1300.257 138.993 C 1299.733 140.286 1298.257 140.911 1296.963 140.388 L 1245.394 119.504 C 1244.1 118.98 1243.475 117.504 1244 116.211 Z " fill="rgb(230,239,194)"/><path d=" M 1239.079 168.787 L 1239.079 168.787 C 1239.602 167.493 1241.078 166.868 1242.372 167.393 L 1265.812 176.885 C 1267.106 177.409 1267.731 178.885 1267.207 180.178 L 1267.207 180.178 C 1266.683 181.472 1265.207 182.097 1263.914 181.573 L 1240.474 172.081 C 1239.18 171.556 1238.555 170.081 1239.079 168.787 Z " fill="rgb(230,239,194)"/><path d=" M 1243.438 137.811 L 1243.438 137.811 C 1243.961 136.517 1245.437 135.892 1246.731 136.416 L 1284.236 151.604 C 1285.529 152.128 1286.154 153.604 1285.63 154.898 L 1285.63 154.898 C 1285.107 156.191 1283.631 156.816 1282.337 156.292 L 1244.832 141.104 C 1243.539 140.58 1242.914 139.104 1243.438 137.811 Z " fill="rgb(230,239,194)"/><path d=" M 1261.299 134.13 L 1261.299 134.13 C 1261.823 132.837 1263.299 132.212 1264.592 132.735 L 1276.313 137.482 C 1277.606 138.006 1278.231 139.481 1277.708 140.775 L 1277.708 140.775 C 1277.183 142.069 1275.708 142.694 1274.414 142.17 L 1262.694 137.423 C 1261.4 136.9 1260.775 135.424 1261.299 134.13 Z " fill="rgb(230,239,194)"/><path d=" M 1258.626 100.306 L 1258.626 100.306 C 1259.15 99.012 1260.625 98.387 1261.919 98.911 L 1299.424 114.099 C 1300.717 114.623 1301.342 116.099 1300.819 117.392 L 1300.819 117.392 C 1300.295 118.687 1298.819 119.312 1297.526 118.787 L 1260.021 103.599 C 1258.727 103.075 1258.102 101.6 1258.626 100.306 Z " fill="rgb(230,239,194)"/><path d=" M 1276.487 96.626 L 1276.487 96.626 C 1277.011 95.332 1278.487 94.707 1279.78 95.231 L 1291.501 99.977 C 1292.795 100.501 1293.42 101.976 1292.895 103.27 L 1292.895 103.27 C 1292.371 104.564 1290.896 105.189 1289.602 104.665 L 1277.882 99.919 C 1276.588 99.395 1275.963 97.919 1276.487 96.626 Z " fill="rgb(230,239,194)"/><path d=" M 1071.187 452.283 C 1075.42 454.037 1080.201 452.562 1082.801 449.025 L 1103.483 457.59 C 1104.641 458.07 1105.981 457.514 1106.461 456.356 C 1106.941 455.197 1106.386 453.857 1105.227 453.378 L 1084.545 444.812 C 1085.246 440.362 1082.802 436.012 1078.636 434.297 C 1074.403 432.544 1069.622 434.018 1067.022 437.555 L 1045.624 428.694 C 1044.465 428.214 1043.125 428.769 1042.646 429.928 C 1042.166 431.086 1042.721 432.426 1043.879 432.906 L 1065.277 441.768 C 1064.586 446.217 1067.027 450.561 1071.187 452.283 L 1071.187 452.283 Z  M 1070.109 441.302 C 1071.2 438.669 1074.237 437.41 1076.87 438.5 C 1079.503 439.591 1080.761 442.628 1079.671 445.261 C 1078.581 447.894 1075.543 449.153 1072.91 448.062 C 1070.278 446.972 1069.019 443.934 1070.109 441.302 Z  M 1063.593 462.043 L 1096.048 475.483 C 1097.206 475.963 1098.546 475.408 1099.026 474.249 C 1099.506 473.091 1098.951 471.751 1097.792 471.271 L 1065.337 457.83 C 1066.029 453.478 1063.682 449.077 1059.427 447.314 C 1055.173 445.553 1050.413 447.036 1047.814 450.573 L 1038.21 446.596 C 1037.052 446.116 1035.711 446.671 1035.231 447.829 C 1034.752 448.988 1035.307 450.329 1036.466 450.808 L 1046.069 454.785 C 1045.377 459.138 1047.724 463.539 1051.979 465.301 C 1056.233 467.063 1061.005 465.609 1063.593 462.043 L 1063.593 462.043 Z  M 1050.922 454.328 C 1052.013 451.695 1055.05 450.437 1057.683 451.527 C 1060.316 452.617 1061.575 455.655 1060.484 458.288 C 1059.393 460.92 1056.356 462.179 1053.723 461.089 C 1051.09 459.999 1049.832 456.96 1050.922 454.328 Z  M 1067.134 492.574 C 1071.367 494.328 1076.148 492.853 1078.748 489.316 L 1088.625 493.406 C 1089.784 493.886 1091.124 493.331 1091.604 492.172 C 1092.084 491.014 1091.528 489.674 1090.37 489.194 L 1080.492 485.104 C 1081.193 480.653 1078.749 476.303 1074.583 474.588 C 1070.349 472.835 1065.569 474.309 1062.969 477.846 L 1030.787 464.519 C 1029.629 464.04 1028.289 464.594 1027.809 465.753 C 1027.33 466.911 1027.884 468.252 1029.043 468.732 L 1061.246 482.067 C 1060.554 486.508 1062.985 490.847 1067.134 492.574 L 1067.134 492.574 Z  M 1066.086 481.58 C 1067.176 478.947 1070.215 477.689 1072.847 478.779 C 1075.479 479.869 1076.738 482.908 1075.648 485.54 C 1074.558 488.172 1071.52 489.431 1068.887 488.341 C 1066.246 487.272 1064.987 484.234 1066.086 481.58 Z  M 1041.967 503.001 C 1046.083 504.698 1050.826 503.394 1053.495 499.83 L 1081.211 511.308 C 1082.37 511.788 1083.71 511.233 1084.19 510.075 C 1084.67 508.917 1084.114 507.576 1082.956 507.096 L 1055.302 495.644 C 1056.054 491.267 1053.7 486.764 1049.424 484.993 C 1045.149 483.223 1040.33 484.731 1037.737 488.37 L 1023.374 482.421 C 1022.215 481.941 1020.875 482.497 1020.395 483.655 C 1019.915 484.814 1020.471 486.154 1021.629 486.633 L 1036.035 492.599 C 1035.441 496.893 1037.775 501.265 1041.967 503.001 L 1041.967 503.001 Z  M 1040.919 492.007 C 1042.01 489.374 1045.047 488.115 1047.68 489.206 C 1050.313 490.296 1051.571 493.334 1050.481 495.966 C 1049.391 498.599 1046.353 499.858 1043.72 498.767 C 1041.087 497.677 1039.82 494.661 1040.919 492.007 Z " fill="rgb(230,239,194)"/><path d=" M 915.411 162.164 C 919.644 163.917 924.424 162.443 927.024 158.905 L 947.707 167.47 C 948.865 167.95 950.205 167.395 950.685 166.237 C 951.164 165.078 950.609 163.738 949.451 163.258 L 928.769 154.693 C 929.47 150.242 927.025 145.892 922.859 144.178 C 918.626 142.424 913.845 143.899 911.246 147.436 L 889.848 138.575 C 888.689 138.095 887.349 138.65 886.869 139.808 C 886.389 140.966 886.945 142.307 888.103 142.787 L 909.501 151.648 C 908.809 156.097 911.251 160.442 915.411 162.164 L 915.411 162.164 Z  M 914.333 151.182 C 915.424 148.55 918.461 147.291 921.094 148.381 C 923.727 149.471 924.985 152.509 923.895 155.142 C 922.805 157.775 919.767 159.033 917.134 157.943 C 914.501 156.853 913.242 153.815 914.333 151.182 Z  M 907.816 171.923 L 940.272 185.364 C 941.43 185.843 942.77 185.289 943.25 184.13 C 943.729 182.972 943.174 181.631 942.016 181.151 L 909.56 167.711 C 910.252 163.358 907.905 158.957 903.651 157.195 C 899.397 155.433 894.637 156.916 892.037 160.454 L 882.434 156.476 C 881.275 155.997 879.935 156.552 879.455 157.71 C 878.975 158.869 879.531 160.209 880.689 160.689 L 890.293 164.666 C 889.601 169.018 891.948 173.42 896.203 175.182 C 900.457 176.943 905.229 175.49 907.816 171.923 L 907.816 171.923 Z  M 895.146 164.208 C 896.236 161.576 899.274 160.317 901.907 161.407 C 904.539 162.498 905.798 165.536 904.708 168.168 C 903.617 170.801 900.58 172.059 897.947 170.97 C 895.314 169.879 894.056 166.841 895.146 164.208 Z  M 911.358 202.455 C 915.591 204.208 920.371 202.734 922.971 199.196 L 932.849 203.287 C 934.007 203.767 935.348 203.212 935.828 202.053 C 936.307 200.895 935.752 199.554 934.593 199.074 L 924.716 194.984 C 925.417 190.534 922.972 186.184 918.806 184.469 C 914.573 182.715 909.793 184.19 907.193 187.727 L 875.011 174.4 C 873.853 173.92 872.513 174.475 872.033 175.634 C 871.553 176.792 872.108 178.132 873.266 178.612 L 905.469 191.948 C 904.777 196.389 907.209 200.728 911.358 202.455 L 911.358 202.455 Z  M 910.31 191.461 C 911.4 188.828 914.438 187.569 917.071 188.66 C 919.703 189.75 920.962 192.788 919.872 195.42 C 918.781 198.054 915.744 199.312 913.11 198.222 C 910.47 197.152 909.211 194.115 910.31 191.461 Z  M 886.19 212.882 C 890.306 214.578 895.05 213.274 897.718 209.711 L 925.435 221.189 C 926.593 221.669 927.934 221.113 928.413 219.955 C 928.893 218.797 928.338 217.457 927.18 216.977 L 899.526 205.525 C 900.277 201.148 897.923 196.645 893.648 194.874 C 889.372 193.103 884.554 194.611 881.961 198.251 L 867.597 192.302 C 866.439 191.822 865.098 192.378 864.618 193.536 C 864.139 194.694 864.695 196.034 865.853 196.514 L 880.258 202.48 C 879.665 206.774 881.999 211.146 886.19 212.882 L 886.19 212.882 Z  M 885.143 201.887 C 886.233 199.255 889.271 197.996 891.903 199.086 C 894.536 200.177 895.795 203.214 894.704 205.847 C 893.614 208.48 890.576 209.738 887.944 208.648 C 885.311 207.558 884.044 204.541 885.143 201.887 Z " fill="rgb(230,239,194)"/><path d=" M 1124.098 145.478 C 1128.331 147.231 1133.112 145.757 1135.711 142.22 L 1156.394 150.785 C 1157.552 151.265 1158.892 150.709 1159.372 149.551 C 1159.851 148.393 1159.296 147.053 1158.138 146.573 L 1137.456 138.008 C 1138.157 133.557 1135.712 129.208 1131.546 127.492 C 1127.313 125.739 1122.532 127.214 1119.932 130.751 L 1098.534 121.889 C 1097.376 121.409 1096.036 121.964 1095.556 123.123 C 1095.076 124.282 1095.632 125.622 1096.79 126.101 L 1118.188 134.963 C 1117.496 139.412 1119.938 143.757 1124.098 145.478 L 1124.098 145.478 Z  M 1123.02 134.497 C 1124.11 131.864 1127.148 130.605 1129.781 131.696 C 1132.414 132.786 1133.672 135.824 1132.582 138.456 C 1131.492 141.089 1128.453 142.348 1125.821 141.258 C 1123.188 140.167 1121.93 137.13 1123.02 134.497 Z  M 1116.503 155.237 L 1148.959 168.679 C 1150.117 169.158 1151.457 168.603 1151.937 167.444 C 1152.416 166.286 1151.861 164.946 1150.703 164.467 L 1118.247 151.025 C 1118.939 146.674 1116.592 142.272 1112.338 140.51 C 1108.084 138.748 1103.324 140.231 1100.724 143.769 L 1091.121 139.791 C 1089.962 139.311 1088.622 139.867 1088.142 141.025 C 1087.662 142.183 1088.218 143.523 1089.376 144.003 L 1098.98 147.981 C 1098.288 152.332 1100.635 156.734 1104.89 158.496 C 1109.144 160.258 1113.916 158.804 1116.503 155.237 L 1116.503 155.237 Z  M 1103.833 147.523 C 1104.923 144.89 1107.961 143.632 1110.593 144.722 C 1113.226 145.812 1114.485 148.85 1113.395 151.483 C 1112.304 154.116 1109.267 155.374 1106.634 154.284 C 1104.001 153.193 1102.742 150.156 1103.833 147.523 Z  M 1120.044 185.77 C 1124.278 187.522 1129.058 186.048 1131.658 182.511 L 1141.536 186.602 C 1142.694 187.082 1144.035 186.526 1144.514 185.368 C 1144.994 184.209 1144.439 182.869 1143.28 182.39 L 1133.403 178.299 C 1134.104 173.848 1131.659 169.499 1127.494 167.783 C 1123.26 166.03 1118.48 167.505 1115.88 171.042 L 1083.698 157.714 C 1082.54 157.234 1081.2 157.79 1080.72 158.948 C 1080.24 160.107 1080.795 161.447 1081.953 161.926 L 1114.156 175.263 C 1113.464 179.703 1115.896 184.042 1120.044 185.77 L 1120.044 185.77 Z  M 1118.997 174.775 C 1120.087 172.143 1123.125 170.884 1125.758 171.974 C 1128.39 173.065 1129.649 176.102 1128.559 178.736 C 1127.468 181.368 1124.431 182.626 1121.797 181.536 C 1119.157 180.467 1117.898 177.429 1118.997 174.775 Z  M 1094.877 196.196 C 1098.993 197.893 1103.737 196.589 1106.405 193.025 L 1134.122 204.504 C 1135.28 204.984 1136.621 204.428 1137.1 203.27 C 1137.58 202.111 1137.025 200.771 1135.866 200.291 L 1108.213 188.839 C 1108.964 184.463 1106.61 179.959 1102.335 178.189 C 1098.059 176.418 1093.241 177.926 1090.648 181.565 L 1076.284 175.617 C 1075.126 175.137 1073.785 175.692 1073.305 176.85 C 1072.826 178.008 1073.381 179.349 1074.54 179.829 L 1088.945 185.795 C 1088.352 190.089 1090.686 194.461 1094.877 196.196 L 1094.877 196.196 Z  M 1093.83 185.202 C 1094.92 182.569 1097.958 181.311 1100.59 182.401 C 1103.223 183.491 1104.482 186.529 1103.391 189.162 C 1102.301 191.794 1099.263 193.053 1096.631 191.963 C 1093.998 190.873 1092.731 187.855 1093.83 185.202 Z " fill="rgb(230,239,194)"/><path d=" M 1210.509 315.909 C 1214.742 317.662 1219.523 316.187 1222.123 312.65 L 1242.805 321.216 C 1243.963 321.695 1245.304 321.14 1245.783 319.982 C 1246.263 318.823 1245.707 317.483 1244.549 317.004 L 1223.867 308.438 C 1224.568 303.988 1222.123 299.638 1217.958 297.923 C 1213.724 296.17 1208.944 297.644 1206.344 301.181 L 1184.945 292.319 C 1183.787 291.84 1182.447 292.395 1181.967 293.554 C 1181.488 294.712 1182.043 296.052 1183.201 296.532 L 1204.6 305.394 C 1203.907 309.842 1206.349 314.187 1210.509 315.909 L 1210.509 315.909 Z  M 1209.431 304.927 C 1210.521 302.294 1213.56 301.036 1216.192 302.126 C 1218.825 303.216 1220.083 306.255 1218.993 308.887 C 1217.903 311.52 1214.865 312.779 1212.232 311.688 C 1209.6 310.598 1208.341 307.56 1209.431 304.927 Z  M 1202.914 325.668 L 1235.37 339.109 C 1236.528 339.589 1237.869 339.033 1238.348 337.875 C 1238.828 336.717 1238.272 335.377 1237.114 334.897 L 1204.659 321.456 C 1205.351 317.104 1203.004 312.702 1198.749 310.94 C 1194.495 309.178 1189.736 310.662 1187.136 314.199 L 1177.532 310.222 C 1176.373 309.742 1175.033 310.297 1174.554 311.456 C 1174.074 312.614 1174.629 313.954 1175.787 314.434 L 1185.392 318.411 C 1184.7 322.763 1187.047 327.165 1191.301 328.927 C 1195.555 330.689 1200.327 329.235 1202.914 325.668 L 1202.914 325.668 Z  M 1190.244 317.954 C 1191.335 315.321 1194.372 314.062 1197.005 315.153 C 1199.638 316.243 1200.896 319.281 1199.806 321.913 C 1198.716 324.546 1195.678 325.805 1193.045 324.714 C 1190.413 323.624 1189.154 320.586 1190.244 317.954 Z  M 1206.456 356.2 C 1210.689 357.953 1215.469 356.478 1218.069 352.941 L 1227.948 357.032 C 1229.106 357.512 1230.446 356.956 1230.925 355.798 C 1231.405 354.64 1230.85 353.3 1229.692 352.82 L 1219.814 348.729 C 1220.515 344.279 1218.071 339.929 1213.905 338.214 C 1209.671 336.461 1204.891 337.935 1202.291 341.473 L 1170.109 328.145 C 1168.951 327.665 1167.611 328.22 1167.131 329.379 C 1166.651 330.537 1167.206 331.877 1168.365 332.357 L 1200.568 345.693 C 1199.876 350.134 1202.307 354.472 1206.456 356.2 L 1206.456 356.2 Z  M 1205.408 345.206 C 1206.499 342.573 1209.536 341.315 1212.169 342.405 C 1214.802 343.495 1216.06 346.533 1214.97 349.166 C 1213.879 351.798 1210.842 353.057 1208.209 351.967 C 1205.567 350.897 1204.309 347.86 1205.408 345.206 Z  M 1181.289 366.626 C 1185.405 368.324 1190.147 367.019 1192.817 363.456 L 1220.533 374.934 C 1221.692 375.414 1223.032 374.859 1223.512 373.7 C 1223.992 372.542 1223.436 371.202 1222.278 370.722 L 1194.625 359.27 C 1195.376 354.893 1193.022 350.39 1188.746 348.619 C 1184.471 346.849 1179.652 348.357 1177.059 351.995 L 1162.695 346.047 C 1161.537 345.567 1160.197 346.122 1159.717 347.281 C 1159.238 348.439 1159.792 349.78 1160.951 350.259 L 1175.357 356.225 C 1174.763 360.519 1177.098 364.891 1181.289 366.626 L 1181.289 366.626 Z  M 1180.241 355.632 C 1181.331 353 1184.369 351.741 1187.002 352.831 C 1189.634 353.922 1190.893 356.96 1189.803 359.592 C 1188.713 362.225 1185.674 363.483 1183.042 362.394 C 1180.41 361.303 1179.142 358.286 1180.241 355.632 Z " fill="rgb(230,239,194)"/></g></svg>