<?xml version="1.0" encoding="UTF-8" standalone="no"?><!-- Generator: Gravit.io --><svg xmlns="http://www.w3.org/2000/svg" xmlns:xlink="http://www.w3.org/1999/xlink" style="isolation:isolate" viewBox="0 0 950 550" width="950pt" height="550pt"><defs><clipPath id="_clipPath_3CL74NWSC9FP8fVDD6nHWluTq7zkBhEV"><rect width="950" height="550"/></clipPath></defs><g clip-path="url(#_clipPath_3CL74NWSC9FP8fVDD6nHWluTq7zkBhEV)"><rect x="0" y="0" width="945.6" height="531.64" transform="matrix(1,0,0,1,0,0)" fill="none"/><rect x="-15.229" y="12.46" width="576.214" height="360.134" transform="matrix(1,0,0,1,0,0)" fill="none"/><rect x="-15.229" y="12.46" width="576.214" height="360.134" transform="matrix(1,0,0,1,0,0)" fill="none"/><path d=" M 17.635 201.13 L 17.635 201.13 C 17.997 200.234 19.018 199.801 19.914 200.163 L 75.101 222.46 C 75.998 222.822 76.431 223.843 76.069 224.739 L 76.069 224.739 C 75.707 225.635 74.686 226.068 73.79 225.706 L 18.602 203.409 C 17.706 203.046 17.273 202.026 17.635 201.13 Z " fill="rgb(230,239,194)"/><path d=" M 24.75 211.558 L 24.75 211.558 C 25.112 210.661 26.133 210.228 27.029 210.591 L 62.739 225.017 C 63.635 225.38 64.069 226.401 63.707 227.297 L 63.707 227.297 C 63.345 228.193 62.323 228.626 61.427 228.264 L 25.718 213.836 C 24.822 213.474 24.389 212.453 24.75 211.558 Z " fill="rgb(230,239,194)"/><path d=" M 28.127 175.159 L 28.127 175.159 C 28.489 174.263 29.511 173.83 30.407 174.191 L 85.594 196.489 C 86.49 196.851 86.924 197.872 86.562 198.768 L 86.562 198.768 C 86.2 199.664 85.179 200.098 84.283 199.736 L 29.095 177.438 C 28.199 177.076 27.765 176.055 28.127 175.159 Z " fill="rgb(230,239,194)"/><path d=" M 35.243 185.587 L 35.243 185.587 C 35.605 184.691 36.626 184.257 37.522 184.619 L 73.232 199.047 C 74.128 199.409 74.562 200.43 74.2 201.326 L 74.2 201.326 C 73.838 202.221 72.816 202.655 71.92 202.293 L 36.21 187.866 C 35.315 187.504 34.881 186.483 35.243 185.587 Z " fill="rgb(230,239,194)"/><path d=" M 31.867 221.985 L 31.867 221.985 C 32.229 221.089 33.249 220.656 34.145 221.018 L 50.377 227.575 C 51.273 227.937 51.706 228.959 51.344 229.855 L 51.344 229.855 C 50.982 230.751 49.961 231.184 49.065 230.822 L 32.834 224.264 C 31.938 223.902 31.505 222.881 31.867 221.985 Z " fill="rgb(230,239,194)"/><path d=" M 34.866 200.539 L 34.866 200.539 C 35.228 199.643 36.25 199.21 37.146 199.572 L 63.116 210.065 C 64.012 210.427 64.445 211.448 64.083 212.344 L 64.083 212.344 C 63.721 213.24 62.7 213.674 61.805 213.312 L 35.834 202.819 C 34.938 202.457 34.505 201.435 34.866 200.539 Z " fill="rgb(230,239,194)"/><path d=" M 47.229 197.981 L 47.229 197.981 C 47.591 197.086 48.612 196.652 49.508 197.014 L 57.623 200.293 C 58.519 200.655 58.953 201.677 58.591 202.572 L 58.591 202.572 C 58.229 203.468 57.207 203.901 56.312 203.54 L 48.197 200.261 C 47.3 199.899 46.867 198.877 47.229 197.981 Z " fill="rgb(230,239,194)"/><path d=" M 45.359 174.568 L 45.359 174.568 C 45.721 173.673 46.743 173.239 47.639 173.601 L 73.609 184.094 C 74.505 184.456 74.938 185.477 74.576 186.373 L 74.576 186.373 C 74.214 187.269 73.193 187.702 72.298 187.34 L 46.327 176.847 C 45.431 176.485 44.998 175.465 45.359 174.568 Z " fill="rgb(230,239,194)"/><path d=" M 57.722 172.011 L 57.722 172.011 C 58.084 171.115 59.105 170.681 60.001 171.044 L 68.116 174.323 C 69.012 174.685 69.446 175.705 69.084 176.602 L 69.084 176.602 C 68.722 177.497 67.7 177.931 66.805 177.569 L 58.69 174.289 C 57.793 173.927 57.36 172.907 57.722 172.011 Z " fill="rgb(230,239,194)"/><path d=" M 110.186 162.662 L 110.186 162.662 C 110.549 161.766 111.57 161.333 112.465 161.696 L 167.636 184.038 C 168.531 184.401 168.963 185.423 168.601 186.319 L 168.601 186.319 C 168.239 187.214 167.217 187.646 166.321 187.283 L 111.151 164.941 C 110.256 164.579 109.823 163.558 110.186 162.662 Z " fill="rgb(230,239,194)"/><path d=" M 117.293 173.095 L 117.293 173.095 C 117.656 172.2 118.677 171.767 119.573 172.13 L 155.272 186.586 C 156.167 186.949 156.599 187.97 156.237 188.866 L 156.237 188.866 C 155.874 189.762 154.853 190.194 153.957 189.832 L 118.259 175.375 C 117.363 175.012 116.93 173.991 117.293 173.095 Z " fill="rgb(230,239,194)"/><path d=" M 120.7 136.699 L 120.7 136.699 C 121.062 135.804 122.084 135.372 122.979 135.734 L 178.149 158.076 C 179.045 158.439 179.478 159.46 179.115 160.356 L 179.115 160.356 C 178.752 161.251 177.731 161.684 176.836 161.321 L 121.665 138.979 C 120.77 138.617 120.337 137.595 120.7 136.699 Z " fill="rgb(230,239,194)"/><path d=" M 127.807 147.133 L 127.807 147.133 C 128.17 146.237 129.191 145.804 130.086 146.167 L 165.785 160.624 C 166.681 160.987 167.114 162.008 166.75 162.903 L 166.75 162.903 C 166.388 163.799 165.366 164.232 164.471 163.869 L 128.773 149.412 C 127.877 149.05 127.444 148.029 127.807 147.133 Z " fill="rgb(230,239,194)"/><path d=" M 124.4 183.529 L 124.4 183.529 C 124.763 182.633 125.785 182.2 126.68 182.563 L 142.907 189.134 C 143.803 189.497 144.235 190.518 143.872 191.413 L 143.872 191.413 C 143.51 192.31 142.489 192.742 141.592 192.379 L 125.366 185.808 C 124.47 185.446 124.038 184.424 124.4 183.529 Z " fill="rgb(230,239,194)"/><path d=" M 127.418 162.085 L 127.418 162.085 C 127.781 161.19 128.802 160.758 129.697 161.12 L 155.661 171.634 C 156.556 171.996 156.988 173.018 156.626 173.914 L 156.626 173.914 C 156.263 174.809 155.242 175.241 154.346 174.879 L 128.384 164.365 C 127.488 164.003 127.055 162.98 127.418 162.085 Z " fill="rgb(230,239,194)"/><path d=" M 139.783 159.537 L 139.783 159.537 C 140.145 158.642 141.166 158.209 142.062 158.571 L 150.175 161.858 C 151.071 162.22 151.504 163.242 151.141 164.137 L 151.141 164.137 C 150.778 165.033 149.756 165.465 148.861 165.103 L 140.748 161.817 C 139.852 161.455 139.419 160.433 139.783 159.537 Z " fill="rgb(230,239,194)"/><path d=" M 137.932 136.123 L 137.932 136.123 C 138.294 135.227 139.316 134.795 140.212 135.158 L 166.174 145.672 C 167.07 146.034 167.502 147.055 167.139 147.951 L 167.139 147.951 C 166.777 148.847 165.756 149.28 164.86 148.917 L 138.897 138.403 C 138.002 138.04 137.57 137.019 137.932 136.123 Z " fill="rgb(230,239,194)"/><path d=" M 150.296 133.575 L 150.296 133.575 C 150.659 132.68 151.68 132.247 152.576 132.61 L 160.689 135.895 C 161.585 136.258 162.017 137.28 161.655 138.175 L 161.655 138.175 C 161.293 139.07 160.27 139.503 159.375 139.14 L 151.261 135.855 C 150.366 135.492 149.934 134.47 150.296 133.575 Z " fill="rgb(230,239,194)"/><path d=" M 259.571 333.449 L 259.571 333.449 C 259.934 332.554 260.955 332.121 261.851 332.484 L 317.021 354.826 C 317.917 355.188 318.349 356.209 317.987 357.106 L 317.987 357.106 C 317.624 358.001 316.602 358.434 315.707 358.071 L 260.537 335.729 C 259.641 335.367 259.209 334.344 259.571 333.449 Z " fill="rgb(230,239,194)"/><path d=" M 266.679 343.882 L 266.679 343.882 C 267.041 342.987 268.063 342.554 268.958 342.917 L 304.657 357.373 C 305.552 357.737 305.985 358.758 305.623 359.653 L 305.623 359.653 C 305.26 360.549 304.238 360.982 303.343 360.619 L 267.644 346.162 C 266.748 345.8 266.316 344.778 266.679 343.882 Z " fill="rgb(230,239,194)"/><path d=" M 270.085 307.487 L 270.085 307.487 C 270.448 306.591 271.47 306.159 272.365 306.522 L 327.535 328.863 C 328.431 329.226 328.863 330.248 328.5 331.143 L 328.5 331.143 C 328.138 332.039 327.117 332.472 326.221 332.108 L 271.051 309.767 C 270.155 309.404 269.722 308.383 270.085 307.487 Z " fill="rgb(230,239,194)"/><path d=" M 277.192 317.92 L 277.192 317.92 C 277.555 317.025 278.577 316.592 279.473 316.955 L 315.171 331.411 C 316.066 331.774 316.499 332.796 316.136 333.691 L 316.136 333.691 C 315.774 334.587 314.752 335.019 313.856 334.657 L 278.158 320.2 C 277.263 319.837 276.83 318.816 277.192 317.92 Z " fill="rgb(230,239,194)"/><path d=" M 273.786 354.316 L 273.786 354.316 C 274.149 353.42 275.17 352.988 276.066 353.351 L 292.292 359.921 C 293.188 360.284 293.621 361.306 293.258 362.201 L 293.258 362.201 C 292.895 363.097 291.874 363.529 290.978 363.166 L 274.751 356.596 C 273.856 356.233 273.424 355.211 273.786 354.316 Z " fill="rgb(230,239,194)"/><path d=" M 276.803 332.873 L 276.803 332.873 C 277.167 331.977 278.188 331.545 279.084 331.907 L 305.046 342.421 C 305.942 342.784 306.374 343.805 306.012 344.701 L 306.012 344.701 C 305.648 345.597 304.627 346.029 303.731 345.667 L 277.769 335.152 C 276.874 334.79 276.441 333.768 276.803 332.873 Z " fill="rgb(230,239,194)"/><path d=" M 289.168 330.325 L 289.168 330.325 C 289.531 329.429 290.552 328.997 291.448 329.36 L 299.561 332.645 C 300.456 333.008 300.889 334.029 300.526 334.924 L 300.526 334.924 C 300.164 335.82 299.142 336.253 298.247 335.89 L 290.134 332.605 C 289.238 332.242 288.805 331.22 289.168 330.325 Z " fill="rgb(230,239,194)"/><path d=" M 287.318 306.911 L 287.318 306.911 C 287.68 306.014 288.702 305.582 289.597 305.945 L 315.56 316.459 C 316.455 316.822 316.888 317.843 316.525 318.739 L 316.525 318.739 C 316.163 319.634 315.141 320.067 314.245 319.704 L 288.283 309.19 C 287.388 308.828 286.955 307.806 287.318 306.911 Z " fill="rgb(230,239,194)"/><path d=" M 299.682 304.363 L 299.682 304.363 C 300.045 303.467 301.066 303.034 301.961 303.397 L 310.075 306.682 C 310.97 307.045 311.403 308.067 311.041 308.963 L 311.041 308.963 C 310.678 309.858 309.656 310.29 308.761 309.928 L 300.647 306.642 C 299.752 306.28 299.319 305.258 299.682 304.363 Z " fill="rgb(230,239,194)"/><path d=" M 470.32 61.998 L 470.32 61.998 C 470.682 61.103 471.704 60.67 472.599 61.033 L 527.77 83.374 C 528.665 83.738 529.098 84.759 528.736 85.654 L 528.736 85.654 C 528.372 86.55 527.351 86.983 526.456 86.62 L 471.285 64.278 C 470.39 63.915 469.958 62.893 470.32 61.998 Z " fill="rgb(230,239,194)"/><path d=" M 477.428 72.431 L 477.428 72.431 C 477.79 71.536 478.811 71.103 479.707 71.466 L 515.405 85.922 C 516.301 86.285 516.734 87.307 516.371 88.202 L 516.371 88.202 C 516.008 89.098 514.987 89.53 514.091 89.167 L 478.393 74.711 C 477.498 74.349 477.065 73.327 477.428 72.431 Z " fill="rgb(230,239,194)"/><path d=" M 480.834 36.036 L 480.834 36.036 C 481.196 35.14 482.218 34.708 483.114 35.07 L 538.283 57.412 C 539.18 57.775 539.612 58.797 539.249 59.692 L 539.249 59.692 C 538.886 60.588 537.865 61.02 536.969 60.658 L 481.8 38.315 C 480.904 37.953 480.471 36.932 480.834 36.036 Z " fill="rgb(230,239,194)"/><path d=" M 487.941 46.469 L 487.941 46.469 C 488.304 45.574 489.325 45.141 490.221 45.504 L 525.919 59.96 C 526.815 60.322 527.247 61.344 526.885 62.24 L 526.885 62.24 C 526.522 63.135 525.5 63.568 524.605 63.206 L 488.907 48.749 C 488.011 48.386 487.579 47.364 487.941 46.469 Z " fill="rgb(230,239,194)"/><path d=" M 484.535 82.865 L 484.535 82.865 C 484.898 81.969 485.919 81.536 486.814 81.899 L 503.041 88.47 C 503.936 88.833 504.369 89.855 504.006 90.75 L 504.006 90.75 C 503.644 91.646 502.622 92.078 501.727 91.716 L 485.501 85.144 C 484.605 84.781 484.172 83.76 484.535 82.865 Z " fill="rgb(230,239,194)"/><path d=" M 487.552 61.422 L 487.552 61.422 C 487.915 60.526 488.937 60.093 489.832 60.456 L 515.794 70.97 C 516.69 71.333 517.123 72.354 516.76 73.249 L 516.76 73.249 C 516.397 74.145 515.376 74.578 514.48 74.215 L 488.518 63.701 C 487.622 63.339 487.19 62.318 487.552 61.422 Z " fill="rgb(230,239,194)"/><path d=" M 499.916 58.874 L 499.916 58.874 C 500.279 57.978 501.301 57.545 502.196 57.909 L 510.31 61.194 C 511.205 61.557 511.637 62.578 511.275 63.474 L 511.275 63.474 C 510.913 64.369 509.891 64.802 508.996 64.439 L 500.882 61.154 C 499.986 60.79 499.554 59.769 499.916 58.874 Z " fill="rgb(230,239,194)"/><path d=" M 498.066 35.459 L 498.066 35.459 C 498.429 34.564 499.451 34.131 500.346 34.494 L 526.308 45.007 C 527.204 45.37 527.636 46.392 527.274 47.288 L 527.274 47.288 C 526.911 48.183 525.889 48.615 524.994 48.253 L 499.032 37.739 C 498.136 37.376 497.703 36.355 498.066 35.459 Z " fill="rgb(230,239,194)"/><path d=" M 510.43 32.911 L 510.43 32.911 C 510.793 32.015 511.815 31.583 512.71 31.945 L 520.823 35.232 C 521.719 35.594 522.152 36.615 521.789 37.511 L 521.789 37.511 C 521.426 38.407 520.405 38.84 519.509 38.477 L 511.396 35.191 C 510.501 34.828 510.068 33.807 510.43 32.911 Z " fill="rgb(230,239,194)"/><path d=" M 470.32 61.998 L 470.32 61.998 C 470.682 61.103 471.704 60.67 472.599 61.033 L 527.77 83.374 C 528.665 83.738 529.098 84.759 528.735 85.654 L 528.735 85.654 C 528.372 86.55 527.351 86.983 526.456 86.62 L 471.285 64.278 C 470.39 63.915 469.958 62.893 470.32 61.998 Z " fill="rgb(230,239,194)"/><path d=" M 477.428 72.431 L 477.428 72.431 C 477.79 71.536 478.811 71.103 479.707 71.466 L 515.405 85.922 C 516.301 86.285 516.734 87.307 516.371 88.202 L 516.371 88.202 C 516.008 89.098 514.986 89.53 514.091 89.167 L 478.393 74.711 C 477.498 74.349 477.065 73.327 477.428 72.431 Z " fill="rgb(230,239,194)"/><path d=" M 480.834 36.036 L 480.834 36.036 C 481.196 35.14 482.218 34.708 483.114 35.07 L 538.283 57.412 C 539.18 57.775 539.612 58.797 539.249 59.692 L 539.249 59.692 C 538.886 60.588 537.865 61.02 536.969 60.658 L 481.8 38.315 C 480.904 37.953 480.471 36.932 480.834 36.036 Z " fill="rgb(230,239,194)"/><path d=" M 487.941 46.469 L 487.941 46.469 C 488.304 45.574 489.325 45.141 490.221 45.504 L 525.919 59.96 C 526.815 60.322 527.247 61.344 526.885 62.24 L 526.885 62.24 C 526.522 63.135 525.5 63.568 524.605 63.206 L 488.907 48.749 C 488.011 48.386 487.579 47.364 487.941 46.469 Z " fill="rgb(230,239,194)"/><path d=" M 484.535 82.865 L 484.535 82.865 C 484.898 81.969 485.919 81.536 486.814 81.899 L 503.041 88.47 C 503.936 88.833 504.369 89.855 504.006 90.75 L 504.006 90.75 C 503.644 91.646 502.622 92.078 501.727 91.716 L 485.501 85.144 C 484.605 84.781 484.172 83.76 484.535 82.865 Z " fill="rgb(230,239,194)"/><path d=" M 487.552 61.422 L 487.552 61.422 C 487.915 60.526 488.937 60.093 489.832 60.456 L 515.794 70.97 C 516.69 71.333 517.123 72.354 516.76 73.249 L 516.76 73.249 C 516.397 74.145 515.376 74.578 514.48 74.215 L 488.518 63.701 C 487.622 63.339 487.19 62.318 487.552 61.422 Z " fill="rgb(230,239,194)"/><path d=" M 499.916 58.874 L 499.916 58.874 C 500.279 57.978 501.301 57.545 502.196 57.909 L 510.31 61.194 C 511.205 61.557 511.637 62.578 511.275 63.474 L 511.275 63.474 C 510.913 64.369 509.891 64.802 508.996 64.439 L 500.882 61.154 C 499.986 60.79 499.554 59.769 499.916 58.874 Z " fill="rgb(230,239,194)"/><path d=" M 498.066 35.459 L 498.066 35.459 C 498.429 34.564 499.451 34.131 500.346 34.494 L 526.308 45.007 C 527.204 45.37 527.636 46.392 527.274 47.288 L 527.274 47.288 C 526.911 48.183 525.889 48.615 524.994 48.253 L 499.032 37.739 C 498.136 37.376 497.703 36.355 498.066 35.459 Z " fill="rgb(230,239,194)"/><path d=" M 510.43 32.911 L 510.43 32.911 C 510.793 32.015 511.815 31.583 512.71 31.945 L 520.823 35.232 C 521.719 35.594 522.152 36.615 521.789 37.511 L 521.789 37.511 C 521.426 38.407 520.405 38.84 519.509 38.477 L 511.396 35.191 C 510.501 34.828 510.068 33.807 510.43 32.911 Z " fill="rgb(230,239,194)"/><path d=" M 363.35 245.666 L 363.35 245.666 C 363.713 244.771 364.734 244.338 365.629 244.701 L 420.8 267.043 C 421.695 267.405 422.128 268.427 421.765 269.323 L 421.765 269.323 C 421.403 270.218 420.381 270.651 419.486 270.289 L 364.316 247.947 C 363.42 247.584 362.987 246.562 363.35 245.666 Z " fill="rgb(230,239,194)"/><path d=" M 370.457 256.1 L 370.457 256.1 C 370.82 255.204 371.842 254.771 372.737 255.135 L 408.436 269.591 C 409.331 269.954 409.764 270.975 409.401 271.871 L 409.401 271.871 C 409.038 272.766 408.017 273.199 407.121 272.836 L 371.423 258.38 C 370.528 258.017 370.094 256.996 370.457 256.1 Z " fill="rgb(230,239,194)"/><path d=" M 373.864 219.704 L 373.864 219.704 C 374.226 218.809 375.248 218.376 376.143 218.739 L 431.314 241.081 C 432.209 241.444 432.642 242.465 432.279 243.36 L 432.279 243.36 C 431.916 244.256 430.895 244.689 429.999 244.326 L 374.829 221.984 C 373.934 221.621 373.502 220.6 373.864 219.704 Z " fill="rgb(230,239,194)"/><path d=" M 380.972 230.137 L 380.972 230.137 C 381.334 229.242 382.355 228.809 383.251 229.172 L 418.949 243.628 C 419.845 243.991 420.278 245.013 419.914 245.909 L 419.914 245.909 C 419.552 246.804 418.53 247.236 417.635 246.874 L 381.937 232.418 C 381.041 232.054 380.609 231.033 380.972 230.137 Z " fill="rgb(230,239,194)"/><path d=" M 377.564 266.533 L 377.564 266.533 C 377.927 265.637 378.949 265.205 379.845 265.568 L 396.071 272.139 C 396.966 272.502 397.399 273.523 397.036 274.419 L 397.036 274.419 C 396.674 275.314 395.653 275.747 394.757 275.384 L 378.53 268.813 C 377.635 268.45 377.202 267.428 377.564 266.533 Z " fill="rgb(230,239,194)"/><path d=" M 380.582 245.09 L 380.582 245.09 C 380.945 244.195 381.966 243.762 382.862 244.124 L 408.825 254.638 C 409.72 255.001 410.153 256.023 409.79 256.918 L 409.79 256.918 C 409.427 257.814 408.406 258.246 407.51 257.884 L 381.548 247.369 C 380.652 247.007 380.22 245.985 380.582 245.09 Z " fill="rgb(230,239,194)"/><path d=" M 392.947 242.542 L 392.947 242.542 C 393.309 241.646 394.33 241.214 395.226 241.577 L 403.339 244.862 C 404.235 245.225 404.668 246.246 404.305 247.141 L 404.305 247.141 C 403.943 248.038 402.92 248.47 402.025 248.107 L 393.912 244.822 C 393.017 244.459 392.584 243.438 392.947 242.542 Z " fill="rgb(230,239,194)"/><path d=" M 391.096 219.128 L 391.096 219.128 C 391.459 218.232 392.481 217.8 393.376 218.162 L 419.338 228.676 C 420.234 229.039 420.666 230.06 420.304 230.956 L 420.304 230.956 C 419.941 231.851 418.919 232.284 418.024 231.921 L 392.062 221.407 C 391.166 221.045 390.734 220.023 391.096 219.128 Z " fill="rgb(230,239,194)"/><path d=" M 403.46 216.58 L 403.46 216.58 C 403.823 215.684 404.845 215.251 405.74 215.614 L 413.854 218.9 C 414.749 219.262 415.181 220.284 414.819 221.18 L 414.819 221.18 C 414.457 222.075 413.435 222.507 412.539 222.145 L 404.426 218.859 C 403.53 218.497 403.098 217.476 403.46 216.58 Z " fill="rgb(230,239,194)"/><path d=" M 12.95 326.247 L 12.95 326.247 C 13.312 325.351 14.334 324.918 15.229 325.281 L 70.399 347.623 C 71.295 347.986 71.727 349.007 71.365 349.903 L 71.365 349.903 C 71.002 350.798 69.981 351.231 69.085 350.869 L 13.915 328.526 C 13.02 328.164 12.587 327.142 12.95 326.247 Z " fill="rgb(230,239,194)"/><path d=" M 20.057 336.68 L 20.057 336.68 C 20.42 335.784 21.441 335.352 22.337 335.714 L 58.035 350.171 C 58.93 350.534 59.363 351.555 59 352.451 L 59 352.451 C 58.638 353.346 57.617 353.779 56.721 353.416 L 21.022 338.96 C 20.127 338.597 19.694 337.576 20.057 336.68 Z " fill="rgb(230,239,194)"/><path d=" M 23.463 300.284 L 23.463 300.284 C 23.826 299.389 24.848 298.956 25.743 299.319 L 80.913 321.66 C 81.809 322.024 82.242 323.045 81.879 323.941 L 81.879 323.941 C 81.516 324.836 80.494 325.269 79.599 324.906 L 24.429 302.564 C 23.533 302.202 23.101 301.18 23.463 300.284 Z " fill="rgb(230,239,194)"/><path d=" M 30.571 310.718 L 30.571 310.718 C 30.933 309.822 31.955 309.389 32.85 309.752 L 68.549 324.209 C 69.445 324.571 69.877 325.593 69.514 326.488 L 69.514 326.488 C 69.151 327.384 68.13 327.817 67.235 327.454 L 31.536 312.997 C 30.641 312.634 30.208 311.613 30.571 310.718 Z " fill="rgb(230,239,194)"/><path d=" M 27.164 347.113 L 27.164 347.113 C 27.527 346.218 28.549 345.785 29.444 346.148 L 45.671 352.718 C 46.566 353.081 46.999 354.103 46.636 354.998 L 46.636 354.998 C 46.273 355.894 45.252 356.327 44.356 355.964 L 28.13 349.393 C 27.234 349.03 26.801 348.008 27.164 347.113 Z " fill="rgb(230,239,194)"/><path d=" M 30.182 325.67 L 30.182 325.67 C 30.544 324.775 31.566 324.342 32.461 324.704 L 58.424 335.219 C 59.319 335.581 59.752 336.602 59.389 337.498 L 59.389 337.498 C 59.027 338.394 58.006 338.827 57.11 338.464 L 31.147 327.949 C 30.252 327.587 29.819 326.566 30.182 325.67 Z " fill="rgb(230,239,194)"/><path d=" M 42.546 323.122 L 42.546 323.122 C 42.909 322.227 43.93 321.794 44.826 322.157 L 52.939 325.442 C 53.835 325.805 54.267 326.827 53.905 327.722 L 53.905 327.722 C 53.542 328.617 52.52 329.05 51.625 328.687 L 43.511 325.402 C 42.616 325.039 42.183 324.018 42.546 323.122 Z " fill="rgb(230,239,194)"/><path d=" M 40.695 299.708 L 40.695 299.708 C 41.058 298.812 42.08 298.38 42.976 298.742 L 68.937 309.256 C 69.833 309.619 70.266 310.64 69.903 311.536 L 69.903 311.536 C 69.54 312.432 68.519 312.864 67.624 312.501 L 41.661 301.988 C 40.766 301.625 40.333 300.603 40.695 299.708 Z " fill="rgb(230,239,194)"/><path d=" M 53.06 297.16 L 53.06 297.16 C 53.423 296.264 54.444 295.832 55.34 296.194 L 63.453 299.48 C 64.349 299.842 64.781 300.864 64.418 301.76 L 64.418 301.76 C 64.056 302.655 63.034 303.088 62.139 302.726 L 54.025 299.44 C 53.13 299.077 52.697 298.055 53.06 297.16 Z " fill="rgb(230,239,194)"/><path d=" M 294.164 55.992 L 294.164 55.992 C 294.527 55.096 295.548 54.663 296.444 55.026 L 351.614 77.368 C 352.509 77.731 352.942 78.753 352.579 79.648 L 352.579 79.648 C 352.217 80.544 351.195 80.976 350.3 80.613 L 295.13 58.271 C 294.234 57.909 293.801 56.888 294.164 55.992 Z " fill="rgb(230,239,194)"/><path d=" M 301.271 66.425 L 301.271 66.425 C 301.635 65.53 302.656 65.097 303.551 65.46 L 339.25 79.916 C 340.145 80.279 340.578 81.3 340.215 82.196 L 340.215 82.196 C 339.853 83.092 338.831 83.524 337.936 83.162 L 302.237 68.705 C 301.342 68.342 300.909 67.321 301.271 66.425 Z " fill="rgb(230,239,194)"/><path d=" M 304.678 30.029 L 304.678 30.029 C 305.04 29.134 306.062 28.702 306.958 29.064 L 362.128 51.406 C 363.023 51.768 363.456 52.79 363.094 53.686 L 363.094 53.686 C 362.73 54.581 361.709 55.014 360.814 54.652 L 305.643 32.309 C 304.748 31.947 304.316 30.925 304.678 30.029 Z " fill="rgb(230,239,194)"/><path d=" M 311.786 40.463 L 311.786 40.463 C 312.148 39.567 313.17 39.134 314.065 39.497 L 349.763 53.954 C 350.659 54.317 351.092 55.338 350.729 56.233 L 350.729 56.233 C 350.366 57.129 349.345 57.562 348.449 57.199 L 312.751 42.742 C 311.856 42.38 311.423 41.359 311.786 40.463 Z " fill="rgb(230,239,194)"/><path d=" M 308.379 76.859 L 308.379 76.859 C 308.742 75.963 309.764 75.53 310.659 75.893 L 326.885 82.464 C 327.781 82.827 328.214 83.848 327.85 84.744 L 327.85 84.744 C 327.488 85.64 326.467 86.072 325.571 85.71 L 309.345 79.138 C 308.449 78.776 308.016 77.754 308.379 76.859 Z " fill="rgb(230,239,194)"/><path d=" M 311.397 55.415 L 311.397 55.415 C 311.759 54.52 312.781 54.087 313.676 54.45 L 339.639 64.964 C 340.534 65.326 340.967 66.348 340.604 67.244 L 340.604 67.244 C 340.242 68.139 339.22 68.571 338.324 68.209 L 312.362 57.695 C 311.467 57.333 311.034 56.311 311.397 55.415 Z " fill="rgb(230,239,194)"/><path d=" M 323.761 52.867 L 323.761 52.867 C 324.123 51.972 325.145 51.539 326.041 51.902 L 334.154 55.187 C 335.049 55.55 335.482 56.572 335.12 57.467 L 335.12 57.467 C 334.757 58.363 333.735 58.795 332.839 58.433 L 324.726 55.147 C 323.831 54.785 323.398 53.764 323.761 52.867 Z " fill="rgb(230,239,194)"/><path d=" M 321.91 29.453 L 321.91 29.453 C 322.273 28.558 323.295 28.125 324.19 28.488 L 350.152 39.002 C 351.048 39.364 351.481 40.385 351.118 41.281 L 351.118 41.281 C 350.755 42.177 349.734 42.609 348.838 42.247 L 322.876 31.733 C 321.98 31.37 321.548 30.348 321.91 29.453 Z " fill="rgb(230,239,194)"/><path d=" M 334.274 26.905 L 334.274 26.905 C 334.637 26.01 335.659 25.577 336.554 25.94 L 344.668 29.225 C 345.563 29.588 345.996 30.609 345.633 31.505 L 345.633 31.505 C 345.271 32.4 344.249 32.833 343.354 32.47 L 335.24 29.185 C 334.345 28.822 333.912 27.8 334.274 26.905 Z " fill="rgb(230,239,194)"/><path d=" M 470.32 222.696 L 470.32 222.696 C 470.682 221.801 471.704 221.368 472.599 221.73 L 527.77 244.073 C 528.665 244.435 529.098 245.457 528.736 246.352 L 528.736 246.352 C 528.372 247.247 527.351 247.681 526.456 247.318 L 471.285 224.976 C 470.39 224.613 469.958 223.591 470.32 222.696 Z " fill="rgb(230,239,194)"/><path d=" M 477.428 233.129 L 477.428 233.129 C 477.79 232.233 478.811 231.801 479.707 232.163 L 515.405 246.62 C 516.301 246.983 516.734 248.005 516.371 248.9 L 516.371 248.9 C 516.008 249.796 514.987 250.228 514.091 249.865 L 478.393 235.409 C 477.498 235.046 477.065 234.025 477.428 233.129 Z " fill="rgb(230,239,194)"/><path d=" M 480.834 196.734 L 480.834 196.734 C 481.196 195.838 482.218 195.406 483.114 195.768 L 538.283 218.11 C 539.18 218.473 539.612 219.494 539.249 220.39 L 539.249 220.39 C 538.886 221.286 537.865 221.718 536.969 221.356 L 481.8 199.013 C 480.904 198.651 480.471 197.629 480.834 196.734 Z " fill="rgb(230,239,194)"/><path d=" M 487.941 207.167 L 487.941 207.167 C 488.304 206.272 489.325 205.839 490.221 206.201 L 525.919 220.658 C 526.815 221.021 527.247 222.042 526.885 222.937 L 526.885 222.937 C 526.522 223.834 525.5 224.266 524.605 223.903 L 488.907 209.446 C 488.011 209.084 487.579 208.062 487.941 207.167 Z " fill="rgb(230,239,194)"/><path d=" M 484.535 243.563 L 484.535 243.563 C 484.898 242.667 485.919 242.234 486.814 242.597 L 503.041 249.168 C 503.936 249.531 504.369 250.552 504.006 251.448 L 504.006 251.448 C 503.644 252.344 502.622 252.776 501.727 252.414 L 485.501 245.842 C 484.605 245.479 484.172 244.458 484.535 243.563 Z " fill="rgb(230,239,194)"/><path d=" M 487.552 222.12 L 487.552 222.12 C 487.915 221.224 488.937 220.791 489.832 221.154 L 515.794 231.668 C 516.69 232.031 517.123 233.052 516.76 233.947 L 516.76 233.947 C 516.397 234.843 515.376 235.276 514.48 234.913 L 488.518 224.399 C 487.622 224.037 487.19 223.015 487.552 222.12 Z " fill="rgb(230,239,194)"/><path d=" M 499.916 219.572 L 499.916 219.572 C 500.279 218.676 501.301 218.243 502.196 218.606 L 510.31 221.891 C 511.205 222.254 511.637 223.276 511.275 224.172 L 511.275 224.172 C 510.913 225.067 509.891 225.499 508.996 225.137 L 500.882 221.851 C 499.986 221.488 499.554 220.467 499.916 219.572 Z " fill="rgb(230,239,194)"/><path d=" M 498.066 196.157 L 498.066 196.157 C 498.429 195.262 499.451 194.829 500.346 195.192 L 526.308 205.705 C 527.204 206.068 527.636 207.089 527.274 207.986 L 527.274 207.986 C 526.911 208.881 525.889 209.313 524.994 208.951 L 499.032 198.437 C 498.136 198.074 497.703 197.052 498.066 196.157 Z " fill="rgb(230,239,194)"/><path d=" M 510.43 193.609 L 510.43 193.609 C 510.793 192.714 511.815 192.281 512.71 192.644 L 520.823 195.93 C 521.719 196.292 522.152 197.313 521.789 198.209 L 521.789 198.209 C 521.426 199.105 520.405 199.538 519.509 199.175 L 511.396 195.889 C 510.501 195.527 510.068 194.505 510.43 193.609 Z " fill="rgb(230,239,194)"/><path d=" M 165.303 263.247 C 168.234 264.461 171.543 263.44 173.343 260.992 L 187.661 266.921 C 188.462 267.253 189.39 266.868 189.722 266.067 C 190.055 265.264 189.67 264.337 188.868 264.005 L 174.551 258.075 C 175.036 254.995 173.344 251.984 170.461 250.797 C 167.53 249.583 164.221 250.603 162.421 253.052 L 147.608 246.918 C 146.806 246.586 145.879 246.97 145.546 247.772 C 145.214 248.574 145.599 249.501 146.4 249.834 L 161.213 255.968 C 160.734 259.048 162.424 262.055 165.303 263.247 L 165.303 263.247 Z  M 164.558 255.646 C 165.312 253.823 167.416 252.951 169.238 253.706 C 171.06 254.461 171.932 256.564 171.177 258.386 C 170.422 260.209 168.32 261.08 166.497 260.325 C 164.674 259.571 163.803 257.468 164.558 255.646 Z  M 160.047 270.003 L 182.514 279.307 C 183.316 279.639 184.243 279.255 184.575 278.453 C 184.908 277.651 184.524 276.724 183.721 276.391 L 161.254 267.087 C 161.734 264.074 160.108 261.028 157.163 259.807 C 154.219 258.588 150.924 259.615 149.124 262.063 L 142.475 259.31 C 141.674 258.978 140.746 259.362 140.414 260.164 C 140.082 260.966 140.466 261.895 141.268 262.226 L 147.916 264.979 C 147.437 267.992 149.062 271.039 152.007 272.259 C 154.952 273.478 158.256 272.472 160.047 270.003 L 160.047 270.003 Z  M 151.276 264.663 C 152.03 262.84 154.133 261.969 155.956 262.724 C 157.778 263.478 158.65 265.581 157.895 267.404 C 157.14 269.226 155.038 270.098 153.215 269.343 C 151.392 268.588 150.521 266.485 151.276 264.663 Z  M 162.499 291.138 C 165.429 292.352 168.738 291.331 170.538 288.883 L 177.375 291.714 C 178.177 292.046 179.105 291.662 179.437 290.861 C 179.769 290.058 179.385 289.131 178.583 288.798 L 171.745 285.967 C 172.231 282.886 170.538 279.875 167.654 278.688 C 164.724 277.474 161.414 278.494 159.615 280.943 L 137.338 271.717 C 136.536 271.386 135.608 271.769 135.275 272.572 C 134.944 273.373 135.328 274.302 136.13 274.634 L 158.422 283.865 C 157.943 286.939 159.626 289.943 162.499 291.138 L 162.499 291.138 Z  M 161.772 283.528 C 162.528 281.705 164.631 280.834 166.453 281.589 C 168.275 282.343 169.147 284.447 168.392 286.269 C 167.638 288.091 165.534 288.962 163.712 288.208 C 161.883 287.468 161.012 285.365 161.772 283.528 Z  M 145.076 298.356 C 147.926 299.531 151.209 298.628 153.056 296.161 L 172.243 304.107 C 173.045 304.439 173.973 304.055 174.305 303.253 C 174.637 302.451 174.253 301.523 173.451 301.191 L 154.308 293.263 C 154.829 290.233 153.199 287.116 150.239 285.89 C 147.279 284.665 143.943 285.709 142.149 288.228 L 132.205 284.11 C 131.403 283.778 130.475 284.162 130.144 284.964 C 129.812 285.766 130.196 286.694 130.998 287.026 L 140.971 291.156 C 140.559 294.128 142.175 297.154 145.076 298.356 L 145.076 298.356 Z  M 144.351 290.746 C 145.106 288.923 147.209 288.051 149.032 288.807 C 150.854 289.561 151.725 291.664 150.971 293.486 C 150.215 295.309 148.113 296.18 146.29 295.425 C 144.468 294.671 143.591 292.583 144.351 290.746 Z " fill="rgb(230,239,194)"/><path d=" M 52.785 34.37 C 55.716 35.585 59.025 34.564 60.824 32.115 L 75.142 38.044 C 75.944 38.376 76.871 37.992 77.203 37.19 C 77.535 36.388 77.151 35.461 76.349 35.128 L 62.032 29.199 C 62.518 26.118 60.825 23.107 57.941 21.92 C 55.011 20.706 51.701 21.727 49.902 24.176 L 35.09 18.041 C 34.287 17.709 33.36 18.094 33.027 18.895 C 32.695 19.697 33.08 20.625 33.882 20.957 L 48.694 27.092 C 48.215 30.171 49.906 33.178 52.785 34.37 L 52.785 34.37 Z  M 52.039 26.769 C 52.794 24.946 54.897 24.075 56.719 24.83 C 58.542 25.585 59.413 27.688 58.658 29.51 C 57.904 31.333 55.801 32.204 53.978 31.448 C 52.155 30.694 51.284 28.591 52.039 26.769 Z  M 47.528 41.127 L 69.995 50.431 C 70.797 50.763 71.724 50.378 72.057 49.576 C 72.388 48.775 72.004 47.847 71.202 47.515 L 48.735 38.211 C 49.214 35.198 47.589 32.151 44.645 30.931 C 41.7 29.712 38.405 30.738 36.605 33.187 L 29.957 30.434 C 29.155 30.102 28.227 30.486 27.895 31.288 C 27.563 32.089 27.948 33.018 28.749 33.35 L 35.398 36.103 C 34.919 39.116 36.543 42.163 39.489 43.382 C 42.434 44.602 45.737 43.596 47.528 41.127 L 47.528 41.127 Z  M 38.757 35.786 C 39.512 33.964 41.615 33.093 43.437 33.847 C 45.259 34.602 46.131 36.705 45.376 38.527 C 44.621 40.35 42.519 41.221 40.696 40.466 C 38.873 39.712 38.003 37.609 38.757 35.786 Z  M 49.98 62.261 C 52.91 63.476 56.219 62.455 58.019 60.006 L 64.857 62.838 C 65.658 63.17 66.587 62.785 66.919 61.984 C 67.25 61.182 66.866 60.254 66.064 59.922 L 59.227 57.09 C 59.712 54.01 58.019 50.999 55.136 49.811 C 52.205 48.597 48.896 49.618 47.097 52.067 L 24.819 42.841 C 24.017 42.509 23.09 42.893 22.757 43.695 C 22.425 44.497 22.809 45.425 23.611 45.757 L 45.903 54.989 C 45.424 58.062 47.108 61.066 49.98 62.261 L 49.98 62.261 Z  M 49.254 54.651 C 50.009 52.829 52.112 51.957 53.935 52.713 C 55.756 53.467 56.628 55.57 55.873 57.392 C 55.118 59.215 53.016 60.086 51.193 59.332 C 49.365 58.591 48.493 56.488 49.254 54.651 Z  M 32.557 69.479 C 35.407 70.654 38.691 69.751 40.538 67.285 L 59.724 75.231 C 60.526 75.562 61.454 75.178 61.786 74.376 C 62.118 73.575 61.734 72.646 60.932 72.314 L 41.789 64.387 C 42.309 61.357 40.679 58.24 37.72 57.014 C 34.76 55.788 31.425 56.832 29.63 59.351 L 19.687 55.233 C 18.885 54.902 17.957 55.286 17.624 56.088 C 17.293 56.89 17.678 57.817 18.479 58.15 L 28.451 62.279 C 28.041 65.252 29.656 68.278 32.557 69.479 L 32.557 69.479 Z  M 31.833 61.869 C 32.587 60.046 34.69 59.175 36.512 59.93 C 38.335 60.685 39.206 62.788 38.451 64.61 C 37.697 66.433 35.594 67.304 33.772 66.549 C 31.949 65.794 31.072 63.706 31.833 61.869 Z " fill="rgb(230,239,194)"/><path d=" M 201.931 50.864 C 204.862 52.078 208.17 51.058 209.97 48.609 L 224.287 54.538 C 225.089 54.87 226.017 54.486 226.349 53.684 C 226.681 52.882 226.297 51.955 225.494 51.622 L 211.178 45.693 C 211.663 42.612 209.971 39.602 207.087 38.414 C 204.156 37.2 200.847 38.221 199.047 40.67 L 184.235 34.535 C 183.433 34.203 182.505 34.587 182.173 35.389 C 181.841 36.192 182.225 37.119 183.028 37.451 L 197.84 43.586 C 197.36 46.665 199.051 49.673 201.931 50.864 L 201.931 50.864 Z  M 201.185 43.263 C 201.94 41.44 204.043 40.569 205.865 41.324 C 207.687 42.079 208.559 44.182 207.804 46.004 C 207.049 47.826 204.946 48.698 203.124 47.943 C 201.301 47.188 200.43 45.086 201.185 43.263 Z  M 196.674 57.62 L 219.14 66.925 C 219.943 67.257 220.87 66.872 221.203 66.07 C 221.534 65.269 221.15 64.341 220.348 64.009 L 197.881 54.704 C 198.36 51.692 196.735 48.645 193.791 47.425 C 190.845 46.206 187.551 47.232 185.751 49.681 L 179.103 46.928 C 178.301 46.595 177.373 46.98 177.041 47.782 C 176.709 48.583 177.093 49.511 177.895 49.843 L 184.544 52.597 C 184.065 55.609 185.689 58.656 188.634 59.876 C 191.579 61.096 194.882 60.089 196.674 57.62 L 196.674 57.62 Z  M 187.902 52.28 C 188.658 50.457 190.761 49.587 192.583 50.341 C 194.405 51.096 195.276 53.199 194.522 55.021 C 193.767 56.844 191.664 57.715 189.841 56.96 C 188.019 56.205 187.148 54.103 187.902 52.28 Z  M 199.125 78.756 C 202.055 79.969 205.365 78.949 207.165 76.5 L 214.003 79.332 C 214.804 79.664 215.732 79.279 216.064 78.478 C 216.396 77.676 216.011 76.748 215.21 76.416 L 208.372 73.584 C 208.857 70.503 207.165 67.493 204.281 66.305 C 201.351 65.091 198.042 66.112 196.242 68.561 L 173.965 59.335 C 173.162 59.002 172.235 59.387 171.903 60.189 C 171.57 60.991 171.955 61.919 172.757 62.25 L 195.049 71.483 C 194.57 74.556 196.254 77.56 199.125 78.756 L 199.125 78.756 Z  M 198.399 71.145 C 199.155 69.323 201.257 68.451 203.08 69.206 C 204.902 69.961 205.773 72.064 205.019 73.887 C 204.264 75.709 202.161 76.58 200.338 75.825 C 198.51 75.085 197.639 72.982 198.399 71.145 Z  M 181.703 85.973 C 184.553 87.148 187.836 86.246 189.683 83.778 L 208.87 91.725 C 209.672 92.057 210.6 91.672 210.932 90.87 C 211.264 90.068 210.88 89.14 210.078 88.808 L 190.935 80.881 C 191.455 77.851 189.825 74.734 186.866 73.508 C 183.906 72.282 180.57 73.326 178.775 75.845 L 168.832 71.728 C 168.03 71.396 167.103 71.78 166.77 72.581 C 166.439 73.383 166.823 74.311 167.625 74.644 L 177.597 78.773 C 177.186 81.746 178.802 84.772 181.703 85.973 L 181.703 85.973 Z  M 180.978 78.363 C 181.732 76.54 183.836 75.669 185.658 76.424 C 187.48 77.179 188.352 79.282 187.597 81.104 C 186.843 82.926 184.74 83.798 182.917 83.043 C 181.095 82.289 180.217 80.199 180.978 78.363 Z " fill="rgb(230,239,194)"/><path d=" M 407.87 120.216 C 410.8 121.43 414.109 120.409 415.909 117.96 L 430.226 123.89 C 431.028 124.222 431.956 123.837 432.288 123.035 C 432.62 122.234 432.235 121.306 431.434 120.974 L 417.117 115.045 C 417.602 111.964 415.91 108.953 413.026 107.765 C 410.096 106.552 406.787 107.573 404.987 110.021 L 390.174 103.887 C 389.372 103.554 388.444 103.939 388.112 104.741 C 387.78 105.543 388.164 106.47 388.966 106.802 L 403.78 112.937 C 403.3 116.017 404.99 119.024 407.87 120.216 L 407.87 120.216 Z  M 407.124 112.614 C 407.878 110.792 409.981 109.92 411.804 110.675 C 413.626 111.43 414.497 113.533 413.743 115.355 C 412.988 117.178 410.885 118.049 409.063 117.295 C 407.24 116.539 406.369 114.436 407.124 112.614 Z  M 402.612 126.972 L 425.079 136.276 C 425.881 136.608 426.809 136.224 427.141 135.422 C 427.474 134.62 427.089 133.692 426.287 133.36 L 403.82 124.056 C 404.299 121.044 402.675 117.996 399.729 116.777 C 396.784 115.557 393.49 116.584 391.69 119.033 L 385.041 116.279 C 384.24 115.947 383.312 116.332 382.98 117.133 C 382.648 117.935 383.032 118.863 383.834 119.195 L 390.482 121.948 C 390.003 124.961 391.628 128.008 394.573 129.227 C 397.518 130.447 400.821 129.441 402.612 126.972 L 402.612 126.972 Z  M 393.842 121.631 C 394.596 119.809 396.699 118.938 398.522 119.692 C 400.344 120.448 401.215 122.55 400.461 124.373 C 399.706 126.195 397.603 127.066 395.781 126.312 C 393.959 125.557 393.087 123.454 393.842 121.631 Z  M 405.064 148.107 C 407.995 149.321 411.303 148.3 413.103 145.852 L 419.941 148.683 C 420.743 149.016 421.67 148.631 422.003 147.829 C 422.335 147.027 421.951 146.099 421.149 145.768 L 414.311 142.936 C 414.797 139.855 413.104 136.844 410.22 135.656 C 407.29 134.443 403.98 135.464 402.18 137.912 L 379.903 128.687 C 379.101 128.354 378.174 128.739 377.841 129.54 C 377.51 130.342 377.894 131.27 378.696 131.602 L 400.988 140.834 C 400.509 143.908 402.192 146.911 405.064 148.107 L 405.064 148.107 Z  M 404.339 140.496 C 405.093 138.674 407.196 137.804 409.018 138.557 C 410.842 139.313 411.713 141.416 410.957 143.238 C 410.203 145.06 408.1 145.931 406.278 145.177 C 404.449 144.437 403.578 142.334 404.339 140.496 Z  M 387.643 155.325 C 390.492 156.5 393.775 155.597 395.623 153.13 L 414.809 161.076 C 415.611 161.408 416.539 161.024 416.871 160.222 C 417.203 159.42 416.819 158.492 416.016 158.16 L 396.874 150.232 C 397.394 147.203 395.765 144.086 392.805 142.86 C 389.845 141.634 386.509 142.678 384.715 145.197 L 374.771 141.079 C 373.97 140.747 373.042 141.131 372.71 141.933 C 372.377 142.735 372.762 143.663 373.563 143.995 L 383.536 148.125 C 383.125 151.097 384.741 154.124 387.643 155.325 L 387.643 155.325 Z  M 386.917 147.714 C 387.672 145.892 389.775 145.021 391.597 145.775 C 393.419 146.53 394.291 148.633 393.536 150.456 C 392.781 152.278 390.678 153.149 388.856 152.395 C 387.034 151.639 386.156 149.552 386.917 147.714 Z " fill="rgb(230,239,194)"/><path d=" M 422.922 319.377 C 425.852 320.59 429.162 319.569 430.961 317.121 L 445.279 323.05 C 446.081 323.382 447.009 322.998 447.34 322.196 C 447.672 321.394 447.288 320.466 446.486 320.134 L 432.169 314.204 C 432.654 311.124 430.962 308.113 428.079 306.925 C 425.148 305.712 421.839 306.733 420.039 309.181 L 405.226 303.047 C 404.424 302.715 403.496 303.099 403.164 303.901 C 402.833 304.703 403.217 305.631 404.019 305.963 L 418.832 312.097 C 418.352 315.177 420.042 318.185 422.922 319.377 L 422.922 319.377 Z  M 422.176 311.774 C 422.931 309.952 425.034 309.081 426.856 309.836 C 428.679 310.59 429.55 312.693 428.795 314.516 C 428.04 316.338 425.937 317.209 424.115 316.455 C 422.292 315.7 421.421 313.597 422.176 311.774 Z  M 417.664 326.132 L 440.132 335.436 C 440.934 335.768 441.862 335.384 442.193 334.582 C 442.526 333.781 442.141 332.853 441.339 332.52 L 418.872 323.216 C 419.351 320.203 417.727 317.156 414.782 315.937 C 411.836 314.717 408.542 315.744 406.742 318.192 L 400.094 315.439 C 399.292 315.107 398.364 315.492 398.033 316.294 C 397.7 317.096 398.084 318.023 398.886 318.355 L 405.534 321.109 C 405.055 324.121 406.68 327.168 409.625 328.388 C 412.57 329.607 415.874 328.602 417.664 326.132 L 417.664 326.132 Z  M 408.894 320.792 C 409.648 318.969 411.751 318.098 413.574 318.853 C 415.397 319.607 416.268 321.711 415.513 323.533 C 414.758 325.355 412.655 326.226 410.833 325.472 C 409.011 324.717 408.139 322.614 408.894 320.792 Z  M 420.116 347.268 C 423.047 348.481 426.356 347.46 428.156 345.012 L 434.993 347.844 C 435.796 348.175 436.723 347.791 437.055 346.99 C 437.387 346.188 437.003 345.26 436.201 344.927 L 429.363 342.096 C 429.849 339.015 428.156 336.004 425.272 334.817 C 422.343 333.603 419.033 334.624 417.233 337.072 L 394.956 327.846 C 394.154 327.514 393.226 327.899 392.894 328.701 C 392.562 329.503 392.947 330.43 393.748 330.763 L 416.04 339.994 C 415.561 343.069 417.244 346.072 420.116 347.268 L 420.116 347.268 Z  M 419.391 339.657 C 420.145 337.835 422.248 336.963 424.071 337.718 C 425.894 338.473 426.765 340.576 426.01 342.398 C 425.256 344.221 423.152 345.092 421.33 344.337 C 419.502 343.597 418.63 341.494 419.391 339.657 Z  M 402.695 354.485 C 405.544 355.66 408.827 354.757 410.675 352.29 L 429.862 360.236 C 430.663 360.568 431.591 360.184 431.923 359.382 C 432.255 358.58 431.871 357.652 431.069 357.321 L 411.926 349.392 C 412.446 346.363 410.817 343.245 407.857 342.02 C 404.897 340.794 401.562 341.838 399.767 344.357 L 389.823 340.239 C 389.022 339.907 388.094 340.291 387.762 341.093 C 387.429 341.895 387.814 342.823 388.616 343.155 L 398.588 347.284 C 398.177 350.257 399.794 353.283 402.695 354.485 L 402.695 354.485 Z  M 401.969 346.875 C 402.724 345.053 404.827 344.181 406.65 344.936 C 408.472 345.69 409.343 347.793 408.588 349.616 C 407.833 351.439 405.731 352.309 403.908 351.555 C 402.086 350.8 401.209 348.712 401.969 346.875 Z " fill="rgb(230,239,194)"/><path d=" M 261.748 168.844 C 264.679 170.057 267.988 169.036 269.787 166.588 L 284.105 172.517 C 284.907 172.849 285.834 172.465 286.166 171.663 C 286.498 170.861 286.114 169.933 285.312 169.602 L 270.995 163.672 C 271.481 160.591 269.788 157.58 266.904 156.393 C 263.974 155.179 260.664 156.2 258.865 158.648 L 244.052 152.514 C 243.25 152.182 242.323 152.566 241.991 153.369 C 241.658 154.17 242.043 155.098 242.845 155.43 L 257.657 161.565 C 257.178 164.644 258.869 167.652 261.748 168.844 L 261.748 168.844 Z  M 261.002 161.241 C 261.757 159.419 263.86 158.548 265.682 159.302 C 267.505 160.057 268.376 162.161 267.621 163.983 C 266.867 165.805 264.763 166.677 262.941 165.922 C 261.119 165.167 260.247 163.064 261.002 161.241 Z  M 256.491 175.599 L 278.958 184.904 C 279.76 185.236 280.687 184.851 281.019 184.049 C 281.351 183.248 280.967 182.32 280.165 181.988 L 257.698 172.683 C 258.177 169.671 256.552 166.624 253.608 165.404 C 250.663 164.184 247.368 165.211 245.568 167.66 L 238.92 164.907 C 238.118 164.575 237.191 164.959 236.858 165.761 C 236.526 166.563 236.911 167.49 237.712 167.823 L 244.361 170.576 C 243.882 173.588 245.506 176.635 248.451 177.855 C 251.397 179.075 254.7 178.068 256.491 175.599 L 256.491 175.599 Z  M 247.72 170.259 C 248.475 168.437 250.578 167.565 252.4 168.32 C 254.222 169.075 255.094 171.178 254.339 173 C 253.584 174.822 251.482 175.694 249.659 174.939 C 247.836 174.184 246.965 172.081 247.72 170.259 Z  M 258.942 196.735 C 261.873 197.948 265.182 196.927 266.982 194.479 L 273.82 197.311 C 274.621 197.643 275.55 197.258 275.881 196.456 C 276.213 195.655 275.829 194.727 275.027 194.395 L 268.19 191.563 C 268.675 188.482 266.982 185.471 264.099 184.284 C 261.168 183.071 257.859 184.091 256.06 186.54 L 233.782 177.314 C 232.98 176.982 232.052 177.366 231.72 178.168 C 231.388 178.97 231.772 179.897 232.574 180.23 L 254.866 189.461 C 254.387 192.536 256.071 195.538 258.942 196.735 L 258.942 196.735 Z  M 258.217 189.124 C 258.972 187.301 261.075 186.431 262.898 187.185 C 264.72 187.94 265.591 190.043 264.837 191.865 C 264.081 193.687 261.979 194.559 260.156 193.804 C 258.327 193.064 257.457 190.961 258.217 189.124 Z  M 241.521 203.952 C 244.37 205.127 247.653 204.224 249.501 201.758 L 268.687 209.703 C 269.489 210.035 270.417 209.651 270.749 208.849 C 271.081 208.047 270.697 207.12 269.895 206.787 L 250.752 198.86 C 251.272 195.83 249.643 192.713 246.683 191.487 C 243.723 190.262 240.388 191.305 238.593 193.824 L 228.65 189.706 C 227.848 189.374 226.92 189.758 226.587 190.561 C 226.256 191.362 226.64 192.29 227.442 192.622 L 237.414 196.752 C 237.004 199.724 238.619 202.751 241.521 203.952 L 241.521 203.952 Z  M 240.796 196.341 C 241.55 194.519 243.653 193.648 245.475 194.402 C 247.298 195.158 248.169 197.261 247.414 199.083 C 246.66 200.905 244.557 201.776 242.735 201.022 C 240.912 200.267 240.035 198.179 240.796 196.341 Z " fill="rgb(230,239,194)"/><path d=" M 589.168 506.456 L 589.168 506.456 C 589.53 505.56 590.551 505.126 591.446 505.488 L 646.635 527.785 C 647.53 528.147 647.964 529.169 647.602 530.065 L 647.602 530.065 C 647.24 530.961 646.219 531.394 645.323 531.032 L 590.135 508.734 C 589.239 508.373 588.806 507.352 589.168 506.456 Z " fill="rgb(230,239,194)"/><path d=" M 596.283 516.883 L 596.283 516.883 C 596.645 515.987 597.666 515.554 598.562 515.916 L 634.272 530.343 C 635.168 530.705 635.602 531.727 635.24 532.623 L 635.24 532.623 C 634.878 533.518 633.857 533.952 632.96 533.59 L 597.251 519.162 C 596.355 518.8 595.922 517.779 596.283 516.883 Z " fill="rgb(230,239,194)"/><path d=" M 599.66 480.485 L 599.66 480.485 C 600.022 479.589 601.044 479.155 601.939 479.517 L 657.128 501.815 C 658.023 502.177 658.457 503.198 658.095 504.093 L 658.095 504.093 C 657.733 504.99 656.712 505.423 655.816 505.061 L 600.628 482.764 C 599.732 482.402 599.299 481.38 599.66 480.485 Z " fill="rgb(230,239,194)"/><path d=" M 606.776 490.912 L 606.776 490.912 C 607.138 490.017 608.159 489.583 609.055 489.945 L 644.765 504.373 C 645.661 504.734 646.095 505.755 645.733 506.651 L 645.733 506.651 C 645.371 507.548 644.35 507.981 643.453 507.619 L 607.743 493.191 C 606.847 492.829 606.414 491.808 606.776 490.912 Z " fill="rgb(230,239,194)"/><path d=" M 603.399 527.31 L 603.399 527.31 C 603.761 526.415 604.783 525.981 605.678 526.343 L 621.91 532.901 C 622.806 533.263 623.239 534.285 622.877 535.181 L 622.877 535.181 C 622.515 536.076 621.495 536.51 620.598 536.148 L 604.366 529.59 C 603.471 529.228 603.037 528.206 603.399 527.31 Z " fill="rgb(230,239,194)"/><path d=" M 606.4 505.865 L 606.4 505.865 C 606.761 504.969 607.783 504.536 608.678 504.898 L 634.649 515.391 C 635.545 515.753 635.978 516.774 635.616 517.67 L 635.616 517.67 C 635.254 518.565 634.234 518.999 633.337 518.637 L 607.367 508.144 C 606.471 507.782 606.038 506.761 606.4 505.865 Z " fill="rgb(230,239,194)"/><path d=" M 618.762 503.307 L 618.762 503.307 C 619.124 502.411 620.145 501.978 621.04 502.34 L 629.156 505.619 C 630.053 505.981 630.486 507.002 630.124 507.898 L 630.124 507.898 C 629.762 508.794 628.741 509.227 627.844 508.866 L 619.729 505.587 C 618.834 505.225 618.4 504.203 618.762 503.307 Z " fill="rgb(230,239,194)"/><path d=" M 616.892 479.895 L 616.892 479.895 C 617.254 478.998 618.276 478.565 619.171 478.927 L 645.142 489.42 C 646.038 489.782 646.471 490.803 646.109 491.699 L 646.109 491.699 C 645.747 492.595 644.727 493.028 643.83 492.666 L 617.86 482.173 C 616.964 481.812 616.531 480.791 616.892 479.895 Z " fill="rgb(230,239,194)"/><path d=" M 629.255 477.337 L 629.255 477.337 C 629.617 476.44 630.638 476.007 631.533 476.369 L 639.649 479.648 C 640.546 480.01 640.979 481.031 640.617 481.927 L 640.617 481.927 C 640.255 482.823 639.234 483.256 638.337 482.894 L 630.222 479.615 C 629.326 479.254 628.893 478.233 629.255 477.337 Z " fill="rgb(230,239,194)"/><path d=" M 697.206 446.396 L 697.206 446.396 C 697.568 445.5 698.589 445.067 699.485 445.43 L 754.655 467.772 C 755.55 468.135 755.983 469.156 755.621 470.052 L 755.621 470.052 C 755.258 470.948 754.236 471.38 753.341 471.017 L 698.171 448.675 C 697.275 448.313 696.843 447.291 697.206 446.396 Z " fill="rgb(230,239,194)"/><path d=" M 704.313 456.829 L 704.313 456.829 C 704.676 455.934 705.697 455.501 706.592 455.863 L 742.291 470.32 C 743.186 470.682 743.619 471.704 743.256 472.599 L 743.256 472.599 C 742.893 473.495 741.872 473.928 740.977 473.565 L 705.278 459.108 C 704.383 458.746 703.95 457.724 704.313 456.829 Z " fill="rgb(230,239,194)"/><path d=" M 707.719 420.433 L 707.719 420.433 C 708.082 419.538 709.104 419.105 709.999 419.468 L 765.169 441.81 C 766.065 442.173 766.497 443.194 766.135 444.089 L 766.135 444.089 C 765.772 444.985 764.75 445.418 763.855 445.055 L 708.685 422.713 C 707.789 422.35 707.357 421.329 707.719 420.433 Z " fill="rgb(230,239,194)"/><path d=" M 714.827 430.867 L 714.827 430.867 C 715.189 429.971 716.211 429.538 717.106 429.901 L 752.805 444.358 C 753.701 444.72 754.133 445.742 753.77 446.637 L 753.77 446.637 C 753.407 447.533 752.386 447.965 751.49 447.603 L 715.792 433.146 C 714.896 432.784 714.464 431.762 714.827 430.867 Z " fill="rgb(230,239,194)"/><path d=" M 711.42 467.262 L 711.42 467.262 C 711.783 466.366 712.804 465.934 713.7 466.296 L 729.926 472.868 C 730.822 473.231 731.255 474.252 730.892 475.147 L 730.892 475.147 C 730.529 476.043 729.508 476.476 728.612 476.113 L 712.386 469.542 C 711.49 469.179 711.057 468.158 711.42 467.262 Z " fill="rgb(230,239,194)"/><path d=" M 714.437 445.819 L 714.437 445.819 C 714.8 444.923 715.822 444.491 716.717 444.854 L 742.68 455.367 C 743.575 455.73 744.008 456.752 743.645 457.647 L 743.645 457.647 C 743.282 458.543 742.261 458.975 741.366 458.613 L 715.403 448.099 C 714.507 447.736 714.075 446.714 714.437 445.819 Z " fill="rgb(230,239,194)"/><path d=" M 726.802 443.271 L 726.802 443.271 C 727.165 442.375 728.186 441.943 729.082 442.305 L 737.195 445.592 C 738.091 445.954 738.523 446.975 738.161 447.871 L 738.161 447.871 C 737.798 448.767 736.776 449.199 735.881 448.837 L 727.768 445.551 C 726.872 445.189 726.439 444.167 726.802 443.271 Z " fill="rgb(230,239,194)"/><path d=" M 724.951 419.857 L 724.951 419.857 C 725.314 418.961 726.336 418.528 727.231 418.891 L 753.193 429.405 C 754.09 429.768 754.522 430.789 754.159 431.684 L 754.159 431.684 C 753.796 432.58 752.775 433.013 751.879 432.65 L 725.917 422.136 C 725.022 421.774 724.589 420.753 724.951 419.857 Z " fill="rgb(230,239,194)"/><path d=" M 737.315 417.309 L 737.315 417.309 C 737.679 416.413 738.7 415.98 739.596 416.344 L 747.709 419.629 C 748.604 419.992 749.037 421.013 748.674 421.909 L 748.674 421.909 C 748.312 422.804 747.29 423.237 746.395 422.874 L 738.281 419.589 C 737.386 419.226 736.953 418.204 737.315 417.309 Z " fill="rgb(230,239,194)"/><path d=" M 470.32 452.422 L 470.32 452.422 C 470.682 451.526 471.704 451.093 472.599 451.456 L 527.77 473.798 C 528.665 474.161 529.098 475.182 528.735 476.078 L 528.735 476.078 C 528.372 476.974 527.351 477.406 526.456 477.043 L 471.285 454.701 C 470.39 454.339 469.958 453.317 470.32 452.422 Z " fill="rgb(230,239,194)"/><path d=" M 477.428 462.855 L 477.428 462.855 C 477.79 461.96 478.811 461.527 479.707 461.89 L 515.405 476.346 C 516.301 476.708 516.734 477.73 516.371 478.626 L 516.371 478.626 C 516.008 479.521 514.986 479.954 514.091 479.591 L 478.393 465.135 C 477.498 464.772 477.065 463.75 477.428 462.855 Z " fill="rgb(230,239,194)"/><path d=" M 480.834 426.459 L 480.834 426.459 C 481.196 425.564 482.218 425.131 483.114 425.494 L 538.283 447.836 C 539.18 448.198 539.612 449.22 539.249 450.115 L 539.249 450.115 C 538.886 451.011 537.865 451.444 536.969 451.081 L 481.8 428.739 C 480.904 428.376 480.471 427.355 480.834 426.459 Z " fill="rgb(230,239,194)"/><path d=" M 487.941 436.893 L 487.941 436.893 C 488.304 435.997 489.325 435.564 490.221 435.927 L 525.919 450.384 C 526.815 450.746 527.247 451.768 526.885 452.663 L 526.885 452.663 C 526.522 453.558 525.5 453.991 524.605 453.629 L 488.907 439.172 C 488.011 438.81 487.579 437.788 487.941 436.893 Z " fill="rgb(230,239,194)"/><path d=" M 484.535 473.288 L 484.535 473.288 C 484.898 472.392 485.919 471.96 486.814 472.322 L 503.041 478.894 C 503.936 479.257 504.369 480.278 504.006 481.173 L 504.006 481.173 C 503.644 482.069 502.622 482.502 501.727 482.139 L 485.501 475.568 C 484.605 475.205 484.172 474.184 484.535 473.288 Z " fill="rgb(230,239,194)"/><path d=" M 487.552 451.845 L 487.552 451.845 C 487.915 450.949 488.937 450.517 489.832 450.88 L 515.794 461.393 C 516.69 461.756 517.123 462.778 516.76 463.673 L 516.76 463.673 C 516.397 464.569 515.376 465.001 514.48 464.638 L 488.518 454.125 C 487.622 453.762 487.19 452.741 487.552 451.845 Z " fill="rgb(230,239,194)"/><path d=" M 499.916 449.297 L 499.916 449.297 C 500.279 448.401 501.301 447.969 502.196 448.332 L 510.31 451.617 C 511.205 451.98 511.637 453.001 511.275 453.897 L 511.275 453.897 C 510.913 454.793 509.891 455.225 508.996 454.863 L 500.882 451.577 C 499.986 451.214 499.554 450.193 499.916 449.297 Z " fill="rgb(230,239,194)"/><path d=" M 498.066 425.883 L 498.066 425.883 C 498.429 424.987 499.451 424.554 500.346 424.917 L 526.308 435.431 C 527.204 435.794 527.636 436.815 527.274 437.711 L 527.274 437.711 C 526.911 438.606 525.889 439.039 524.994 438.676 L 499.032 428.162 C 498.136 427.8 497.703 426.778 498.066 425.883 Z " fill="rgb(230,239,194)"/><path d=" M 510.43 423.335 L 510.43 423.335 C 510.793 422.439 511.815 422.006 512.71 422.369 L 520.823 425.655 C 521.719 426.018 522.152 427.039 521.789 427.935 L 521.789 427.935 C 521.426 428.83 520.405 429.263 519.509 428.9 L 511.396 425.615 C 510.501 425.251 510.068 424.23 510.43 423.335 Z " fill="rgb(230,239,194)"/><path d=" M 470.32 452.422 L 470.32 452.422 C 470.682 451.526 471.704 451.093 472.599 451.456 L 527.77 473.798 C 528.665 474.161 529.098 475.182 528.735 476.078 L 528.735 476.078 C 528.372 476.974 527.351 477.406 526.456 477.043 L 471.285 454.701 C 470.39 454.339 469.958 453.317 470.32 452.422 Z " fill="rgb(230,239,194)"/><path d=" M 477.428 462.855 L 477.428 462.855 C 477.79 461.96 478.811 461.527 479.707 461.89 L 515.405 476.346 C 516.301 476.708 516.734 477.73 516.371 478.626 L 516.371 478.626 C 516.008 479.521 514.986 479.954 514.091 479.591 L 478.393 465.135 C 477.498 464.772 477.065 463.75 477.428 462.855 Z " fill="rgb(230,239,194)"/><path d=" M 480.834 426.459 L 480.834 426.459 C 481.196 425.564 482.218 425.131 483.114 425.494 L 538.283 447.836 C 539.18 448.198 539.612 449.22 539.249 450.115 L 539.249 450.115 C 538.886 451.011 537.865 451.444 536.969 451.081 L 481.8 428.739 C 480.904 428.376 480.471 427.355 480.834 426.459 Z " fill="rgb(230,239,194)"/><path d=" M 487.941 436.893 L 487.941 436.893 C 488.304 435.997 489.325 435.564 490.221 435.927 L 525.919 450.384 C 526.815 450.746 527.247 451.768 526.885 452.663 L 526.885 452.663 C 526.522 453.558 525.5 453.991 524.605 453.629 L 488.907 439.172 C 488.011 438.81 487.579 437.788 487.941 436.893 Z " fill="rgb(230,239,194)"/><path d=" M 484.535 473.288 L 484.535 473.288 C 484.898 472.392 485.919 471.96 486.814 472.322 L 503.041 478.894 C 503.936 479.257 504.369 480.278 504.006 481.173 L 504.006 481.173 C 503.644 482.069 502.622 482.502 501.727 482.139 L 485.501 475.568 C 484.605 475.205 484.172 474.184 484.535 473.288 Z " fill="rgb(230,239,194)"/><path d=" M 487.552 451.845 L 487.552 451.845 C 487.915 450.949 488.937 450.517 489.832 450.88 L 515.794 461.393 C 516.69 461.756 517.123 462.778 516.76 463.673 L 516.76 463.673 C 516.397 464.569 515.376 465.001 514.48 464.638 L 488.518 454.125 C 487.622 453.762 487.19 452.741 487.552 451.845 Z " fill="rgb(230,239,194)"/><path d=" M 499.916 449.297 L 499.916 449.297 C 500.279 448.401 501.301 447.969 502.196 448.332 L 510.31 451.617 C 511.205 451.98 511.637 453.001 511.275 453.897 L 511.275 453.897 C 510.913 454.793 509.891 455.225 508.996 454.863 L 500.882 451.577 C 499.986 451.214 499.554 450.193 499.916 449.297 Z " fill="rgb(230,239,194)"/><path d=" M 498.066 425.883 L 498.066 425.883 C 498.429 424.987 499.451 424.554 500.346 424.917 L 526.308 435.431 C 527.204 435.794 527.636 436.815 527.274 437.711 L 527.274 437.711 C 526.911 438.606 525.889 439.039 524.994 438.676 L 499.032 428.162 C 498.136 427.8 497.703 426.778 498.066 425.883 Z " fill="rgb(230,239,194)"/><path d=" M 510.43 423.335 L 510.43 423.335 C 510.793 422.439 511.815 422.006 512.71 422.369 L 520.823 425.655 C 521.719 426.018 522.152 427.039 521.789 427.935 L 521.789 427.935 C 521.426 428.83 520.405 429.263 519.509 428.9 L 511.396 425.615 C 510.501 425.251 510.068 424.23 510.43 423.335 Z " fill="rgb(230,239,194)"/><path d=" M 950.37 529.4 L 950.37 529.4 C 950.732 528.505 951.754 528.072 952.649 528.435 L 1007.819 550.777 C 1008.715 551.139 1009.148 552.16 1008.785 553.057 L 1008.785 553.057 C 1008.422 553.952 1007.4 554.385 1006.505 554.022 L 951.335 531.68 C 950.439 531.318 950.007 530.295 950.37 529.4 Z " fill="rgb(230,239,194)"/><path d=" M 957.477 539.833 L 957.477 539.833 C 957.839 538.938 958.861 538.505 959.756 538.868 L 995.455 553.325 C 996.351 553.688 996.784 554.709 996.421 555.604 L 996.421 555.604 C 996.057 556.5 995.036 556.933 994.141 556.57 L 958.442 542.113 C 957.547 541.751 957.114 540.73 957.477 539.833 Z " fill="rgb(230,239,194)"/><path d=" M 960.883 503.438 L 960.883 503.438 C 961.246 502.542 962.268 502.11 963.163 502.473 L 1018.334 524.814 C 1019.229 525.177 1019.661 526.199 1019.299 527.094 L 1019.299 527.094 C 1018.936 527.99 1017.915 528.423 1017.019 528.059 L 961.849 505.718 C 960.954 505.355 960.521 504.334 960.883 503.438 Z " fill="rgb(230,239,194)"/><path d=" M 967.991 513.871 L 967.991 513.871 C 968.353 512.976 969.375 512.543 970.271 512.906 L 1005.969 527.362 C 1006.865 527.725 1007.297 528.747 1006.934 529.642 L 1006.934 529.642 C 1006.572 530.538 1005.55 530.97 1004.654 530.608 L 968.956 516.151 C 968.061 515.788 967.628 514.767 967.991 513.871 Z " fill="rgb(230,239,194)"/><path d=" M 964.584 550.267 L 964.584 550.267 C 964.947 549.371 965.968 548.939 966.864 549.302 L 983.09 555.872 C 983.986 556.235 984.419 557.257 984.056 558.152 L 984.056 558.152 C 983.693 559.048 982.672 559.48 981.776 559.117 L 965.55 552.547 C 964.655 552.184 964.222 551.162 964.584 550.267 Z " fill="rgb(230,239,194)"/><path d=" M 967.601 528.824 L 967.601 528.824 C 967.964 527.929 968.986 527.496 969.882 527.858 L 995.844 538.372 C 996.74 538.735 997.173 539.756 996.809 540.652 L 996.809 540.652 C 996.446 541.548 995.425 541.98 994.53 541.618 L 968.567 531.103 C 967.672 530.741 967.239 529.719 967.601 528.824 Z " fill="rgb(230,239,194)"/><path d=" M 979.966 526.276 L 979.966 526.276 C 980.329 525.38 981.35 524.948 982.246 525.311 L 990.359 528.596 C 991.255 528.959 991.687 529.98 991.325 530.875 L 991.325 530.875 C 990.962 531.771 989.94 532.204 989.045 531.841 L 980.932 528.556 C 980.036 528.193 979.604 527.171 979.966 526.276 Z " fill="rgb(230,239,194)"/><path d=" M 978.116 502.862 L 978.116 502.862 C 978.479 501.965 979.5 501.533 980.395 501.896 L 1006.358 512.41 C 1007.254 512.773 1007.686 513.794 1007.324 514.69 L 1007.324 514.69 C 1006.961 515.585 1005.939 516.018 1005.043 515.655 L 979.082 505.141 C 978.186 504.779 977.753 503.757 978.116 502.862 Z " fill="rgb(230,239,194)"/><path d=" M 990.48 500.314 L 990.48 500.314 C 990.843 499.418 991.864 498.985 992.76 499.348 L 1000.873 502.633 C 1001.768 502.996 1002.201 504.018 1001.839 504.914 L 1001.839 504.914 C 1001.476 505.809 1000.454 506.241 999.559 505.879 L 991.446 502.593 C 990.55 502.231 990.117 501.209 990.48 500.314 Z " fill="rgb(230,239,194)"/><path d=" M 294.164 446.415 L 294.164 446.415 C 294.527 445.52 295.548 445.087 296.444 445.45 L 351.614 467.792 C 352.509 468.154 352.942 469.176 352.579 470.072 L 352.579 470.072 C 352.217 470.967 351.195 471.4 350.3 471.037 L 295.13 448.695 C 294.234 448.332 293.801 447.311 294.164 446.415 Z " fill="rgb(230,239,194)"/><path d=" M 301.271 456.849 L 301.271 456.849 C 301.635 455.953 302.656 455.52 303.551 455.883 L 339.25 470.34 C 340.145 470.703 340.578 471.724 340.215 472.619 L 340.215 472.619 C 339.853 473.515 338.831 473.948 337.936 473.585 L 302.237 459.128 C 301.342 458.766 300.909 457.744 301.271 456.849 Z " fill="rgb(230,239,194)"/><path d=" M 304.678 420.453 L 304.678 420.453 C 305.04 419.558 306.062 419.125 306.958 419.487 L 362.128 441.83 C 363.023 442.192 363.456 443.214 363.094 444.109 L 363.094 444.109 C 362.73 445.004 361.709 445.437 360.814 445.075 L 305.643 422.732 C 304.748 422.37 304.316 421.349 304.678 420.453 Z " fill="rgb(230,239,194)"/><path d=" M 311.786 430.886 L 311.786 430.886 C 312.148 429.99 313.17 429.558 314.065 429.921 L 349.763 444.377 C 350.659 444.74 351.092 445.761 350.729 446.657 L 350.729 446.657 C 350.366 447.553 349.345 447.985 348.449 447.623 L 312.751 433.166 C 311.856 432.803 311.423 431.782 311.786 430.886 Z " fill="rgb(230,239,194)"/><path d=" M 308.379 467.282 L 308.379 467.282 C 308.742 466.386 309.764 465.954 310.659 466.316 L 326.885 472.887 C 327.781 473.251 328.214 474.272 327.85 475.167 L 327.85 475.167 C 327.488 476.063 326.467 476.496 325.571 476.133 L 309.345 469.562 C 308.449 469.199 308.016 468.177 308.379 467.282 Z " fill="rgb(230,239,194)"/><path d=" M 311.397 445.839 L 311.397 445.839 C 311.759 444.944 312.781 444.511 313.676 444.873 L 339.639 455.387 C 340.534 455.749 340.967 456.772 340.604 457.667 L 340.604 457.667 C 340.242 458.562 339.22 458.995 338.324 458.633 L 312.362 448.118 C 311.467 447.756 311.034 446.734 311.397 445.839 Z " fill="rgb(230,239,194)"/><path d=" M 323.761 443.29 L 323.761 443.29 C 324.123 442.395 325.145 441.963 326.041 442.326 L 334.154 445.611 C 335.049 445.974 335.482 446.995 335.12 447.89 L 335.12 447.89 C 334.757 448.786 333.735 449.219 332.839 448.856 L 324.726 445.571 C 323.831 445.208 323.398 444.187 323.761 443.29 Z " fill="rgb(230,239,194)"/><path d=" M 321.91 419.876 L 321.91 419.876 C 322.273 418.981 323.295 418.548 324.19 418.911 L 350.152 429.425 C 351.048 429.788 351.481 430.809 351.118 431.704 L 351.118 431.704 C 350.755 432.6 349.734 433.033 348.838 432.67 L 322.876 422.156 C 321.98 421.794 321.548 420.772 321.91 419.876 Z " fill="rgb(230,239,194)"/><path d=" M 334.274 417.329 L 334.274 417.329 C 334.637 416.433 335.659 416 336.554 416.363 L 344.668 419.648 C 345.563 420.011 345.996 421.033 345.633 421.929 L 345.633 421.929 C 345.271 422.824 344.249 423.256 343.354 422.894 L 335.24 419.608 C 334.345 419.246 333.912 418.224 334.274 417.329 Z " fill="rgb(230,239,194)"/><path d=" M 52.785 473.532 C 55.716 474.745 59.025 473.725 60.824 471.276 L 75.142 477.205 C 75.944 477.537 76.871 477.153 77.203 476.351 C 77.535 475.549 77.151 474.621 76.349 474.289 L 62.032 468.36 C 62.518 465.279 60.825 462.268 57.941 461.081 C 55.011 459.867 51.701 460.888 49.902 463.336 L 35.09 457.202 C 34.287 456.87 33.36 457.254 33.027 458.056 C 32.695 458.858 33.08 459.786 33.882 460.118 L 48.694 466.252 C 48.215 469.332 49.906 472.34 52.785 473.532 L 52.785 473.532 Z  M 52.039 465.93 C 52.794 464.108 54.897 463.236 56.719 463.991 C 58.542 464.745 59.413 466.848 58.658 468.671 C 57.904 470.493 55.801 471.364 53.978 470.61 C 52.155 469.855 51.284 467.751 52.039 465.93 Z  M 47.528 480.287 L 69.995 489.592 C 70.797 489.923 71.724 489.54 72.057 488.737 C 72.388 487.936 72.004 487.008 71.202 486.675 L 48.735 477.372 C 49.214 474.358 47.589 471.312 44.645 470.092 C 41.7 468.872 38.405 469.899 36.605 472.348 L 29.957 469.594 C 29.155 469.263 28.227 469.647 27.895 470.448 C 27.563 471.251 27.948 472.178 28.749 472.511 L 35.398 475.264 C 34.919 478.276 36.543 481.324 39.489 482.543 C 42.434 483.762 45.737 482.756 47.528 480.287 L 47.528 480.287 Z  M 38.757 474.947 C 39.512 473.125 41.615 472.253 43.437 473.008 C 45.259 473.763 46.131 475.866 45.376 477.688 C 44.621 479.511 42.519 480.381 40.696 479.627 C 38.873 478.872 38.003 476.769 38.757 474.947 Z  M 49.98 501.423 C 52.91 502.636 56.219 501.616 58.019 499.167 L 64.857 501.999 C 65.658 502.331 66.587 501.947 66.919 501.144 C 67.25 500.343 66.866 499.415 66.064 499.082 L 59.227 496.251 C 59.712 493.171 58.019 490.159 55.136 488.972 C 52.205 487.758 48.896 488.779 47.097 491.227 L 24.819 482.002 C 24.017 481.67 23.09 482.054 22.757 482.855 C 22.425 483.658 22.809 484.585 23.611 484.918 L 45.903 494.149 C 45.424 497.224 47.108 500.227 49.98 501.423 L 49.98 501.423 Z  M 49.254 493.812 C 50.009 491.99 52.112 491.118 53.935 491.873 C 55.756 492.628 56.628 494.731 55.873 496.553 C 55.118 498.376 53.016 499.247 51.193 498.492 C 49.365 497.752 48.493 495.649 49.254 493.812 Z  M 32.557 508.641 C 35.407 509.815 38.691 508.912 40.538 506.446 L 59.724 514.391 C 60.526 514.723 61.454 514.339 61.786 513.537 C 62.118 512.735 61.734 511.808 60.932 511.475 L 41.789 503.548 C 42.309 500.518 40.679 497.401 37.72 496.175 C 34.76 494.949 31.425 495.993 29.63 498.512 L 19.687 494.394 C 18.885 494.062 17.957 494.447 17.624 495.249 C 17.293 496.05 17.678 496.978 18.479 497.31 L 28.451 501.44 C 28.041 504.413 29.656 507.439 32.557 508.641 L 32.557 508.641 Z  M 31.833 501.03 C 32.587 499.208 34.69 498.336 36.512 499.091 C 38.335 499.846 39.206 501.948 38.451 503.771 C 37.697 505.593 35.594 506.464 33.772 505.71 C 31.949 504.955 31.072 502.867 31.833 501.03 Z " fill="rgb(230,239,194)"/><path d=" M 184.614 474.809 C 187.545 476.022 190.854 475.002 192.654 472.553 L 206.971 478.483 C 207.773 478.814 208.701 478.43 209.032 477.628 C 209.365 476.826 208.98 475.898 208.178 475.566 L 193.861 469.637 C 194.346 466.557 192.655 463.545 189.771 462.358 C 186.84 461.144 183.531 462.165 181.731 464.614 L 166.918 458.48 C 166.116 458.147 165.189 458.532 164.856 459.333 C 164.525 460.135 164.909 461.063 165.711 461.395 L 180.524 467.529 C 180.044 470.609 181.734 473.617 184.614 474.809 L 184.614 474.809 Z  M 183.869 467.207 C 184.623 465.385 186.726 464.513 188.548 465.268 C 190.371 466.023 191.242 468.125 190.487 469.948 C 189.733 471.771 187.63 472.641 185.808 471.887 C 183.985 471.132 183.113 469.029 183.869 467.207 Z  M 179.357 481.564 L 201.824 490.869 C 202.626 491.201 203.554 490.817 203.886 490.015 C 204.218 489.213 203.834 488.285 203.032 487.953 L 180.565 478.649 C 181.044 475.636 179.419 472.589 176.474 471.369 C 173.529 470.15 170.234 471.176 168.434 473.625 L 161.786 470.872 C 160.985 470.54 160.057 470.924 159.725 471.726 C 159.392 472.528 159.777 473.456 160.578 473.788 L 167.227 476.541 C 166.748 479.553 168.373 482.601 171.318 483.82 C 174.262 485.04 177.566 484.034 179.357 481.564 L 179.357 481.564 Z  M 170.586 476.224 C 171.341 474.402 173.444 473.531 175.266 474.285 C 177.089 475.04 177.96 477.143 177.205 478.966 C 176.451 480.788 174.348 481.659 172.525 480.905 C 170.703 480.15 169.831 478.046 170.586 476.224 Z  M 181.809 502.7 C 184.739 503.913 188.048 502.893 189.848 500.445 L 196.686 503.276 C 197.488 503.608 198.415 503.224 198.748 502.422 C 199.079 501.62 198.695 500.692 197.893 500.36 L 191.056 497.528 C 191.541 494.448 189.849 491.436 186.965 490.249 C 184.035 489.035 180.725 490.056 178.925 492.505 L 156.648 483.279 C 155.846 482.947 154.918 483.331 154.586 484.133 C 154.254 484.935 154.639 485.863 155.44 486.195 L 177.733 495.427 C 177.254 498.501 178.937 501.504 181.809 502.7 L 181.809 502.7 Z  M 181.083 495.089 C 181.838 493.267 183.941 492.396 185.763 493.15 C 187.586 493.905 188.457 496.008 187.702 497.831 C 186.948 499.653 184.845 500.524 183.022 499.77 C 181.194 499.03 180.322 496.927 181.083 495.089 Z  M 164.387 509.918 C 167.236 511.092 170.52 510.19 172.367 507.723 L 191.554 515.668 C 192.356 516.001 193.283 515.616 193.615 514.814 C 193.948 514.013 193.563 513.085 192.761 512.753 L 173.619 504.825 C 174.139 501.795 172.509 498.678 169.55 497.452 C 166.59 496.226 163.254 497.27 161.459 499.79 L 151.515 495.672 C 150.714 495.339 149.786 495.724 149.454 496.526 C 149.122 497.327 149.507 498.255 150.308 498.587 L 160.281 502.717 C 159.869 505.69 161.486 508.716 164.387 509.918 L 164.387 509.918 Z  M 163.661 502.307 C 164.416 500.485 166.52 499.613 168.342 500.368 C 170.164 501.123 171.035 503.226 170.281 505.048 C 169.526 506.871 167.423 507.742 165.6 506.987 C 163.778 506.232 162.901 504.144 163.661 502.307 Z " fill="rgb(230,239,194)"/><path d=" M 848.768 452.578 C 851.698 453.791 855.007 452.77 856.807 450.322 L 871.125 456.251 C 871.926 456.583 872.854 456.199 873.185 455.397 C 873.518 454.595 873.134 453.666 872.332 453.335 L 858.014 447.406 C 858.5 444.325 856.808 441.313 853.924 440.127 C 850.994 438.913 847.684 439.934 845.884 442.382 L 831.072 436.248 C 830.27 435.916 829.342 436.3 829.01 437.102 C 828.678 437.903 829.063 438.832 829.864 439.164 L 844.677 445.298 C 844.198 448.378 845.888 451.386 848.768 452.578 L 848.768 452.578 Z  M 848.022 444.975 C 848.776 443.153 850.879 442.282 852.702 443.036 C 854.525 443.791 855.396 445.894 854.64 447.717 C 853.886 449.539 851.783 450.41 849.961 449.656 C 848.138 448.901 847.267 446.797 848.022 444.975 Z  M 843.511 459.333 L 865.978 468.637 C 866.779 468.969 867.707 468.585 868.039 467.783 C 868.371 466.982 867.987 466.053 867.185 465.721 L 844.718 456.417 C 845.197 453.404 843.572 450.358 840.627 449.138 C 837.683 447.918 834.387 448.945 832.588 451.393 L 825.94 448.64 C 825.138 448.308 824.21 448.693 823.878 449.494 C 823.546 450.297 823.93 451.224 824.732 451.557 L 831.38 454.31 C 830.901 457.322 832.526 460.369 835.471 461.589 C 838.416 462.808 841.72 461.802 843.511 459.333 L 843.511 459.333 Z  M 834.74 453.993 C 835.494 452.171 837.597 451.299 839.419 452.054 C 841.242 452.808 842.114 454.912 841.359 456.734 C 840.604 458.556 838.501 459.427 836.679 458.673 C 834.856 457.918 833.985 455.815 834.74 453.993 Z  M 845.962 480.469 C 848.893 481.682 852.202 480.661 854.001 478.213 L 860.839 481.045 C 861.641 481.376 862.569 480.992 862.901 480.19 C 863.233 479.389 862.848 478.46 862.047 478.128 L 855.209 475.297 C 855.695 472.216 854.002 469.205 851.118 468.018 C 848.188 466.804 844.879 467.825 843.079 470.273 L 820.802 461.047 C 819.999 460.716 819.072 461.1 818.74 461.902 C 818.408 462.704 818.792 463.631 819.594 463.964 L 841.886 473.195 C 841.407 476.27 843.09 479.272 845.962 480.469 L 845.962 480.469 Z  M 845.237 472.858 C 845.991 471.035 848.095 470.164 849.917 470.919 C 851.739 471.674 852.611 473.777 851.856 475.599 C 851.101 477.421 848.999 478.293 847.175 477.538 C 845.347 476.798 844.476 474.695 845.237 472.858 Z  M 828.54 487.686 C 831.389 488.861 834.673 487.958 836.52 485.492 L 855.707 493.437 C 856.509 493.769 857.436 493.384 857.769 492.583 C 858.101 491.781 857.717 490.854 856.914 490.521 L 837.772 482.593 C 838.292 479.564 836.662 476.446 833.703 475.221 C 830.743 473.995 827.408 475.039 825.613 477.558 L 815.669 473.44 C 814.868 473.108 813.939 473.492 813.607 474.295 C 813.276 475.096 813.66 476.024 814.462 476.356 L 824.434 480.486 C 824.023 483.458 825.639 486.484 828.54 487.686 L 828.54 487.686 Z  M 827.815 480.075 C 828.57 478.253 830.673 477.382 832.495 478.136 C 834.318 478.892 835.189 480.994 834.434 482.817 C 833.679 484.639 831.576 485.51 829.754 484.756 C 827.932 484.001 827.055 481.913 827.815 480.075 Z " fill="rgb(230,239,194)"/><path d=" M 578.363 272.563 L 578.363 272.563 C 578.725 271.668 579.746 271.234 580.641 271.596 L 635.829 293.893 C 636.725 294.255 637.159 295.276 636.797 296.172 L 636.797 296.172 C 636.435 297.068 635.414 297.502 634.518 297.14 L 579.33 274.842 C 578.434 274.48 578.001 273.459 578.363 272.563 Z " fill="rgb(230,239,194)"/><path d=" M 585.479 282.991 L 585.479 282.991 C 585.841 282.095 586.862 281.661 587.758 282.023 L 623.467 296.451 C 624.363 296.813 624.797 297.834 624.435 298.73 L 624.435 298.73 C 624.073 299.626 623.051 300.06 622.156 299.698 L 586.446 285.269 C 585.55 284.908 585.117 283.887 585.479 282.991 Z " fill="rgb(230,239,194)"/><path d=" M 588.855 246.592 L 588.855 246.592 C 589.217 245.696 590.239 245.263 591.134 245.625 L 646.322 267.923 C 647.218 268.285 647.652 269.306 647.29 270.201 L 647.29 270.201 C 646.928 271.097 645.907 271.53 645.011 271.168 L 589.822 248.871 C 588.927 248.509 588.493 247.488 588.855 246.592 Z " fill="rgb(230,239,194)"/><path d=" M 595.972 257.02 L 595.972 257.02 C 596.334 256.124 597.355 255.691 598.251 256.053 L 633.96 270.48 C 634.856 270.842 635.29 271.863 634.927 272.759 L 634.927 272.759 C 634.566 273.655 633.544 274.088 632.649 273.726 L 596.939 259.299 C 596.043 258.937 595.609 257.916 595.972 257.02 Z " fill="rgb(230,239,194)"/><path d=" M 592.594 293.418 L 592.594 293.418 C 592.956 292.523 593.977 292.089 594.873 292.451 L 611.105 299.009 C 612 299.371 612.435 300.392 612.072 301.288 L 612.072 301.288 C 611.71 302.184 610.689 302.618 609.794 302.256 L 593.562 295.697 C 592.666 295.335 592.232 294.314 592.594 293.418 Z " fill="rgb(230,239,194)"/><path d=" M 595.594 271.973 L 595.594 271.973 C 595.956 271.077 596.977 270.643 597.873 271.005 L 623.844 281.498 C 624.74 281.86 625.174 282.882 624.812 283.778 L 624.812 283.778 C 624.45 284.673 623.429 285.107 622.533 284.745 L 596.561 274.252 C 595.666 273.89 595.232 272.869 595.594 271.973 Z " fill="rgb(230,239,194)"/><path d=" M 607.957 269.415 L 607.957 269.415 C 608.318 268.519 609.34 268.085 610.235 268.447 L 618.352 271.726 C 619.248 272.088 619.681 273.109 619.319 274.006 L 619.319 274.006 C 618.957 274.902 617.936 275.335 617.04 274.973 L 608.924 271.694 C 608.028 271.332 607.595 270.311 607.957 269.415 Z " fill="rgb(230,239,194)"/><path d=" M 606.087 246.002 L 606.087 246.002 C 606.449 245.106 607.47 244.673 608.366 245.034 L 634.337 255.527 C 635.233 255.889 635.667 256.91 635.305 257.806 L 635.305 257.806 C 634.943 258.702 633.922 259.136 633.025 258.774 L 607.054 248.281 C 606.159 247.919 605.725 246.898 606.087 246.002 Z " fill="rgb(230,239,194)"/><path d=" M 618.45 243.444 L 618.45 243.444 C 618.811 242.548 619.832 242.115 620.728 242.476 L 628.845 245.756 C 629.741 246.118 630.174 247.139 629.812 248.034 L 629.812 248.034 C 629.45 248.93 628.429 249.364 627.533 249.002 L 619.417 245.723 C 618.521 245.361 618.088 244.34 618.45 243.444 Z " fill="rgb(230,239,194)"/><path d=" M 686.4 212.503 L 686.4 212.503 C 686.763 211.607 687.785 211.175 688.68 211.538 L 743.85 233.88 C 744.746 234.242 745.178 235.264 744.816 236.16 L 744.816 236.16 C 744.453 237.055 743.432 237.488 742.536 237.125 L 687.366 214.783 C 686.47 214.42 686.038 213.399 686.4 212.503 Z " fill="rgb(230,239,194)"/><path d=" M 693.508 222.937 L 693.508 222.937 C 693.87 222.041 694.892 221.608 695.788 221.971 L 731.486 236.428 C 732.382 236.79 732.814 237.811 732.451 238.707 L 732.451 238.707 C 732.089 239.603 731.067 240.036 730.171 239.673 L 694.473 225.216 C 693.578 224.853 693.146 223.832 693.508 222.937 Z " fill="rgb(230,239,194)"/><path d=" M 696.915 186.541 L 696.915 186.541 C 697.277 185.646 698.299 185.213 699.194 185.575 L 754.364 207.917 C 755.26 208.28 755.692 209.302 755.329 210.197 L 755.329 210.197 C 754.967 211.092 753.945 211.525 753.05 211.162 L 697.88 188.82 C 696.984 188.458 696.551 187.436 696.915 186.541 Z " fill="rgb(230,239,194)"/><path d=" M 704.022 196.974 L 704.022 196.974 C 704.385 196.078 705.406 195.646 706.302 196.008 L 742 210.465 C 742.895 210.828 743.328 211.849 742.965 212.745 L 742.965 212.745 C 742.603 213.641 741.581 214.073 740.686 213.71 L 704.987 199.254 C 704.091 198.891 703.659 197.87 704.022 196.974 Z " fill="rgb(230,239,194)"/><path d=" M 700.616 233.37 L 700.616 233.37 C 700.978 232.474 701.999 232.042 702.895 232.404 L 719.122 238.975 C 720.017 239.338 720.45 240.36 720.087 241.255 L 720.087 241.255 C 719.725 242.151 718.703 242.584 717.807 242.22 L 701.581 235.65 C 700.685 235.287 700.253 234.265 700.616 233.37 Z " fill="rgb(230,239,194)"/><path d=" M 703.633 211.927 L 703.633 211.927 C 703.996 211.031 705.017 210.599 705.913 210.961 L 731.875 221.475 C 732.77 221.837 733.203 222.859 732.841 223.755 L 732.841 223.755 C 732.478 224.65 731.456 225.083 730.56 224.721 L 704.599 214.206 C 703.703 213.844 703.27 212.822 703.633 211.927 Z " fill="rgb(230,239,194)"/><path d=" M 715.997 209.378 L 715.997 209.378 C 716.36 208.483 717.382 208.051 718.277 208.413 L 726.39 211.699 C 727.285 212.062 727.718 213.083 727.356 213.978 L 727.356 213.978 C 726.993 214.874 725.972 215.307 725.076 214.944 L 716.963 211.658 C 716.067 211.296 715.634 210.274 715.997 209.378 Z " fill="rgb(230,239,194)"/><path d=" M 714.147 185.964 L 714.147 185.964 C 714.509 185.068 715.531 184.636 716.426 184.999 L 742.389 195.513 C 743.285 195.876 743.717 196.897 743.354 197.792 L 743.354 197.792 C 742.992 198.688 741.97 199.121 741.075 198.758 L 715.112 188.244 C 714.217 187.882 713.784 186.86 714.147 185.964 Z " fill="rgb(230,239,194)"/><path d=" M 726.511 183.417 L 726.511 183.417 C 726.874 182.521 727.895 182.088 728.791 182.451 L 736.904 185.736 C 737.8 186.099 738.233 187.121 737.869 188.017 L 737.869 188.017 C 737.507 188.912 736.485 189.344 735.59 188.982 L 727.477 185.696 C 726.581 185.333 726.148 184.312 726.511 183.417 Z " fill="rgb(230,239,194)"/><path d=" M 835.786 383.291 L 835.786 383.291 C 836.149 382.396 837.17 381.962 838.066 382.325 L 893.235 404.667 C 894.132 405.03 894.565 406.051 894.201 406.947 L 894.201 406.947 C 893.838 407.842 892.817 408.275 891.922 407.912 L 836.751 385.57 C 835.856 385.208 835.424 384.186 835.786 383.291 Z " fill="rgb(230,239,194)"/><path d=" M 842.894 393.723 L 842.894 393.723 C 843.256 392.828 844.278 392.396 845.173 392.758 L 880.871 407.214 C 881.767 407.578 882.2 408.599 881.837 409.495 L 881.837 409.495 C 881.474 410.39 880.453 410.823 879.558 410.46 L 843.859 396.004 C 842.964 395.641 842.531 394.62 842.894 393.723 Z " fill="rgb(230,239,194)"/><path d=" M 846.3 357.328 L 846.3 357.328 C 846.663 356.432 847.684 356 848.58 356.363 L 903.75 378.704 C 904.645 379.067 905.078 380.089 904.715 380.984 L 904.715 380.984 C 904.353 381.88 903.331 382.313 902.435 381.95 L 847.266 359.608 C 846.369 359.246 845.937 358.224 846.3 357.328 Z " fill="rgb(230,239,194)"/><path d=" M 853.407 367.762 L 853.407 367.762 C 853.77 366.866 854.791 366.433 855.687 366.796 L 891.385 381.253 C 892.281 381.615 892.714 382.637 892.351 383.532 L 892.351 383.532 C 891.988 384.428 890.966 384.861 890.071 384.498 L 854.373 370.041 C 853.477 369.678 853.045 368.657 853.407 367.762 Z " fill="rgb(230,239,194)"/><path d=" M 850.001 404.157 L 850.001 404.157 C 850.364 403.262 851.385 402.829 852.281 403.192 L 868.507 409.763 C 869.402 410.125 869.835 411.147 869.473 412.042 L 869.473 412.042 C 869.11 412.938 868.088 413.37 867.193 413.008 L 850.967 406.437 C 850.071 406.074 849.638 405.053 850.001 404.157 Z " fill="rgb(230,239,194)"/><path d=" M 853.018 382.714 L 853.018 382.714 C 853.381 381.818 854.402 381.386 855.299 381.748 L 881.26 392.263 C 882.156 392.625 882.589 393.646 882.226 394.542 L 882.226 394.542 C 881.863 395.438 880.842 395.871 879.947 395.508 L 853.984 384.993 C 853.088 384.631 852.656 383.61 853.018 382.714 Z " fill="rgb(230,239,194)"/><path d=" M 865.383 380.166 L 865.383 380.166 C 865.745 379.271 866.767 378.838 867.663 379.201 L 875.776 382.486 C 876.672 382.849 877.104 383.871 876.741 384.766 L 876.741 384.766 C 876.379 385.662 875.357 386.094 874.461 385.731 L 866.348 382.446 C 865.453 382.083 865.02 381.062 865.383 380.166 Z " fill="rgb(230,239,194)"/><path d=" M 863.532 356.752 L 863.532 356.752 C 863.895 355.856 864.917 355.423 865.812 355.786 L 891.775 366.3 C 892.67 366.663 893.103 367.684 892.74 368.58 L 892.74 368.58 C 892.377 369.476 891.356 369.908 890.46 369.545 L 864.498 359.032 C 863.602 358.669 863.169 357.647 863.532 356.752 Z " fill="rgb(230,239,194)"/><path d=" M 875.897 354.204 L 875.897 354.204 C 876.259 353.308 877.281 352.876 878.177 353.238 L 886.29 356.524 C 887.185 356.886 887.618 357.908 887.255 358.804 L 887.255 358.804 C 886.893 359.699 885.871 360.132 884.975 359.77 L 876.863 356.484 C 875.966 356.121 875.534 355.099 875.897 354.204 Z " fill="rgb(230,239,194)"/><path d=" M 589.164 376.088 L 589.164 376.088 C 589.527 375.193 590.549 374.759 591.444 375.122 L 646.614 397.464 C 647.51 397.827 647.942 398.849 647.58 399.744 L 647.58 399.744 C 647.217 400.64 646.196 401.072 645.299 400.71 L 590.13 378.367 C 589.234 378.005 588.801 376.984 589.164 376.088 Z " fill="rgb(230,239,194)"/><path d=" M 596.272 386.521 L 596.272 386.521 C 596.634 385.626 597.656 385.193 598.552 385.556 L 634.25 400.012 C 635.145 400.375 635.577 401.396 635.215 402.292 L 635.215 402.292 C 634.853 403.188 633.831 403.62 632.935 403.258 L 597.237 388.801 C 596.341 388.438 595.909 387.417 596.272 386.521 Z " fill="rgb(230,239,194)"/><path d=" M 599.678 350.125 L 599.678 350.125 C 600.041 349.23 601.062 348.798 601.958 349.16 L 657.128 371.502 C 658.023 371.865 658.456 372.886 658.093 373.782 L 658.093 373.782 C 657.731 374.678 656.709 375.11 655.814 374.747 L 600.644 352.406 C 599.748 352.043 599.315 351.021 599.678 350.125 Z " fill="rgb(230,239,194)"/><path d=" M 606.786 360.559 L 606.786 360.559 C 607.149 359.663 608.17 359.23 609.065 359.593 L 644.764 374.05 C 645.659 374.413 646.092 375.434 645.729 376.329 L 645.729 376.329 C 645.366 377.225 644.345 377.658 643.45 377.295 L 607.751 362.838 C 606.855 362.476 606.422 361.455 606.786 360.559 Z " fill="rgb(230,239,194)"/><path d=" M 603.379 396.955 L 603.379 396.955 C 603.742 396.059 604.763 395.626 605.659 395.989 L 621.886 402.56 C 622.781 402.923 623.213 403.944 622.851 404.839 L 622.851 404.839 C 622.488 405.736 621.467 406.168 620.571 405.805 L 604.345 399.234 C 603.449 398.872 603.017 397.85 603.379 396.955 Z " fill="rgb(230,239,194)"/><path d=" M 606.397 375.511 L 606.397 375.511 C 606.76 374.616 607.781 374.183 608.676 374.546 L 634.639 385.06 C 635.534 385.423 635.967 386.444 635.604 387.339 L 635.604 387.339 C 635.242 388.235 634.22 388.668 633.324 388.305 L 607.362 377.791 C 606.466 377.429 606.034 376.407 606.397 375.511 Z " fill="rgb(230,239,194)"/><path d=" M 618.761 372.963 L 618.761 372.963 C 619.124 372.068 620.145 371.635 621.04 371.998 L 629.154 375.283 C 630.049 375.646 630.482 376.668 630.119 377.563 L 630.119 377.563 C 629.756 378.459 628.735 378.891 627.84 378.529 L 619.727 375.243 C 618.831 374.881 618.398 373.859 618.761 372.963 Z " fill="rgb(230,239,194)"/><path d=" M 616.911 349.549 L 616.911 349.549 C 617.273 348.653 618.294 348.221 619.19 348.584 L 645.153 359.097 C 646.048 359.46 646.481 360.481 646.118 361.377 L 646.118 361.377 C 645.756 362.273 644.734 362.705 643.839 362.343 L 617.876 351.829 C 616.98 351.466 616.548 350.444 616.911 349.549 Z " fill="rgb(230,239,194)"/><path d=" M 629.275 347.001 L 629.275 347.001 C 629.637 346.106 630.659 345.673 631.555 346.036 L 639.667 349.322 C 640.564 349.684 640.996 350.705 640.633 351.601 L 640.633 351.601 C 640.271 352.496 639.249 352.929 638.353 352.567 L 630.24 349.281 C 629.345 348.918 628.912 347.896 629.275 347.001 Z " fill="rgb(230,239,194)"/><path d=" M 843.525 95.975 L 843.525 95.975 C 843.888 95.079 844.91 94.647 845.805 95.009 L 900.975 117.351 C 901.87 117.714 902.303 118.735 901.94 119.631 L 901.94 119.631 C 901.578 120.527 900.556 120.959 899.661 120.597 L 844.491 98.254 C 843.595 97.892 843.162 96.87 843.525 95.975 Z " fill="rgb(230,239,194)"/><path d=" M 850.632 106.408 L 850.632 106.408 C 850.995 105.513 852.017 105.08 852.913 105.442 L 888.61 119.899 C 889.506 120.261 889.939 121.283 889.576 122.178 L 889.576 122.178 C 889.214 123.075 888.192 123.507 887.296 123.144 L 851.598 108.687 C 850.703 108.325 850.27 107.303 850.632 106.408 Z " fill="rgb(230,239,194)"/><path d=" M 854.039 70.012 L 854.039 70.012 C 854.402 69.117 855.423 68.684 856.319 69.047 L 911.488 91.389 C 912.384 91.752 912.817 92.773 912.454 93.668 L 912.454 93.668 C 912.091 94.564 911.07 94.997 910.175 94.634 L 855.004 72.292 C 854.109 71.929 853.676 70.908 854.039 70.012 Z " fill="rgb(230,239,194)"/><path d=" M 861.147 80.446 L 861.147 80.446 C 861.509 79.55 862.53 79.118 863.426 79.48 L 899.124 93.937 C 900.019 94.299 900.452 95.321 900.09 96.217 L 900.09 96.217 C 899.727 97.112 898.706 97.544 897.81 97.182 L 862.112 82.725 C 861.216 82.363 860.783 81.341 861.147 80.446 Z " fill="rgb(230,239,194)"/><path d=" M 857.74 116.841 L 857.74 116.841 C 858.102 115.945 859.124 115.513 860.02 115.876 L 876.246 122.447 C 877.142 122.81 877.574 123.831 877.212 124.726 L 877.212 124.726 C 876.849 125.622 875.827 126.055 874.932 125.692 L 858.706 119.121 C 857.81 118.758 857.377 117.737 857.74 116.841 Z " fill="rgb(230,239,194)"/><path d=" M 860.758 95.398 L 860.758 95.398 C 861.12 94.503 862.141 94.07 863.037 94.433 L 889 104.946 C 889.895 105.309 890.327 106.331 889.965 107.227 L 889.965 107.227 C 889.603 108.122 888.581 108.554 887.685 108.192 L 861.723 97.678 C 860.828 97.315 860.395 96.293 860.758 95.398 Z " fill="rgb(230,239,194)"/><path d=" M 873.122 92.85 L 873.122 92.85 C 873.485 91.955 874.506 91.522 875.401 91.884 L 883.515 95.171 C 884.41 95.533 884.843 96.554 884.481 97.45 L 884.481 97.45 C 884.117 98.346 883.096 98.779 882.2 98.416 L 874.087 95.13 C 873.192 94.768 872.759 93.746 873.122 92.85 Z " fill="rgb(230,239,194)"/><path d=" M 871.271 69.436 L 871.271 69.436 C 871.634 68.54 872.655 68.107 873.551 68.47 L 899.513 78.984 C 900.408 79.347 900.841 80.368 900.479 81.263 L 900.479 81.263 C 900.116 82.16 899.095 82.593 898.2 82.229 L 872.237 71.715 C 871.341 71.353 870.909 70.332 871.271 69.436 Z " fill="rgb(230,239,194)"/><path d=" M 883.636 66.888 L 883.636 66.888 C 883.998 65.993 885.02 65.56 885.915 65.923 L 894.029 69.208 C 894.925 69.571 895.357 70.592 894.994 71.488 L 894.994 71.488 C 894.631 72.383 893.61 72.816 892.714 72.453 L 884.601 69.168 C 883.705 68.805 883.273 67.783 883.636 66.888 Z " fill="rgb(230,239,194)"/><path d=" M 741.519 313.088 C 744.449 314.303 747.758 313.282 749.558 310.833 L 763.875 316.762 C 764.677 317.094 765.604 316.71 765.937 315.908 C 766.269 315.106 765.885 314.178 765.082 313.846 L 750.766 307.917 C 751.251 304.836 749.559 301.825 746.675 300.638 C 743.745 299.424 740.435 300.445 738.635 302.893 L 723.823 296.759 C 723.021 296.427 722.093 296.811 721.761 297.613 C 721.429 298.415 721.813 299.343 722.615 299.675 L 737.427 305.81 C 736.949 308.889 738.639 311.896 741.519 313.088 L 741.519 313.088 Z  M 740.772 305.487 C 741.528 303.664 743.63 302.793 745.453 303.547 C 747.275 304.303 748.146 306.405 747.392 308.228 C 746.637 310.05 744.534 310.922 742.711 310.166 C 740.889 309.412 740.018 307.309 740.772 305.487 Z  M 736.262 319.845 L 758.728 329.148 C 759.53 329.481 760.458 329.096 760.79 328.294 C 761.122 327.493 760.738 326.565 759.936 326.233 L 737.469 316.928 C 737.948 313.916 736.323 310.869 733.378 309.649 C 730.433 308.43 727.138 309.456 725.339 311.905 L 718.691 309.152 C 717.889 308.819 716.961 309.204 716.628 310.005 C 716.297 310.808 716.681 311.736 717.483 312.067 L 724.131 314.82 C 723.652 317.834 725.277 320.88 728.222 322.1 C 731.167 323.32 734.47 322.313 736.262 319.845 L 736.262 319.845 Z  M 727.49 314.504 C 728.246 312.681 730.348 311.811 732.171 312.565 C 733.993 313.32 734.865 315.423 734.11 317.245 C 733.354 319.067 731.252 319.939 729.429 319.184 C 727.607 318.43 726.736 316.326 727.49 314.504 Z  M 738.713 340.979 C 741.643 342.194 744.953 341.173 746.753 338.724 L 753.59 341.555 C 754.392 341.888 755.32 341.504 755.652 340.701 C 755.984 339.9 755.599 338.972 754.798 338.64 L 747.96 335.808 C 748.445 332.727 746.753 329.716 743.869 328.529 C 740.939 327.315 737.63 328.336 735.83 330.784 L 713.552 321.559 C 712.75 321.227 711.823 321.611 711.491 322.413 C 711.159 323.215 711.543 324.143 712.345 324.475 L 734.637 333.706 C 734.158 336.78 735.841 339.784 738.713 340.979 L 738.713 340.979 Z  M 737.987 333.369 C 738.742 331.546 740.846 330.675 742.668 331.43 C 744.49 332.185 745.361 334.288 744.607 336.11 C 743.852 337.932 741.749 338.804 739.926 338.049 C 738.098 337.309 737.227 335.206 737.987 333.369 Z  M 721.291 348.197 C 724.141 349.372 727.424 348.47 729.272 346.002 L 748.458 353.948 C 749.26 354.28 750.188 353.896 750.52 353.094 C 750.852 352.293 750.467 351.364 749.666 351.032 L 730.522 343.105 C 731.043 340.075 729.413 336.958 726.453 335.732 C 723.494 334.506 720.158 335.55 718.363 338.069 L 708.421 333.951 C 707.618 333.619 706.691 334.004 706.358 334.805 C 706.026 335.608 706.411 336.535 707.213 336.867 L 717.185 340.997 C 716.774 343.969 718.389 346.996 721.291 348.197 L 721.291 348.197 Z  M 720.566 340.587 C 721.321 338.764 723.423 337.893 725.246 338.648 C 727.069 339.403 727.94 341.506 727.185 343.328 C 726.431 345.15 724.328 346.022 722.505 345.267 C 720.682 344.512 719.805 342.424 720.566 340.587 Z " fill="rgb(230,239,194)"/><path d=" M 622.88 114.993 C 625.81 116.206 629.119 115.186 630.919 112.737 L 645.237 118.666 C 646.038 118.998 646.966 118.614 647.298 117.812 C 647.63 117.01 647.246 116.083 646.444 115.75 L 632.127 109.821 C 632.612 106.74 630.92 103.729 628.036 102.542 C 625.106 101.328 621.796 102.349 619.997 104.798 L 605.184 98.664 C 604.382 98.331 603.454 98.716 603.122 99.517 C 602.79 100.319 603.175 101.247 603.976 101.579 L 618.789 107.713 C 618.31 110.793 620 113.801 622.88 114.993 L 622.88 114.993 Z  M 622.134 107.391 C 622.889 105.569 624.991 104.697 626.814 105.452 C 628.637 106.206 629.508 108.309 628.753 110.132 C 627.998 111.955 625.895 112.826 624.073 112.071 C 622.25 111.316 621.379 109.213 622.134 107.391 Z  M 617.622 121.749 L 640.09 131.053 C 640.891 131.385 641.819 131.001 642.151 130.199 C 642.483 129.397 642.099 128.469 641.297 128.137 L 618.83 118.833 C 619.309 115.819 617.684 112.773 614.739 111.553 C 611.795 110.333 608.499 111.36 606.7 113.809 L 600.052 111.055 C 599.25 110.724 598.322 111.108 597.99 111.91 C 597.658 112.712 598.042 113.64 598.844 113.972 L 605.492 116.725 C 605.013 119.738 606.638 122.785 609.584 124.005 C 612.528 125.224 615.832 124.218 617.622 121.749 L 617.622 121.749 Z  M 608.852 116.408 C 609.606 114.586 611.709 113.714 613.532 114.469 C 615.354 115.224 616.226 117.327 615.471 119.149 C 614.716 120.972 612.613 121.843 610.791 121.089 C 608.968 120.334 608.097 118.231 608.852 116.408 Z  M 620.074 142.884 C 623.005 144.097 626.314 143.077 628.113 140.628 L 634.951 143.46 C 635.753 143.792 636.681 143.408 637.014 142.606 C 637.345 141.804 636.961 140.876 636.159 140.544 L 629.321 137.712 C 629.807 134.632 628.114 131.621 625.23 130.433 C 622.3 129.219 618.991 130.24 617.191 132.689 L 594.914 123.463 C 594.112 123.131 593.184 123.515 592.852 124.317 C 592.52 125.119 592.904 126.047 593.706 126.379 L 615.998 135.611 C 615.519 138.685 617.202 141.688 620.074 142.884 L 620.074 142.884 Z  M 619.349 135.274 C 620.103 133.451 622.206 132.579 624.029 133.335 C 625.851 134.089 626.723 136.192 625.968 138.014 C 625.213 139.837 623.111 140.708 621.287 139.954 C 619.46 139.213 618.588 137.111 619.349 135.274 Z  M 602.652 150.102 C 605.501 151.276 608.785 150.373 610.632 147.907 L 629.819 155.852 C 630.621 156.185 631.549 155.8 631.881 154.998 C 632.213 154.197 631.829 153.269 631.027 152.937 L 611.884 145.009 C 612.404 141.979 610.774 138.862 607.815 137.636 C 604.855 136.41 601.52 137.454 599.725 139.974 L 589.781 135.856 C 588.98 135.523 588.051 135.908 587.719 136.71 C 587.388 137.512 587.772 138.439 588.574 138.771 L 598.546 142.901 C 598.135 145.874 599.751 148.9 602.652 150.102 L 602.652 150.102 Z  M 601.927 142.491 C 602.682 140.669 604.785 139.797 606.607 140.552 C 608.43 141.307 609.301 143.409 608.546 145.232 C 607.791 147.055 605.688 147.926 603.866 147.171 C 602.044 146.416 601.167 144.328 601.927 142.491 Z " fill="rgb(230,239,194)"/><path d=" M 778.146 100.706 C 781.076 101.919 784.386 100.899 786.185 98.45 L 800.502 104.379 C 801.304 104.712 802.232 104.327 802.564 103.525 C 802.895 102.724 802.511 101.796 801.71 101.464 L 787.393 95.535 C 787.878 92.454 786.185 89.443 783.302 88.255 C 780.371 87.042 777.062 88.063 775.262 90.511 L 760.449 84.376 C 759.648 84.044 758.72 84.428 758.388 85.231 C 758.056 86.033 758.44 86.961 759.242 87.292 L 774.055 93.427 C 773.576 96.507 775.266 99.514 778.146 100.706 L 778.146 100.706 Z  M 777.399 93.104 C 778.154 91.282 780.257 90.41 782.08 91.165 C 783.902 91.92 784.773 94.023 784.019 95.845 C 783.264 97.667 781.16 98.539 779.338 97.784 C 777.516 97.029 776.645 94.927 777.399 93.104 Z  M 772.888 107.461 L 795.356 116.766 C 796.157 117.098 797.085 116.714 797.417 115.911 C 797.749 115.11 797.364 114.182 796.563 113.851 L 774.095 104.546 C 774.574 101.534 772.95 98.486 770.005 97.267 C 767.06 96.047 763.765 97.074 761.965 99.523 L 755.318 96.769 C 754.515 96.437 753.588 96.822 753.256 97.623 C 752.923 98.425 753.308 99.352 754.11 99.685 L 760.758 102.438 C 760.279 105.45 761.904 108.498 764.849 109.717 C 767.794 110.937 771.097 109.93 772.888 107.461 L 772.888 107.461 Z  M 764.117 102.121 C 764.872 100.299 766.975 99.428 768.797 100.182 C 770.62 100.937 771.491 103.04 770.737 104.863 C 769.981 106.685 767.879 107.556 766.056 106.802 C 764.234 106.046 763.362 103.944 764.117 102.121 Z  M 775.339 128.597 C 778.27 129.81 781.579 128.79 783.379 126.341 L 790.217 129.173 C 791.019 129.506 791.947 129.121 792.279 128.319 C 792.611 127.517 792.227 126.589 791.424 126.258 L 784.587 123.426 C 785.072 120.345 783.38 117.334 780.497 116.146 C 777.566 114.933 774.257 115.954 772.457 118.402 L 750.179 109.176 C 749.378 108.844 748.45 109.229 748.118 110.03 C 747.785 110.832 748.17 111.76 748.971 112.092 L 771.263 121.324 C 770.784 124.398 772.468 127.401 775.339 128.597 L 775.339 128.597 Z  M 774.615 120.986 C 775.369 119.164 777.472 118.293 779.295 119.047 C 781.117 119.803 781.988 121.905 781.234 123.728 C 780.479 125.55 778.376 126.421 776.553 125.667 C 774.725 124.926 773.854 122.823 774.615 120.986 Z  M 757.918 135.815 C 760.767 136.989 764.051 136.087 765.898 133.62 L 785.085 141.566 C 785.886 141.898 786.815 141.513 787.146 140.712 C 787.479 139.909 787.094 138.982 786.292 138.649 L 767.149 130.722 C 767.669 127.693 766.04 124.575 763.081 123.35 C 760.12 122.124 756.785 123.168 754.99 125.687 L 745.047 121.569 C 744.245 121.237 743.317 121.621 742.985 122.423 C 742.653 123.224 743.037 124.153 743.84 124.485 L 753.811 128.615 C 753.401 131.587 755.017 134.614 757.918 135.815 L 757.918 135.815 Z  M 757.193 128.204 C 757.948 126.382 760.051 125.511 761.873 126.265 C 763.695 127.02 764.567 129.123 763.812 130.946 C 763.057 132.768 760.954 133.639 759.132 132.884 C 757.309 132.13 756.432 130.041 757.193 128.204 Z " fill="rgb(230,239,194)"/><path d=" M 683.054 22.1 C 685.984 23.313 689.294 22.293 691.093 19.845 L 705.41 25.774 C 706.212 26.106 707.139 25.721 707.472 24.919 C 707.803 24.118 707.419 23.19 706.618 22.858 L 692.301 16.929 C 692.786 13.848 691.093 10.837 688.21 9.649 C 685.279 8.436 681.97 9.457 680.17 11.905 L 665.357 5.771 C 664.556 5.438 663.628 5.823 663.296 6.625 C 662.964 7.427 663.348 8.355 664.15 8.686 L 678.963 14.821 C 678.484 17.901 680.174 20.909 683.054 22.1 L 683.054 22.1 Z  M 682.307 14.498 C 683.062 12.676 685.165 11.804 686.988 12.559 C 688.81 13.314 689.681 15.417 688.927 17.239 C 688.172 19.062 686.068 19.933 684.246 19.179 C 682.424 18.423 681.553 16.321 682.307 14.498 Z  M 677.796 28.855 L 700.263 38.161 C 701.065 38.492 701.993 38.108 702.325 37.306 C 702.657 36.504 702.272 35.576 701.471 35.245 L 679.003 25.94 C 679.482 22.928 677.858 19.881 674.913 18.661 C 671.968 17.441 668.673 18.468 666.873 20.917 L 660.226 18.163 C 659.423 17.831 658.496 18.216 658.164 19.017 C 657.831 19.819 658.216 20.747 659.018 21.079 L 665.666 23.833 C 665.187 26.845 666.812 29.892 669.757 31.111 C 672.702 32.331 676.005 31.325 677.796 28.855 L 677.796 28.855 Z  M 669.025 23.516 C 669.78 21.693 671.883 20.822 673.705 21.577 C 675.528 22.331 676.399 24.434 675.645 26.257 C 674.889 28.079 672.787 28.95 670.964 28.196 C 669.142 27.441 668.27 25.338 669.025 23.516 Z  M 680.247 49.992 C 683.178 51.204 686.487 50.184 688.287 47.736 L 695.125 50.568 C 695.927 50.9 696.855 50.515 697.187 49.713 C 697.519 48.911 697.135 47.983 696.332 47.652 L 689.495 44.82 C 689.98 41.739 688.288 38.728 685.405 37.54 C 682.474 36.327 679.165 37.348 677.365 39.796 L 655.087 30.57 C 654.286 30.238 653.358 30.623 653.026 31.424 C 652.693 32.227 653.078 33.154 653.879 33.486 L 676.171 42.718 C 675.692 45.792 677.376 48.795 680.247 49.992 L 680.247 49.992 Z  M 679.523 42.38 C 680.277 40.558 682.38 39.687 684.203 40.441 C 686.025 41.197 686.896 43.299 686.142 45.122 C 685.387 46.944 683.284 47.815 681.461 47.061 C 679.633 46.321 678.762 44.218 679.523 42.38 Z  M 662.826 57.209 C 665.675 58.384 668.959 57.481 670.806 55.014 L 689.993 62.96 C 690.794 63.292 691.723 62.907 692.054 62.106 C 692.386 61.304 692.002 60.376 691.2 60.044 L 672.057 52.116 C 672.577 49.087 670.948 45.969 667.988 44.744 C 665.028 43.518 661.693 44.562 659.898 47.081 L 649.955 42.963 C 649.153 42.631 648.225 43.015 647.893 43.817 C 647.561 44.618 647.945 45.547 648.748 45.879 L 658.719 50.009 C 658.309 52.981 659.925 56.008 662.826 57.209 L 662.826 57.209 Z  M 662.101 49.598 C 662.856 47.776 664.959 46.905 666.781 47.659 C 668.603 48.414 669.475 50.517 668.719 52.34 C 667.965 54.162 665.862 55.033 664.04 54.279 C 662.217 53.524 661.34 51.435 662.101 49.598 Z " fill="rgb(230,239,194)"/><path d=" M 837.963 218.685 C 840.893 219.898 844.203 218.877 846.003 216.429 L 860.319 222.359 C 861.121 222.69 862.049 222.306 862.381 221.504 C 862.713 220.702 862.328 219.774 861.527 219.443 L 847.21 213.513 C 847.695 210.433 846.003 207.421 843.119 206.234 C 840.188 205.021 836.88 206.041 835.08 208.49 L 820.266 202.355 C 819.465 202.023 818.537 202.408 818.205 203.21 C 817.873 204.011 818.258 204.939 819.059 205.271 L 833.872 211.406 C 833.393 214.485 835.083 217.493 837.963 218.685 L 837.963 218.685 Z  M 837.217 211.083 C 837.971 209.26 840.075 208.389 841.897 209.144 C 843.72 209.898 844.59 212.002 843.836 213.824 C 843.081 215.647 840.978 216.518 839.156 215.763 C 837.334 215.008 836.462 212.905 837.217 211.083 Z  M 832.705 225.44 L 855.173 234.745 C 855.974 235.077 856.903 234.692 857.234 233.891 C 857.566 233.089 857.182 232.161 856.38 231.829 L 833.913 222.525 C 834.392 219.512 832.768 216.465 829.822 215.245 C 826.877 214.025 823.583 215.053 821.783 217.501 L 815.135 214.748 C 814.333 214.416 813.405 214.8 813.073 215.602 C 812.741 216.404 813.125 217.332 813.927 217.664 L 820.576 220.417 C 820.097 223.429 821.722 226.477 824.666 227.696 C 827.611 228.916 830.915 227.91 832.705 225.44 L 832.705 225.44 Z  M 823.935 220.101 C 824.69 218.278 826.792 217.406 828.615 218.162 C 830.438 218.916 831.308 221.019 830.554 222.841 C 829.799 224.664 827.696 225.535 825.874 224.78 C 824.052 224.026 823.18 221.922 823.935 220.101 Z  M 835.157 246.576 C 838.087 247.789 841.396 246.768 843.196 244.32 L 850.035 247.152 C 850.836 247.484 851.764 247.099 852.096 246.298 C 852.428 245.496 852.044 244.568 851.242 244.236 L 844.404 241.404 C 844.889 238.324 843.198 235.312 840.314 234.125 C 837.383 232.912 834.074 233.932 832.274 236.381 L 809.996 227.155 C 809.195 226.823 808.267 227.207 807.935 228.009 C 807.603 228.811 807.987 229.739 808.789 230.071 L 831.081 239.303 C 830.602 242.377 832.285 245.38 835.157 246.576 L 835.157 246.576 Z  M 834.432 238.965 C 835.187 237.143 837.289 236.272 839.112 237.026 C 840.935 237.781 841.806 239.884 841.051 241.707 C 840.296 243.529 838.193 244.4 836.371 243.646 C 834.542 242.905 833.671 240.803 834.432 238.965 Z  M 817.736 253.793 C 820.585 254.969 823.867 254.065 825.716 251.599 L 844.902 259.544 C 845.704 259.877 846.632 259.492 846.964 258.69 C 847.296 257.889 846.911 256.961 846.11 256.629 L 826.967 248.701 C 827.487 245.671 825.858 242.554 822.898 241.328 C 819.938 240.103 816.602 241.147 814.807 243.665 L 804.864 239.548 C 804.063 239.215 803.135 239.6 802.803 240.402 C 802.471 241.203 802.855 242.132 803.657 242.463 L 813.629 246.593 C 813.218 249.566 814.834 252.592 817.736 253.793 L 817.736 253.793 Z  M 817.01 246.183 C 817.765 244.361 819.868 243.489 821.69 244.244 C 823.512 244.999 824.384 247.102 823.629 248.924 C 822.875 250.747 820.771 251.618 818.949 250.864 C 817.127 250.108 816.249 248.02 817.01 246.183 Z " fill="rgb(230,239,194)"/></g></svg>